%TF.GenerationSoftware,KiCad,Pcbnew,8.0.6*%
%TF.CreationDate,2025-01-17T17:38:41+00:00*%
%TF.ProjectId,front,66726f6e-742e-46b6-9963-61645f706362,rev?*%
%TF.SameCoordinates,Original*%
%TF.FileFunction,Copper,L1,Top*%
%TF.FilePolarity,Positive*%
%FSLAX46Y46*%
G04 Gerber Fmt 4.6, Leading zero omitted, Abs format (unit mm)*
G04 Created by KiCad (PCBNEW 8.0.6) date 2025-01-17 17:38:41*
%MOMM*%
%LPD*%
G01*
G04 APERTURE LIST*
%TA.AperFunction,ComponentPad*%
%ADD10C,6.000000*%
%TD*%
G04 APERTURE END LIST*
D10*
%TO.P,H18,1*%
%TO.N,GND*%
X81900000Y-87400000D03*
%TD*%
%TO.P,H16,1*%
%TO.N,GND*%
X261900000Y-87400000D03*
%TD*%
%TA.AperFunction,Conductor*%
%TO.N,GND*%
G36*
X267942539Y-68720185D02*
G01*
X267988294Y-68772989D01*
X267999500Y-68824500D01*
X267999500Y-91375500D01*
X267979815Y-91442539D01*
X267927011Y-91488294D01*
X267875500Y-91499500D01*
X75924500Y-91499500D01*
X75857461Y-91479815D01*
X75811706Y-91427011D01*
X75800500Y-91375500D01*
X75800500Y-87399999D01*
X78395197Y-87399999D01*
X78395197Y-87400000D01*
X78414397Y-87766353D01*
X78471784Y-88128684D01*
X78471784Y-88128686D01*
X78566736Y-88483051D01*
X78698204Y-88825535D01*
X78864754Y-89152406D01*
X79064553Y-89460070D01*
X79253297Y-89693148D01*
X80605748Y-88340698D01*
X80679588Y-88442330D01*
X80857670Y-88620412D01*
X80959300Y-88694251D01*
X79606850Y-90046701D01*
X79839929Y-90235446D01*
X80147593Y-90435245D01*
X80474464Y-90601795D01*
X80816948Y-90733263D01*
X81171314Y-90828215D01*
X81533646Y-90885602D01*
X81899999Y-90904803D01*
X81900001Y-90904803D01*
X82266353Y-90885602D01*
X82628684Y-90828215D01*
X82628686Y-90828215D01*
X82983051Y-90733263D01*
X83325535Y-90601795D01*
X83652406Y-90435245D01*
X83960064Y-90235450D01*
X84193148Y-90046701D01*
X82840698Y-88694251D01*
X82942330Y-88620412D01*
X83120412Y-88442330D01*
X83194251Y-88340698D01*
X84546701Y-89693148D01*
X84735450Y-89460064D01*
X84935245Y-89152406D01*
X85101795Y-88825535D01*
X85233263Y-88483051D01*
X85328215Y-88128686D01*
X85328215Y-88128684D01*
X85385602Y-87766353D01*
X85404803Y-87400000D01*
X85404803Y-87399999D01*
X258395197Y-87399999D01*
X258395197Y-87400000D01*
X258414397Y-87766353D01*
X258471784Y-88128684D01*
X258471784Y-88128686D01*
X258566736Y-88483051D01*
X258698204Y-88825535D01*
X258864754Y-89152406D01*
X259064553Y-89460070D01*
X259253297Y-89693148D01*
X260605748Y-88340698D01*
X260679588Y-88442330D01*
X260857670Y-88620412D01*
X260959300Y-88694251D01*
X259606850Y-90046701D01*
X259839929Y-90235446D01*
X260147593Y-90435245D01*
X260474464Y-90601795D01*
X260816948Y-90733263D01*
X261171314Y-90828215D01*
X261533646Y-90885602D01*
X261899999Y-90904803D01*
X261900001Y-90904803D01*
X262266353Y-90885602D01*
X262628684Y-90828215D01*
X262628686Y-90828215D01*
X262983051Y-90733263D01*
X263325535Y-90601795D01*
X263652406Y-90435245D01*
X263960064Y-90235450D01*
X264193148Y-90046701D01*
X262840698Y-88694251D01*
X262942330Y-88620412D01*
X263120412Y-88442330D01*
X263194251Y-88340698D01*
X264546701Y-89693148D01*
X264735450Y-89460064D01*
X264935245Y-89152406D01*
X265101795Y-88825535D01*
X265233263Y-88483051D01*
X265328215Y-88128686D01*
X265328215Y-88128684D01*
X265385602Y-87766353D01*
X265404803Y-87400000D01*
X265404803Y-87399999D01*
X265385602Y-87033646D01*
X265328215Y-86671315D01*
X265328215Y-86671313D01*
X265233263Y-86316948D01*
X265101795Y-85974464D01*
X264935245Y-85647594D01*
X264735446Y-85339929D01*
X264546701Y-85106850D01*
X263194251Y-86459300D01*
X263120412Y-86357670D01*
X262942330Y-86179588D01*
X262840698Y-86105748D01*
X264193149Y-84753297D01*
X263960070Y-84564553D01*
X263652406Y-84364754D01*
X263325535Y-84198204D01*
X262983051Y-84066736D01*
X262628685Y-83971784D01*
X262266353Y-83914397D01*
X261900001Y-83895197D01*
X261899999Y-83895197D01*
X261533646Y-83914397D01*
X261171315Y-83971784D01*
X261171313Y-83971784D01*
X260816948Y-84066736D01*
X260474464Y-84198204D01*
X260147594Y-84364754D01*
X259839924Y-84564557D01*
X259606849Y-84753296D01*
X259606849Y-84753297D01*
X260959301Y-86105748D01*
X260857670Y-86179588D01*
X260679588Y-86357670D01*
X260605748Y-86459300D01*
X259253297Y-85106849D01*
X259253296Y-85106849D01*
X259064557Y-85339924D01*
X258864754Y-85647594D01*
X258698204Y-85974464D01*
X258566736Y-86316948D01*
X258471784Y-86671313D01*
X258471784Y-86671315D01*
X258414397Y-87033646D01*
X258395197Y-87399999D01*
X85404803Y-87399999D01*
X85385602Y-87033646D01*
X85328215Y-86671315D01*
X85328215Y-86671313D01*
X85233263Y-86316948D01*
X85101795Y-85974464D01*
X84935245Y-85647594D01*
X84735446Y-85339929D01*
X84546701Y-85106850D01*
X83194251Y-86459300D01*
X83120412Y-86357670D01*
X82942330Y-86179588D01*
X82840698Y-86105748D01*
X84193149Y-84753297D01*
X83960070Y-84564553D01*
X83652406Y-84364754D01*
X83325535Y-84198204D01*
X82983051Y-84066736D01*
X82628685Y-83971784D01*
X82266353Y-83914397D01*
X81900001Y-83895197D01*
X81899999Y-83895197D01*
X81533646Y-83914397D01*
X81171315Y-83971784D01*
X81171313Y-83971784D01*
X80816948Y-84066736D01*
X80474464Y-84198204D01*
X80147594Y-84364754D01*
X79839924Y-84564557D01*
X79606849Y-84753296D01*
X79606849Y-84753297D01*
X80959301Y-86105748D01*
X80857670Y-86179588D01*
X80679588Y-86357670D01*
X80605748Y-86459300D01*
X79253297Y-85106849D01*
X79253296Y-85106849D01*
X79064557Y-85339924D01*
X78864754Y-85647594D01*
X78698204Y-85974464D01*
X78566736Y-86316948D01*
X78471784Y-86671313D01*
X78471784Y-86671315D01*
X78414397Y-87033646D01*
X78395197Y-87399999D01*
X75800500Y-87399999D01*
X75800500Y-68824500D01*
X75820185Y-68757461D01*
X75872989Y-68711706D01*
X75924500Y-68700500D01*
X267875500Y-68700500D01*
X267942539Y-68720185D01*
G37*
%TD.AperFunction*%
%TD*%
M02*
