M48
; DRILL file {KiCad 8.0.6} date 2024-12-27T12:36:30+0000
; FORMAT={-:-/ absolute / inch / decimal}
; #@! TF.CreationDate,2024-12-27T12:36:30+00:00
; #@! TF.GenerationSoftware,Kicad,Pcbnew,8.0.6
; #@! TF.FileFunction,Plated,1,2,PTH
FMAT,2
INCH
; #@! TA.AperFunction,Plated,PTH,ViaDrill
T1C0.0157
; #@! TA.AperFunction,Plated,PTH,ComponentDrill
T2C0.0236
; #@! TA.AperFunction,Plated,PTH,ComponentDrill
T3C0.0276
; #@! TA.AperFunction,Plated,PTH,ComponentDrill
T4C0.0315
; #@! TA.AperFunction,Plated,PTH,ComponentDrill
T5C0.0354
; #@! TA.AperFunction,Plated,PTH,ComponentDrill
T6C0.0394
; #@! TA.AperFunction,Plated,PTH,ComponentDrill
T7C0.0472
; #@! TA.AperFunction,Plated,PTH,ComponentDrill
T8C0.0512
; #@! TA.AperFunction,Plated,PTH,ComponentDrill
T9C0.0591
; #@! TA.AperFunction,Plated,PTH,ComponentDrill
T10C0.0866
; #@! TA.AperFunction,Plated,PTH,ComponentDrill
T11C0.1260
%
G90
G05
T1
X1.9465Y-3.025
X1.9965Y-2.9
X2.126Y-2.8624
X2.25Y-4.175
X2.35Y-4.8
X2.4Y-1.95
X2.4Y-2.1
X2.4Y-2.225
X2.4Y-2.4
X2.45Y-4.225
X2.5573Y-4.1061
X2.6Y-1.9
X2.6Y-2.2
X2.6Y-2.375
X2.65Y-4.2465
X2.7Y-2.475
X2.75Y-3.0215
X2.775Y-3.125
X2.9Y-1.775
X2.95Y-2.15
X3.0Y-2.55
X3.025Y-2.1071
X3.1Y-2.8
X3.1Y-3.1
X3.15Y-2.15
X3.15Y-2.375
X3.15Y-3.1
X3.1704Y-2.2071
X3.2Y-2.1356
X3.2Y-2.175
X3.25Y-2.575
X3.25Y-3.1
X3.275Y-3.85
X3.3071Y-2.8642
X3.35Y-2.076
X3.35Y-3.1
X3.3929Y-3.625
X3.4Y-2.8642
X3.4215Y-4.425
X3.45Y-2.0035
X3.45Y-3.1
X3.45Y-4.9785
X3.5Y-2.9213
X3.55Y-1.9465
X3.55Y-2.25
X3.55Y-3.05
X3.55Y-3.1
X3.6Y-1.9465
X3.6Y-2.075
X3.65Y-2.0
X3.65Y-3.1
X3.7Y-2.8819
X3.75Y-2.25
X3.75Y-2.375
X3.75Y-3.1
X3.8Y-2.02
X3.8Y-2.075
X3.8Y-2.75
X3.85Y-1.9
X3.85Y-2.175
X3.85Y-3.225
X3.9Y-2.25
X3.95Y-2.0
X3.95Y-2.075
X3.95Y-2.1862
X3.95Y-3.1864
X4.0Y-2.225
X4.0Y-2.275
X4.0Y-3.1687
X4.05Y-2.0
X4.05Y-2.075
X4.05Y-2.2039
X4.05Y-3.1687
X4.1Y-2.225
X4.1Y-3.15
X4.1057Y-2.275
X4.15Y-2.014
X4.15Y-2.075
X4.15Y-2.225
X4.15Y-3.15
X4.2Y-2.2679
X4.2Y-3.1333
X4.25Y-2.075
X4.25Y-2.2394
X4.3Y-3.1333
X4.34Y-2.0937
X4.375Y-1.85
X4.45Y-2.05
X4.5Y-2.1
X4.5Y-2.4856
X4.525Y-1.95
X4.65Y-2.0
X4.65Y-2.4856
X4.65Y-2.875
X4.7115Y-3.0624
X4.7215Y-3.45
X4.75Y-1.7465
X4.75Y-3.0801
X4.775Y-4.1
X4.8Y-2.4856
X4.8Y-2.9
X4.825Y-4.95
X4.85Y-2.1022
X4.85Y-3.0978
X4.8843Y-1.8213
X4.9Y-4.775
X4.95Y-2.1199
X4.95Y-2.4856
X4.95Y-2.875
X4.95Y-3.099
X4.975Y-4.1965
X5.05Y-3.1167
X5.075Y-1.775
X5.1Y-2.061
X5.125Y-2.4856
X5.125Y-2.6313
X5.1388Y-3.3636
X5.15Y-3.1344
X5.2215Y-3.4
X5.2457Y-3.5
X5.25Y-2.425
X5.25Y-3.1687
X5.3Y-2.925
X5.35Y-2.525
X5.35Y-3.1699
X5.3715Y-2.413
X5.3894Y-2.4856
X5.4Y-2.875
X5.45Y-2.3953
X5.45Y-2.5427
X5.5053Y-2.4856
X5.55Y-2.3776
X5.55Y-2.5604
X5.55Y-3.2258
X5.55Y-4.2285
X5.575Y-3.4
X5.6Y-2.4856
X5.65Y-2.3598
X5.65Y-2.5781
X5.7Y-2.4856
X5.75Y-2.3421
X5.75Y-2.4
X5.75Y-2.5959
X5.8Y-2.4856
X5.85Y-2.3244
X5.85Y-2.413
X5.85Y-2.6136
X5.85Y-3.05
X5.9Y-3.2361
X5.9Y-2.6313
X5.95Y-2.3067
X5.95Y-2.649
X5.95Y-3.0978
X5.975Y-3.4
X6.0Y-2.4856
X6.0Y-2.9
X6.05Y-2.6667
X6.05Y-3.1156
X6.1Y-2.575
X6.1Y-3.225
X6.1Y-3.0139
X6.15Y-2.275
X6.15Y-2.6844
X6.15Y-3.1333
X6.2Y-2.575
X6.2Y-2.675
X6.2Y-3.125
X6.25Y-2.3465
X6.25Y-2.7022
X6.25Y-3.1904
X6.3Y-2.575
X6.3Y-2.675
X6.3Y-2.9
X6.3Y-3.125
X6.325Y-3.4
X6.35Y-2.375
X6.35Y-3.175
X6.4Y-2.575
X6.4Y-2.675
X6.45Y-3.1
X6.475Y-2.325
X6.514Y-2.111
X6.525Y-1.85
X6.55Y-3.3
X6.575Y-2.675
X6.5785Y-3.225
X6.6Y-2.325
X6.6Y-2.575
X6.625Y-2.05
X6.6423Y-2.1327
X6.675Y-2.4856
X6.6992Y-2.5965
X6.7Y-3.125
X6.7Y-3.4
X6.7822Y-3.3082
X6.7939Y-2.9965
X6.7962Y-2.4768
X6.825Y-2.725
X6.825Y-2.825
X6.825Y-3.075
X6.825Y-3.3
X6.85Y-2.4768
X6.85Y-3.15
X6.863Y-2.9715
X6.875Y-3.25
X7.025Y-3.55
X7.05Y-2.975
X7.05Y-3.1
X7.05Y-3.225
X7.1Y-2.1898
X7.125Y-3.4
X7.125Y-3.825
X7.175Y-2.525
X7.19Y-2.25
X7.225Y-2.6965
X7.225Y-2.775
X7.225Y-2.9
X7.2691Y-3.0845
X7.275Y-2.5935
X7.325Y-2.775
X7.325Y-3.0
X7.375Y-2.25
X7.475Y-3.4
X7.5Y-1.9
X7.5Y-2.25
X7.575Y-2.775
X7.575Y-2.875
X7.575Y-2.975
X7.625Y-2.25
X7.725Y-3.075
X7.725Y-3.175
X7.775Y-4.125
X7.825Y-2.7
X7.825Y-2.825
X7.825Y-3.55
X7.8285Y-3.125
X7.875Y-2.975
X7.875Y-3.175
X7.9Y-3.4
X8.05Y-2.55
X8.05Y-2.775
X8.05Y-2.925
X8.05Y-3.025
X8.2Y-3.525
X8.25Y-2.5
X8.4Y-4.75
X8.4Y-4.825
X8.425Y-4.325
X8.4537Y-3.55
X8.5285Y-4.025
X8.55Y-3.075
X8.625Y-2.675
X8.625Y-2.875
X8.6625Y-4.1375
X8.725Y-1.85
X8.7492Y-3.4785
X8.775Y-3.9
X8.875Y-2.7
X8.9Y-2.475
X8.95Y-4.175
X9.0Y-2.375
X9.025Y-3.275
X9.225Y-4.225
T3
X6.575Y-2.1
X6.775Y-2.1
X7.8858Y-2.0
X7.8865Y-2.32
X7.9606Y-2.0
X8.0502Y-2.0
X8.0865Y-2.32
X8.125Y-2.0
X8.19Y-2.32
X8.2126Y-2.0
X8.2874Y-2.0
X8.39Y-2.32
X8.5502Y-2.4667
X8.5502Y-2.5667
X8.625Y-2.4667
X8.625Y-2.5667
X8.85Y-1.9
X8.85Y-2.1
T4
X2.0Y-1.85
X2.0Y-1.95
X2.0Y-2.05
X2.0Y-2.15
X2.0Y-2.25
X2.0Y-2.35
X2.0Y-2.45
X2.0Y-2.55
X2.075Y-3.4055
X2.1Y-4.075
X2.1Y-4.9
X2.2016Y-1.725
X2.3Y-1.725
X2.3Y-1.85
X2.3Y-1.95
X2.3Y-2.05
X2.3Y-2.15
X2.3Y-2.25
X2.3Y-2.35
X2.3Y-2.45
X2.3Y-2.55
X2.375Y-3.4055
X2.4Y-4.075
X2.4Y-4.9
X2.475Y-2.925
X2.475Y-3.225
X2.5Y-1.85
X2.5Y-1.95
X2.5Y-2.05
X2.5Y-2.15
X2.5Y-2.25
X2.5Y-2.35
X2.5Y-2.45
X2.5Y-2.55
X2.575Y-2.925
X2.575Y-3.225
X2.6181Y-3.5902
X2.6181Y-3.8902
X2.6181Y-4.3382
X2.6181Y-4.6382
X2.625Y-5.075
X2.625Y-5.375
X2.675Y-2.6758
X2.675Y-2.7742
X2.7016Y-1.725
X2.8Y-1.725
X2.8Y-1.85
X2.8Y-1.95
X2.8Y-2.05
X2.8Y-2.15
X2.8Y-2.25
X2.8Y-2.35
X2.8Y-2.45
X2.8Y-2.55
X2.8Y-2.675
X2.8Y-3.275
X2.825Y-3.4055
X2.825Y-4.15
X2.825Y-4.825
X2.9Y-2.675
X2.9Y-3.275
X3.0Y-2.675
X3.0Y-3.275
X3.0004Y-1.85
X3.0004Y-2.45
X3.0016Y-1.725
X3.1Y-1.725
X3.1Y-2.675
X3.1Y-3.275
X3.1004Y-1.85
X3.1004Y-2.45
X3.125Y-3.4055
X3.125Y-4.15
X3.125Y-4.825
X3.2Y-2.675
X3.2Y-3.275
X3.2004Y-1.85
X3.2004Y-2.45
X3.3Y-1.725
X3.3Y-2.675
X3.3Y-3.275
X3.3004Y-1.85
X3.3004Y-2.45
X3.4Y-1.725
X3.4Y-2.675
X3.4Y-3.275
X3.4004Y-1.85
X3.4004Y-2.45
X3.5Y-1.725
X3.5Y-2.675
X3.5Y-3.275
X3.5004Y-1.85
X3.5004Y-2.45
X3.575Y-3.4055
X3.575Y-4.075
X3.6Y-1.725
X3.6Y-2.675
X3.6Y-3.275
X3.6Y-4.9
X3.6004Y-1.85
X3.6004Y-2.45
X3.7Y-1.725
X3.7Y-2.675
X3.7Y-3.275
X3.7004Y-1.85
X3.7004Y-2.45
X3.8Y-2.675
X3.8Y-3.275
X3.8004Y-1.85
X3.8004Y-2.45
X3.875Y-3.4055
X3.875Y-4.075
X3.9Y-1.725
X3.9Y-2.675
X3.9Y-3.275
X3.9Y-4.9
X3.9004Y-1.85
X3.9004Y-2.45
X4.0Y-1.725
X4.0Y-2.675
X4.0Y-3.275
X4.0004Y-1.85
X4.0004Y-2.45
X4.1Y-1.725
X4.1Y-2.675
X4.1Y-3.275
X4.1Y-3.5827
X4.1Y-3.8827
X4.1Y-4.35
X4.1Y-4.65
X4.1004Y-1.85
X4.1004Y-2.45
X4.2Y-1.725
X4.2Y-2.675
X4.2Y-3.275
X4.2004Y-1.85
X4.2004Y-2.45
X4.3Y-1.725
X4.3Y-2.675
X4.3Y-3.275
X4.3004Y-1.85
X4.3004Y-2.45
X4.325Y-3.4055
X4.325Y-4.825
X4.35Y-4.1535
X4.425Y-2.875
X4.425Y-2.9734
X4.55Y-2.175
X4.55Y-2.775
X4.55Y-2.975
X4.55Y-3.275
X4.625Y-3.4055
X4.625Y-4.825
X4.65Y-2.175
X4.65Y-2.775
X4.65Y-2.975
X4.65Y-3.275
X4.65Y-4.1535
X4.75Y-2.175
X4.75Y-2.775
X4.75Y-2.975
X4.75Y-3.275
X4.85Y-2.175
X4.85Y-2.775
X4.85Y-2.975
X4.85Y-3.275
X4.95Y-2.175
X4.95Y-2.775
X4.95Y-2.975
X4.95Y-3.275
X5.05Y-2.175
X5.05Y-2.775
X5.05Y-2.975
X5.05Y-3.275
X5.075Y-3.4055
X5.075Y-4.9016
X5.0862Y-4.075
X5.15Y-2.175
X5.15Y-2.775
X5.15Y-2.975
X5.15Y-3.275
X5.25Y-2.175
X5.25Y-2.775
X5.25Y-2.975
X5.25Y-3.275
X5.35Y-2.175
X5.35Y-2.775
X5.35Y-2.975
X5.35Y-3.275
X5.375Y-3.4055
X5.375Y-4.9016
X5.3862Y-4.075
X5.45Y-2.175
X5.45Y-2.775
X5.45Y-2.975
X5.45Y-3.275
X5.55Y-2.175
X5.55Y-2.775
X5.5577Y-2.8766
X5.5577Y-2.975
X5.6427Y-2.8766
X5.6427Y-2.975
X5.65Y-2.175
X5.65Y-2.775
X5.75Y-2.175
X5.75Y-2.775
X5.75Y-2.975
X5.75Y-3.275
X5.825Y-4.825
X5.8343Y-4.1535
X5.85Y-2.175
X5.85Y-2.775
X5.85Y-2.975
X5.85Y-3.275
X5.85Y-3.4
X5.95Y-2.175
X5.95Y-2.775
X5.95Y-2.975
X5.95Y-3.275
X6.05Y-2.175
X6.05Y-2.775
X6.05Y-2.975
X6.05Y-3.275
X6.125Y-4.825
X6.1343Y-4.1535
X6.15Y-2.175
X6.15Y-2.775
X6.15Y-2.975
X6.15Y-3.275
X6.15Y-3.4
X6.25Y-2.175
X6.25Y-2.775
X6.25Y-2.975
X6.25Y-3.275
X6.35Y-2.175
X6.35Y-2.775
X6.35Y-2.975
X6.35Y-3.275
X6.45Y-2.175
X6.45Y-2.775
X6.45Y-2.975
X6.45Y-3.275
X6.575Y-3.4
X6.575Y-4.9016
X6.5823Y-4.075
X6.65Y-2.6748
X6.65Y-2.7748
X6.65Y-2.8748
X6.65Y-2.9748
X6.65Y-3.0748
X6.65Y-3.1748
X6.65Y-3.2748
X6.85Y-2.545
X6.875Y-3.4
X6.875Y-4.9016
X6.8758Y-2.1
X6.8823Y-4.075
X6.9484Y-2.545
X6.95Y-2.6748
X6.95Y-2.7748
X6.95Y-2.8748
X6.95Y-2.9748
X6.95Y-3.0748
X6.95Y-3.1748
X6.95Y-3.2748
X6.9742Y-2.1
X7.1Y-2.1006
X7.1Y-2.4006
X7.15Y-2.675
X7.15Y-2.775
X7.15Y-2.875
X7.15Y-2.975
X7.15Y-3.075
X7.15Y-3.175
X7.15Y-3.275
X7.2Y-2.1006
X7.2Y-2.4006
X7.3Y-2.1006
X7.3Y-2.4006
X7.325Y-3.4055
X7.325Y-4.1535
X7.325Y-4.825
X7.3516Y-2.55
X7.4Y-2.1006
X7.4Y-2.4006
X7.45Y-2.55
X7.45Y-2.675
X7.45Y-2.775
X7.45Y-2.875
X7.45Y-2.975
X7.45Y-3.075
X7.45Y-3.175
X7.45Y-3.275
X7.5Y-2.1006
X7.5Y-2.4006
X7.6Y-2.1006
X7.6Y-2.4006
X7.625Y-3.4055
X7.625Y-4.1535
X7.625Y-4.825
X7.65Y-2.575
X7.65Y-2.675
X7.65Y-2.775
X7.65Y-2.875
X7.65Y-2.975
X7.65Y-3.075
X7.65Y-3.175
X7.65Y-3.275
X7.7Y-2.1006
X7.7Y-2.4006
X7.8285Y-2.1058
X7.8285Y-2.2042
X7.8516Y-2.45
X7.95Y-2.45
X7.95Y-2.575
X7.95Y-2.675
X7.95Y-2.775
X7.95Y-2.875
X7.95Y-2.975
X7.95Y-3.075
X7.95Y-3.175
X7.95Y-3.275
X8.0285Y-2.16
X8.075Y-3.4055
X8.075Y-4.075
X8.075Y-4.9016
X8.1244Y-2.5756
X8.1244Y-2.6756
X8.1244Y-2.7756
X8.1244Y-2.8756
X8.1244Y-2.9756
X8.1244Y-3.0756
X8.1244Y-3.1756
X8.1244Y-3.2756
X8.2207Y-2.16
X8.3266Y-2.45
X8.375Y-3.4055
X8.375Y-4.075
X8.375Y-4.9016
X8.4244Y-2.5756
X8.4244Y-2.6756
X8.4244Y-2.7756
X8.4244Y-2.8756
X8.4244Y-2.9756
X8.4244Y-3.0756
X8.4244Y-3.1756
X8.4244Y-3.2756
X8.425Y-2.45
X8.4285Y-2.1058
X8.4285Y-2.2042
X8.6339Y-2.0
X8.7126Y-2.0
X8.76Y-2.475
X8.76Y-2.575
X8.76Y-2.675
X8.76Y-2.775
X8.76Y-2.875
X8.76Y-2.975
X8.76Y-3.075
X8.76Y-3.175
X8.76Y-3.275
X8.825Y-3.4
X8.825Y-4.15
X8.825Y-4.825
X8.95Y-2.6
X9.0287Y-2.6
X9.125Y-3.4
X9.125Y-4.15
X9.125Y-4.825
T5
X8.3925Y-1.775
X8.4713Y-1.775
X8.55Y-1.775
X8.7748Y-1.74
X8.8748Y-1.74
T6
X2.2088Y-2.8364
X2.2088Y-2.9455
X2.2088Y-3.0545
X2.2088Y-3.1636
X2.3088Y-2.7819
X2.3088Y-2.8909
X2.3088Y-3.0
X2.3088Y-3.1091
X2.3088Y-3.2181
X4.75Y-1.896
X4.75Y-1.996
X4.85Y-1.896
X4.85Y-1.996
X4.95Y-1.896
X4.95Y-1.996
X5.05Y-1.896
X5.05Y-1.996
X5.15Y-1.896
X5.15Y-1.996
X5.25Y-1.896
X5.25Y-1.996
X5.35Y-1.896
X5.35Y-1.996
X5.45Y-1.896
X5.45Y-1.996
X5.55Y-1.896
X5.55Y-1.996
X5.65Y-1.896
X5.65Y-1.996
X5.75Y-1.896
X5.75Y-1.996
X5.85Y-1.896
X5.85Y-1.996
X5.95Y-1.896
X5.95Y-1.996
X6.05Y-1.896
X6.05Y-1.996
X6.15Y-1.896
X6.15Y-1.996
X6.25Y-1.896
X6.25Y-1.996
X6.35Y-1.896
X6.35Y-1.996
X6.7006Y-2.2252
X6.7006Y-2.3252
X6.8006Y-2.2252
X6.8006Y-2.3252
X6.9006Y-2.2252
X6.9006Y-2.3252
X6.9929Y-1.8778
X7.038Y-1.7998
X7.038Y-1.9557
X7.0831Y-1.8778
X7.1281Y-1.7998
X7.1281Y-1.9557
X7.1732Y-1.8778
X7.2183Y-1.7998
X7.2183Y-1.9557
X7.2634Y-1.8778
X7.3085Y-1.7998
X7.3085Y-1.9557
X7.3535Y-1.8778
X7.3986Y-1.7998
X7.3986Y-1.9557
X7.9614Y-1.775
X8.1386Y-1.775
X8.6043Y-2.2638
X8.7303Y-2.2638
X8.9117Y-2.7823
X8.9117Y-2.8913
X8.9117Y-3.0004
X8.9117Y-3.1094
X8.9117Y-3.2185
X9.0117Y-2.8368
X9.0117Y-2.9459
X9.0117Y-3.0549
X9.0117Y-3.164
T7
X2.2441Y-3.9961
X2.2441Y-4.7441
X2.2441Y-5.4921
X2.3937Y-3.8898
X2.3937Y-4.6378
X2.3937Y-5.3858
X2.9921Y-3.9961
X2.9921Y-4.7441
X2.9921Y-5.4921
X3.1417Y-3.8898
X3.1417Y-4.6378
X3.1417Y-5.3858
X3.7402Y-3.9961
X3.7402Y-4.7441
X3.7402Y-5.4921
X3.8898Y-3.8898
X3.8898Y-4.6378
X3.8898Y-5.3858
X4.4882Y-3.9961
X4.4882Y-4.7441
X4.4882Y-5.4921
X4.6378Y-3.8898
X4.6378Y-4.6378
X4.6378Y-5.3858
X5.2362Y-3.9961
X5.2362Y-4.7441
X5.2362Y-5.4921
X5.3858Y-3.8898
X5.3858Y-4.6378
X5.3858Y-5.3858
X5.9843Y-3.9961
X5.9843Y-4.7441
X5.9843Y-5.4921
X6.1339Y-3.8898
X6.1339Y-4.6378
X6.1339Y-5.3858
X6.7323Y-3.9961
X6.7323Y-4.7441
X6.7323Y-5.4921
X6.8819Y-3.8898
X6.8819Y-4.6378
X6.8819Y-5.3858
X7.4803Y-3.9961
X7.4803Y-4.7441
X7.4803Y-5.4921
X7.6299Y-3.8898
X7.6299Y-4.6378
X7.6299Y-5.3858
X8.2283Y-3.9961
X8.2283Y-4.7441
X8.2283Y-5.4921
X8.378Y-3.8898
X8.378Y-4.6378
X8.378Y-5.3858
X8.9764Y-3.9961
X8.9764Y-4.7441
X8.9764Y-5.4921
X9.126Y-3.8898
X9.126Y-4.6378
X9.126Y-5.3858
T8
X7.9122Y-1.8734
X8.1878Y-1.8734
T9
X2.0941Y-3.6402
X2.0941Y-4.3882
X2.0941Y-5.1362
X2.3441Y-3.5402
X2.3441Y-4.2882
X2.3441Y-5.0362
X2.8421Y-3.6402
X2.8421Y-4.3882
X2.8421Y-5.1362
X3.0921Y-3.5402
X3.0921Y-4.2882
X3.0921Y-5.0362
X3.5902Y-3.6402
X3.5902Y-4.3882
X3.5902Y-5.1362
X3.8402Y-3.5402
X3.8402Y-4.2882
X3.8402Y-5.0362
X4.3382Y-3.6402
X4.3382Y-4.3882
X4.3382Y-5.1362
X4.5882Y-3.5402
X4.5882Y-4.2882
X4.5882Y-5.0362
X5.0862Y-3.6402
X5.0862Y-4.3882
X5.0862Y-5.1362
X5.3362Y-3.5402
X5.3362Y-4.2882
X5.3362Y-5.0362
X5.8343Y-3.6402
X5.8343Y-4.3882
X5.8343Y-5.1362
X6.0843Y-3.5402
X6.0843Y-4.2882
X6.0843Y-5.0362
X6.5823Y-3.6402
X6.5823Y-4.3882
X6.5823Y-5.1362
X6.8323Y-3.5402
X6.8323Y-4.2882
X6.8323Y-5.0362
X7.3303Y-3.6402
X7.3303Y-4.3882
X7.3303Y-5.1362
X7.5803Y-3.5402
X7.5803Y-4.2882
X7.5803Y-5.0362
X8.0783Y-3.6402
X8.0783Y-4.3882
X8.0783Y-5.1362
X8.3098Y-1.775
X8.3283Y-3.5402
X8.3283Y-4.2882
X8.3283Y-5.0362
X8.6327Y-1.775
X8.8264Y-3.6402
X8.8264Y-4.3882
X8.8264Y-5.1362
X9.0764Y-3.5402
X9.0764Y-4.2882
X9.0764Y-5.0362
T10
X2.6181Y-3.3661
X2.6181Y-4.8622
X8.6Y-3.3661
X8.6024Y-4.8622
T11
X6.7157Y-1.875
X7.7Y-1.875
T2
G00X8.9157Y-2.3775
M15
G01X8.8921Y-2.3775
M16
G05
G00X8.9748Y-2.2003
M15
G01X8.9512Y-2.2003
M16
G05
G00X9.1323Y-2.2003
M15
G01X9.1087Y-2.2003
M16
G05
G00X9.2504Y-2.2003
M15
G01X9.2268Y-2.2003
M16
G05
G00X9.2504Y-2.4168
M15
G01X9.2268Y-2.4168
M16
G05
T6
G00X8.961Y-1.9791
M15
G01X8.961Y-1.8925
M16
G05
G00X9.1933Y-1.802
M15
G01X9.1067Y-1.802
M16
G05
G00X9.2012Y-2.05
M15
G01X9.0988Y-2.05
M16
G05
M30
