%TF.GenerationSoftware,KiCad,Pcbnew,8.0.6*%
%TF.CreationDate,2025-01-17T17:22:04+00:00*%
%TF.ProjectId,back,6261636b-2e6b-4696-9361-645f70636258,rev?*%
%TF.SameCoordinates,Original*%
%TF.FileFunction,Profile,NP*%
%FSLAX46Y46*%
G04 Gerber Fmt 4.6, Leading zero omitted, Abs format (unit mm)*
G04 Created by KiCad (PCBNEW 8.0.6) date 2025-01-17 17:22:04*
%MOMM*%
%LPD*%
G01*
G04 APERTURE LIST*
%TA.AperFunction,Profile*%
%ADD10C,0.050000*%
%TD*%
%TA.AperFunction,Profile*%
%ADD11C,0.100000*%
%TD*%
G04 APERTURE END LIST*
D10*
X138800000Y-96600000D02*
X190200000Y-96600000D01*
X190200000Y-105000000D01*
X138800000Y-105000000D01*
X138800000Y-96600000D01*
X231650000Y-97900000D02*
X236550000Y-97900000D01*
X236550000Y-105000000D01*
X231650000Y-105000000D01*
X231650000Y-97900000D01*
D11*
X216050000Y-96525000D02*
X215050048Y-101725009D01*
X199800000Y-103925000D02*
X198050000Y-101725000D01*
X197050000Y-96525000D02*
X199050000Y-94025000D01*
D10*
X67900000Y-92400000D02*
X261100000Y-92400000D01*
X261100000Y-116200000D01*
X67900000Y-116200000D01*
X67900000Y-92400000D01*
D11*
X214050000Y-94025000D02*
X216050000Y-96525000D01*
D10*
X229100000Y-101000000D02*
G75*
G02*
X225700000Y-101000000I-1700000J0D01*
G01*
X225700000Y-101000000D02*
G75*
G02*
X229100000Y-101000000I1700000J0D01*
G01*
X244500000Y-102000000D02*
X244500000Y-105000000D01*
X240500000Y-105000000D02*
X240500000Y-102000000D01*
X240500000Y-102000000D02*
X244500000Y-102000000D01*
D11*
X199800000Y-103925000D02*
X206550000Y-103925000D01*
D10*
X250100000Y-94000000D02*
X259500000Y-94000000D01*
X259500000Y-105000000D01*
X250100000Y-105000000D01*
X250100000Y-94000000D01*
X244500000Y-105000000D02*
X242500000Y-105000000D01*
D11*
X206550000Y-103925000D02*
X213300000Y-103925000D01*
X215050000Y-101725000D02*
X213300000Y-103925000D01*
X198050000Y-101725000D02*
X197050048Y-96524991D01*
D10*
X214050000Y-94025000D02*
X199050000Y-94025000D01*
X220800000Y-98900000D02*
G75*
G02*
X217400000Y-98900000I-1700000J0D01*
G01*
X217400000Y-98900000D02*
G75*
G02*
X220800000Y-98900000I1700000J0D01*
G01*
X242500000Y-105000000D02*
X240500000Y-105000000D01*
X195800000Y-98900000D02*
G75*
G02*
X192400000Y-98900000I-1700000J0D01*
G01*
X192400000Y-98900000D02*
G75*
G02*
X195800000Y-98900000I1700000J0D01*
G01*
M02*
