%TF.GenerationSoftware,KiCad,Pcbnew,8.0.6*%
%TF.CreationDate,2025-01-18T12:54:08+00:00*%
%TF.ProjectId,a1,61312e6b-6963-4616-945f-706362585858,rev?*%
%TF.SameCoordinates,Original*%
%TF.FileFunction,Legend,Bot*%
%TF.FilePolarity,Positive*%
%FSLAX46Y46*%
G04 Gerber Fmt 4.6, Leading zero omitted, Abs format (unit mm)*
G04 Created by KiCad (PCBNEW 8.0.6) date 2025-01-18 12:54:08*
%MOMM*%
%LPD*%
G01*
G04 APERTURE LIST*
%ADD10C,0.150000*%
%ADD11C,0.300000*%
%ADD12C,0.200000*%
%ADD13C,0.120000*%
%ADD14C,0.100000*%
G04 APERTURE END LIST*
D10*
X239277506Y-138394819D02*
X239277506Y-139109104D01*
X239277506Y-139109104D02*
X239325125Y-139251961D01*
X239325125Y-139251961D02*
X239420363Y-139347200D01*
X239420363Y-139347200D02*
X239563220Y-139394819D01*
X239563220Y-139394819D02*
X239658458Y-139394819D01*
X238325125Y-139394819D02*
X238801315Y-139394819D01*
X238801315Y-139394819D02*
X238801315Y-138394819D01*
X237420363Y-139299580D02*
X237467982Y-139347200D01*
X237467982Y-139347200D02*
X237610839Y-139394819D01*
X237610839Y-139394819D02*
X237706077Y-139394819D01*
X237706077Y-139394819D02*
X237848934Y-139347200D01*
X237848934Y-139347200D02*
X237944172Y-139251961D01*
X237944172Y-139251961D02*
X237991791Y-139156723D01*
X237991791Y-139156723D02*
X238039410Y-138966247D01*
X238039410Y-138966247D02*
X238039410Y-138823390D01*
X238039410Y-138823390D02*
X237991791Y-138632914D01*
X237991791Y-138632914D02*
X237944172Y-138537676D01*
X237944172Y-138537676D02*
X237848934Y-138442438D01*
X237848934Y-138442438D02*
X237706077Y-138394819D01*
X237706077Y-138394819D02*
X237610839Y-138394819D01*
X237610839Y-138394819D02*
X237467982Y-138442438D01*
X237467982Y-138442438D02*
X237420363Y-138490057D01*
X236706077Y-138394819D02*
X236706077Y-139109104D01*
X236706077Y-139109104D02*
X236753696Y-139251961D01*
X236753696Y-139251961D02*
X236848934Y-139347200D01*
X236848934Y-139347200D02*
X236991791Y-139394819D01*
X236991791Y-139394819D02*
X237087029Y-139394819D01*
X235753696Y-139394819D02*
X236229886Y-139394819D01*
X236229886Y-139394819D02*
X236229886Y-138394819D01*
X234848934Y-139299580D02*
X234896553Y-139347200D01*
X234896553Y-139347200D02*
X235039410Y-139394819D01*
X235039410Y-139394819D02*
X235134648Y-139394819D01*
X235134648Y-139394819D02*
X235277505Y-139347200D01*
X235277505Y-139347200D02*
X235372743Y-139251961D01*
X235372743Y-139251961D02*
X235420362Y-139156723D01*
X235420362Y-139156723D02*
X235467981Y-138966247D01*
X235467981Y-138966247D02*
X235467981Y-138823390D01*
X235467981Y-138823390D02*
X235420362Y-138632914D01*
X235420362Y-138632914D02*
X235372743Y-138537676D01*
X235372743Y-138537676D02*
X235277505Y-138442438D01*
X235277505Y-138442438D02*
X235134648Y-138394819D01*
X235134648Y-138394819D02*
X235039410Y-138394819D01*
X235039410Y-138394819D02*
X234896553Y-138442438D01*
X234896553Y-138442438D02*
X234848934Y-138490057D01*
X234134648Y-138394819D02*
X234134648Y-139109104D01*
X234134648Y-139109104D02*
X234182267Y-139251961D01*
X234182267Y-139251961D02*
X234277505Y-139347200D01*
X234277505Y-139347200D02*
X234420362Y-139394819D01*
X234420362Y-139394819D02*
X234515600Y-139394819D01*
X233182267Y-139394819D02*
X233658457Y-139394819D01*
X233658457Y-139394819D02*
X233658457Y-138394819D01*
X232277505Y-139299580D02*
X232325124Y-139347200D01*
X232325124Y-139347200D02*
X232467981Y-139394819D01*
X232467981Y-139394819D02*
X232563219Y-139394819D01*
X232563219Y-139394819D02*
X232706076Y-139347200D01*
X232706076Y-139347200D02*
X232801314Y-139251961D01*
X232801314Y-139251961D02*
X232848933Y-139156723D01*
X232848933Y-139156723D02*
X232896552Y-138966247D01*
X232896552Y-138966247D02*
X232896552Y-138823390D01*
X232896552Y-138823390D02*
X232848933Y-138632914D01*
X232848933Y-138632914D02*
X232801314Y-138537676D01*
X232801314Y-138537676D02*
X232706076Y-138442438D01*
X232706076Y-138442438D02*
X232563219Y-138394819D01*
X232563219Y-138394819D02*
X232467981Y-138394819D01*
X232467981Y-138394819D02*
X232325124Y-138442438D01*
X232325124Y-138442438D02*
X232277505Y-138490057D01*
X231563219Y-138394819D02*
X231563219Y-139109104D01*
X231563219Y-139109104D02*
X231610838Y-139251961D01*
X231610838Y-139251961D02*
X231706076Y-139347200D01*
X231706076Y-139347200D02*
X231848933Y-139394819D01*
X231848933Y-139394819D02*
X231944171Y-139394819D01*
X230610838Y-139394819D02*
X231087028Y-139394819D01*
X231087028Y-139394819D02*
X231087028Y-138394819D01*
X229706076Y-139299580D02*
X229753695Y-139347200D01*
X229753695Y-139347200D02*
X229896552Y-139394819D01*
X229896552Y-139394819D02*
X229991790Y-139394819D01*
X229991790Y-139394819D02*
X230134647Y-139347200D01*
X230134647Y-139347200D02*
X230229885Y-139251961D01*
X230229885Y-139251961D02*
X230277504Y-139156723D01*
X230277504Y-139156723D02*
X230325123Y-138966247D01*
X230325123Y-138966247D02*
X230325123Y-138823390D01*
X230325123Y-138823390D02*
X230277504Y-138632914D01*
X230277504Y-138632914D02*
X230229885Y-138537676D01*
X230229885Y-138537676D02*
X230134647Y-138442438D01*
X230134647Y-138442438D02*
X229991790Y-138394819D01*
X229991790Y-138394819D02*
X229896552Y-138394819D01*
X229896552Y-138394819D02*
X229753695Y-138442438D01*
X229753695Y-138442438D02*
X229706076Y-138490057D01*
D11*
X172600000Y-67820000D02*
X122275000Y-67820000D01*
D10*
X75385000Y-70635000D02*
X74115000Y-70000000D01*
X75385000Y-69365000D01*
X75385000Y-70635000D01*
G36*
X75385000Y-70635000D02*
G01*
X74115000Y-70000000D01*
X75385000Y-69365000D01*
X75385000Y-70635000D01*
G37*
D11*
X77825000Y-70360000D02*
G75*
G02*
X77825000Y-74170000I0J-1905000D01*
G01*
X82825000Y-60835000D02*
X82825000Y-53215000D01*
X76555000Y-43055000D02*
G75*
G02*
X72745000Y-43055000I-1905000J0D01*
G01*
X194825000Y-64412500D02*
G75*
G02*
X191015000Y-64412500I-1905000J0D01*
G01*
X173075000Y-81790000D02*
X173075000Y-71630000D01*
X187840000Y-81717500D02*
X198000000Y-81717500D01*
X213080000Y-81790000D02*
X223240000Y-81790000D01*
X69570000Y-63375000D02*
X69570000Y-43055000D01*
X187840000Y-81717500D02*
X187840000Y-64412500D01*
X174980000Y-81552500D02*
X185140000Y-81552500D01*
X122275000Y-56390000D02*
X122275000Y-50040000D01*
X122275000Y-74970000D02*
G75*
G02*
X122275000Y-78780000I0J-1905000D01*
G01*
X181965000Y-64247500D02*
G75*
G02*
X178155000Y-64247500I-1905000J0D01*
G01*
X187045000Y-60200000D02*
X187045000Y-57025000D01*
X174980000Y-81552500D02*
X174980000Y-64247500D01*
X82825000Y-43055000D02*
X118545000Y-43055000D01*
X213080000Y-61470000D02*
X216255000Y-61470000D01*
X220065000Y-61470000D02*
X223240000Y-61470000D01*
X207365000Y-61470000D02*
G75*
G02*
X203555000Y-61470000I-1905000J0D01*
G01*
X213080000Y-81790000D02*
X213080000Y-61470000D01*
D12*
X178155000Y-53088000D02*
X185775000Y-53088000D01*
X185775000Y-58168000D01*
X178155000Y-58168000D01*
X178155000Y-53088000D01*
D11*
X82905000Y-70360000D02*
G75*
G02*
X82905000Y-74170000I0J-1905000D01*
G01*
X122275000Y-81955000D02*
X122275000Y-78780000D01*
X77825000Y-81790000D02*
X77825000Y-74170000D01*
X200380000Y-81790000D02*
X200380000Y-61470000D01*
X56870000Y-43055000D02*
X60045000Y-43055000D01*
X198000000Y-64412500D02*
X198000000Y-81717500D01*
X82825000Y-49405000D02*
G75*
G02*
X82825000Y-53215000I0J-1905000D01*
G01*
X69570000Y-63375000D02*
X79730000Y-63375000D01*
D10*
X74115000Y-70635000D02*
X74115000Y-69365000D01*
D11*
X207365000Y-61470000D02*
X210540000Y-61470000D01*
X220065000Y-61470000D02*
G75*
G02*
X216255000Y-61470000I-1905000J0D01*
G01*
X200380000Y-61470000D02*
X203555000Y-61470000D01*
X76555000Y-43055000D02*
X79730000Y-43055000D01*
X210540000Y-61470000D02*
X210540000Y-81790000D01*
X118625000Y-81790000D02*
X77825000Y-81790000D01*
X152755000Y-71630000D02*
X173075000Y-71630000D01*
X147835000Y-81955000D02*
X122275000Y-81955000D01*
X56870000Y-63375000D02*
X56870000Y-43055000D01*
X152755000Y-74805000D02*
G75*
G02*
X152755000Y-78615000I0J-1905000D01*
G01*
X82905000Y-81790000D02*
X82905000Y-74170000D01*
X200380000Y-81790000D02*
X210540000Y-81790000D01*
X77825000Y-64010000D02*
X118625000Y-64010000D01*
X63855000Y-43055000D02*
X67030000Y-43055000D01*
X172600000Y-67820000D02*
X172600000Y-50040000D01*
X147835000Y-81955000D02*
X147835000Y-71795000D01*
X187045000Y-50040000D02*
X204350000Y-50040000D01*
X122275000Y-50040000D02*
X172600000Y-50040000D01*
X174980000Y-64247500D02*
X178155000Y-64247500D01*
X67030000Y-43055000D02*
X67030000Y-63375000D01*
X204350000Y-60200000D02*
X187045000Y-60200000D01*
X187045000Y-53215000D02*
G75*
G02*
X187045000Y-57025000I0J-1905000D01*
G01*
D10*
X76655000Y-70000000D02*
X72845000Y-70000000D01*
D11*
X82905000Y-70360000D02*
X82905000Y-64010000D01*
X204350000Y-60200000D02*
X204350000Y-50040000D01*
X79730000Y-43055000D02*
X79730000Y-63375000D01*
X181965000Y-64247500D02*
X185140000Y-64247500D01*
X118625000Y-81790000D02*
X118625000Y-64010000D01*
X56870000Y-63375000D02*
X67030000Y-63375000D01*
X77825000Y-70360000D02*
X77825000Y-64010000D01*
X122275000Y-74970000D02*
X122275000Y-71795000D01*
X69570000Y-43055000D02*
X72745000Y-43055000D01*
X152755000Y-74805000D02*
X152755000Y-71630000D01*
X152755000Y-81790000D02*
X152755000Y-78615000D01*
X185140000Y-64247500D02*
X185140000Y-81552500D01*
X118545000Y-60835000D02*
X118545000Y-43055000D01*
X194825000Y-64412500D02*
X198000000Y-64412500D01*
X63855000Y-43055000D02*
G75*
G02*
X60045000Y-43055000I-1905000J0D01*
G01*
X173075000Y-81790000D02*
X152755000Y-81790000D01*
X118545000Y-60835000D02*
X82825000Y-60835000D01*
X82825000Y-49405000D02*
X82825000Y-43055000D01*
X187840000Y-64412500D02*
X191015000Y-64412500D01*
X122275000Y-71795000D02*
X147835000Y-71795000D01*
X122275000Y-56390000D02*
G75*
G02*
X122275000Y-60200000I0J-1905000D01*
G01*
X187045000Y-53215000D02*
X187045000Y-50040000D01*
X122275000Y-67820000D02*
X122275000Y-60200000D01*
X223240000Y-61470000D02*
X223240000Y-81790000D01*
D12*
X158415381Y-41396219D02*
X158415381Y-40396219D01*
X158415381Y-40396219D02*
X158082048Y-41110504D01*
X158082048Y-41110504D02*
X157748715Y-40396219D01*
X157748715Y-40396219D02*
X157748715Y-41396219D01*
X157272524Y-41396219D02*
X157272524Y-40729552D01*
X157272524Y-40396219D02*
X157320143Y-40443838D01*
X157320143Y-40443838D02*
X157272524Y-40491457D01*
X157272524Y-40491457D02*
X157224905Y-40443838D01*
X157224905Y-40443838D02*
X157272524Y-40396219D01*
X157272524Y-40396219D02*
X157272524Y-40491457D01*
X156367763Y-41348600D02*
X156463001Y-41396219D01*
X156463001Y-41396219D02*
X156653477Y-41396219D01*
X156653477Y-41396219D02*
X156748715Y-41348600D01*
X156748715Y-41348600D02*
X156796334Y-41300980D01*
X156796334Y-41300980D02*
X156843953Y-41205742D01*
X156843953Y-41205742D02*
X156843953Y-40920028D01*
X156843953Y-40920028D02*
X156796334Y-40824790D01*
X156796334Y-40824790D02*
X156748715Y-40777171D01*
X156748715Y-40777171D02*
X156653477Y-40729552D01*
X156653477Y-40729552D02*
X156463001Y-40729552D01*
X156463001Y-40729552D02*
X156367763Y-40777171D01*
X155939191Y-41396219D02*
X155939191Y-40729552D01*
X155939191Y-40920028D02*
X155891572Y-40824790D01*
X155891572Y-40824790D02*
X155843953Y-40777171D01*
X155843953Y-40777171D02*
X155748715Y-40729552D01*
X155748715Y-40729552D02*
X155653477Y-40729552D01*
X155177286Y-41396219D02*
X155272524Y-41348600D01*
X155272524Y-41348600D02*
X155320143Y-41300980D01*
X155320143Y-41300980D02*
X155367762Y-41205742D01*
X155367762Y-41205742D02*
X155367762Y-40920028D01*
X155367762Y-40920028D02*
X155320143Y-40824790D01*
X155320143Y-40824790D02*
X155272524Y-40777171D01*
X155272524Y-40777171D02*
X155177286Y-40729552D01*
X155177286Y-40729552D02*
X155034429Y-40729552D01*
X155034429Y-40729552D02*
X154939191Y-40777171D01*
X154939191Y-40777171D02*
X154891572Y-40824790D01*
X154891572Y-40824790D02*
X154843953Y-40920028D01*
X154843953Y-40920028D02*
X154843953Y-41205742D01*
X154843953Y-41205742D02*
X154891572Y-41300980D01*
X154891572Y-41300980D02*
X154939191Y-41348600D01*
X154939191Y-41348600D02*
X155034429Y-41396219D01*
X155034429Y-41396219D02*
X155177286Y-41396219D01*
X154415381Y-41396219D02*
X154415381Y-40396219D01*
X154415381Y-40396219D02*
X154082048Y-41110504D01*
X154082048Y-41110504D02*
X153748715Y-40396219D01*
X153748715Y-40396219D02*
X153748715Y-41396219D01*
X153272524Y-41396219D02*
X153272524Y-40729552D01*
X153272524Y-40396219D02*
X153320143Y-40443838D01*
X153320143Y-40443838D02*
X153272524Y-40491457D01*
X153272524Y-40491457D02*
X153224905Y-40443838D01*
X153224905Y-40443838D02*
X153272524Y-40396219D01*
X153272524Y-40396219D02*
X153272524Y-40491457D01*
X152367763Y-41348600D02*
X152463001Y-41396219D01*
X152463001Y-41396219D02*
X152653477Y-41396219D01*
X152653477Y-41396219D02*
X152748715Y-41348600D01*
X152748715Y-41348600D02*
X152796334Y-41300980D01*
X152796334Y-41300980D02*
X152843953Y-41205742D01*
X152843953Y-41205742D02*
X152843953Y-40920028D01*
X152843953Y-40920028D02*
X152796334Y-40824790D01*
X152796334Y-40824790D02*
X152748715Y-40777171D01*
X152748715Y-40777171D02*
X152653477Y-40729552D01*
X152653477Y-40729552D02*
X152463001Y-40729552D01*
X152463001Y-40729552D02*
X152367763Y-40777171D01*
X151939191Y-41396219D02*
X151939191Y-40729552D01*
X151939191Y-40920028D02*
X151891572Y-40824790D01*
X151891572Y-40824790D02*
X151843953Y-40777171D01*
X151843953Y-40777171D02*
X151748715Y-40729552D01*
X151748715Y-40729552D02*
X151653477Y-40729552D01*
X151177286Y-41396219D02*
X151272524Y-41348600D01*
X151272524Y-41348600D02*
X151320143Y-41300980D01*
X151320143Y-41300980D02*
X151367762Y-41205742D01*
X151367762Y-41205742D02*
X151367762Y-40920028D01*
X151367762Y-40920028D02*
X151320143Y-40824790D01*
X151320143Y-40824790D02*
X151272524Y-40777171D01*
X151272524Y-40777171D02*
X151177286Y-40729552D01*
X151177286Y-40729552D02*
X151034429Y-40729552D01*
X151034429Y-40729552D02*
X150939191Y-40777171D01*
X150939191Y-40777171D02*
X150891572Y-40824790D01*
X150891572Y-40824790D02*
X150843953Y-40920028D01*
X150843953Y-40920028D02*
X150843953Y-41205742D01*
X150843953Y-41205742D02*
X150891572Y-41300980D01*
X150891572Y-41300980D02*
X150939191Y-41348600D01*
X150939191Y-41348600D02*
X151034429Y-41396219D01*
X151034429Y-41396219D02*
X151177286Y-41396219D01*
X149748714Y-40729552D02*
X149510619Y-41396219D01*
X149510619Y-41396219D02*
X149272524Y-40729552D01*
X148367762Y-41396219D02*
X148939190Y-41396219D01*
X148653476Y-41396219D02*
X148653476Y-40396219D01*
X148653476Y-40396219D02*
X148748714Y-40539076D01*
X148748714Y-40539076D02*
X148843952Y-40634314D01*
X148843952Y-40634314D02*
X148939190Y-40681933D01*
X147177285Y-41015266D02*
X146415381Y-41015266D01*
X144891571Y-40396219D02*
X144891571Y-41110504D01*
X144891571Y-41110504D02*
X144939190Y-41253361D01*
X144939190Y-41253361D02*
X145034428Y-41348600D01*
X145034428Y-41348600D02*
X145177285Y-41396219D01*
X145177285Y-41396219D02*
X145272523Y-41396219D01*
X143986809Y-41396219D02*
X143986809Y-40872409D01*
X143986809Y-40872409D02*
X144034428Y-40777171D01*
X144034428Y-40777171D02*
X144129666Y-40729552D01*
X144129666Y-40729552D02*
X144320142Y-40729552D01*
X144320142Y-40729552D02*
X144415380Y-40777171D01*
X143986809Y-41348600D02*
X144082047Y-41396219D01*
X144082047Y-41396219D02*
X144320142Y-41396219D01*
X144320142Y-41396219D02*
X144415380Y-41348600D01*
X144415380Y-41348600D02*
X144462999Y-41253361D01*
X144462999Y-41253361D02*
X144462999Y-41158123D01*
X144462999Y-41158123D02*
X144415380Y-41062885D01*
X144415380Y-41062885D02*
X144320142Y-41015266D01*
X144320142Y-41015266D02*
X144082047Y-41015266D01*
X144082047Y-41015266D02*
X143986809Y-40967647D01*
X143510618Y-40729552D02*
X143510618Y-41396219D01*
X143510618Y-40824790D02*
X143462999Y-40777171D01*
X143462999Y-40777171D02*
X143367761Y-40729552D01*
X143367761Y-40729552D02*
X143224904Y-40729552D01*
X143224904Y-40729552D02*
X143129666Y-40777171D01*
X143129666Y-40777171D02*
X143082047Y-40872409D01*
X143082047Y-40872409D02*
X143082047Y-41396219D01*
X141891570Y-40491457D02*
X141843951Y-40443838D01*
X141843951Y-40443838D02*
X141748713Y-40396219D01*
X141748713Y-40396219D02*
X141510618Y-40396219D01*
X141510618Y-40396219D02*
X141415380Y-40443838D01*
X141415380Y-40443838D02*
X141367761Y-40491457D01*
X141367761Y-40491457D02*
X141320142Y-40586695D01*
X141320142Y-40586695D02*
X141320142Y-40681933D01*
X141320142Y-40681933D02*
X141367761Y-40824790D01*
X141367761Y-40824790D02*
X141939189Y-41396219D01*
X141939189Y-41396219D02*
X141320142Y-41396219D01*
X140701094Y-40396219D02*
X140605856Y-40396219D01*
X140605856Y-40396219D02*
X140510618Y-40443838D01*
X140510618Y-40443838D02*
X140462999Y-40491457D01*
X140462999Y-40491457D02*
X140415380Y-40586695D01*
X140415380Y-40586695D02*
X140367761Y-40777171D01*
X140367761Y-40777171D02*
X140367761Y-41015266D01*
X140367761Y-41015266D02*
X140415380Y-41205742D01*
X140415380Y-41205742D02*
X140462999Y-41300980D01*
X140462999Y-41300980D02*
X140510618Y-41348600D01*
X140510618Y-41348600D02*
X140605856Y-41396219D01*
X140605856Y-41396219D02*
X140701094Y-41396219D01*
X140701094Y-41396219D02*
X140796332Y-41348600D01*
X140796332Y-41348600D02*
X140843951Y-41300980D01*
X140843951Y-41300980D02*
X140891570Y-41205742D01*
X140891570Y-41205742D02*
X140939189Y-41015266D01*
X140939189Y-41015266D02*
X140939189Y-40777171D01*
X140939189Y-40777171D02*
X140891570Y-40586695D01*
X140891570Y-40586695D02*
X140843951Y-40491457D01*
X140843951Y-40491457D02*
X140796332Y-40443838D01*
X140796332Y-40443838D02*
X140701094Y-40396219D01*
X139986808Y-40491457D02*
X139939189Y-40443838D01*
X139939189Y-40443838D02*
X139843951Y-40396219D01*
X139843951Y-40396219D02*
X139605856Y-40396219D01*
X139605856Y-40396219D02*
X139510618Y-40443838D01*
X139510618Y-40443838D02*
X139462999Y-40491457D01*
X139462999Y-40491457D02*
X139415380Y-40586695D01*
X139415380Y-40586695D02*
X139415380Y-40681933D01*
X139415380Y-40681933D02*
X139462999Y-40824790D01*
X139462999Y-40824790D02*
X140034427Y-41396219D01*
X140034427Y-41396219D02*
X139415380Y-41396219D01*
X138510618Y-40396219D02*
X138986808Y-40396219D01*
X138986808Y-40396219D02*
X139034427Y-40872409D01*
X139034427Y-40872409D02*
X138986808Y-40824790D01*
X138986808Y-40824790D02*
X138891570Y-40777171D01*
X138891570Y-40777171D02*
X138653475Y-40777171D01*
X138653475Y-40777171D02*
X138558237Y-40824790D01*
X138558237Y-40824790D02*
X138510618Y-40872409D01*
X138510618Y-40872409D02*
X138462999Y-40967647D01*
X138462999Y-40967647D02*
X138462999Y-41205742D01*
X138462999Y-41205742D02*
X138510618Y-41300980D01*
X138510618Y-41300980D02*
X138558237Y-41348600D01*
X138558237Y-41348600D02*
X138653475Y-41396219D01*
X138653475Y-41396219D02*
X138891570Y-41396219D01*
X138891570Y-41396219D02*
X138986808Y-41348600D01*
X138986808Y-41348600D02*
X139034427Y-41300980D01*
X161320143Y-42634552D02*
X161320143Y-43444076D01*
X161320143Y-43444076D02*
X161367762Y-43539314D01*
X161367762Y-43539314D02*
X161415381Y-43586933D01*
X161415381Y-43586933D02*
X161510619Y-43634552D01*
X161510619Y-43634552D02*
X161653476Y-43634552D01*
X161653476Y-43634552D02*
X161748714Y-43586933D01*
X161320143Y-43253600D02*
X161415381Y-43301219D01*
X161415381Y-43301219D02*
X161605857Y-43301219D01*
X161605857Y-43301219D02*
X161701095Y-43253600D01*
X161701095Y-43253600D02*
X161748714Y-43205980D01*
X161748714Y-43205980D02*
X161796333Y-43110742D01*
X161796333Y-43110742D02*
X161796333Y-42825028D01*
X161796333Y-42825028D02*
X161748714Y-42729790D01*
X161748714Y-42729790D02*
X161701095Y-42682171D01*
X161701095Y-42682171D02*
X161605857Y-42634552D01*
X161605857Y-42634552D02*
X161415381Y-42634552D01*
X161415381Y-42634552D02*
X161320143Y-42682171D01*
X160843952Y-43301219D02*
X160843952Y-42634552D01*
X160843952Y-42301219D02*
X160891571Y-42348838D01*
X160891571Y-42348838D02*
X160843952Y-42396457D01*
X160843952Y-42396457D02*
X160796333Y-42348838D01*
X160796333Y-42348838D02*
X160843952Y-42301219D01*
X160843952Y-42301219D02*
X160843952Y-42396457D01*
X160510619Y-42634552D02*
X160129667Y-42634552D01*
X160367762Y-42301219D02*
X160367762Y-43158361D01*
X160367762Y-43158361D02*
X160320143Y-43253600D01*
X160320143Y-43253600D02*
X160224905Y-43301219D01*
X160224905Y-43301219D02*
X160129667Y-43301219D01*
X159796333Y-43301219D02*
X159796333Y-42301219D01*
X159367762Y-43301219D02*
X159367762Y-42777409D01*
X159367762Y-42777409D02*
X159415381Y-42682171D01*
X159415381Y-42682171D02*
X159510619Y-42634552D01*
X159510619Y-42634552D02*
X159653476Y-42634552D01*
X159653476Y-42634552D02*
X159748714Y-42682171D01*
X159748714Y-42682171D02*
X159796333Y-42729790D01*
X158463000Y-42634552D02*
X158463000Y-43301219D01*
X158891571Y-42634552D02*
X158891571Y-43158361D01*
X158891571Y-43158361D02*
X158843952Y-43253600D01*
X158843952Y-43253600D02*
X158748714Y-43301219D01*
X158748714Y-43301219D02*
X158605857Y-43301219D01*
X158605857Y-43301219D02*
X158510619Y-43253600D01*
X158510619Y-43253600D02*
X158463000Y-43205980D01*
X157986809Y-43301219D02*
X157986809Y-42301219D01*
X157986809Y-42682171D02*
X157891571Y-42634552D01*
X157891571Y-42634552D02*
X157701095Y-42634552D01*
X157701095Y-42634552D02*
X157605857Y-42682171D01*
X157605857Y-42682171D02*
X157558238Y-42729790D01*
X157558238Y-42729790D02*
X157510619Y-42825028D01*
X157510619Y-42825028D02*
X157510619Y-43110742D01*
X157510619Y-43110742D02*
X157558238Y-43205980D01*
X157558238Y-43205980D02*
X157605857Y-43253600D01*
X157605857Y-43253600D02*
X157701095Y-43301219D01*
X157701095Y-43301219D02*
X157891571Y-43301219D01*
X157891571Y-43301219D02*
X157986809Y-43253600D01*
X157082047Y-43205980D02*
X157034428Y-43253600D01*
X157034428Y-43253600D02*
X157082047Y-43301219D01*
X157082047Y-43301219D02*
X157129666Y-43253600D01*
X157129666Y-43253600D02*
X157082047Y-43205980D01*
X157082047Y-43205980D02*
X157082047Y-43301219D01*
X156177286Y-43253600D02*
X156272524Y-43301219D01*
X156272524Y-43301219D02*
X156463000Y-43301219D01*
X156463000Y-43301219D02*
X156558238Y-43253600D01*
X156558238Y-43253600D02*
X156605857Y-43205980D01*
X156605857Y-43205980D02*
X156653476Y-43110742D01*
X156653476Y-43110742D02*
X156653476Y-42825028D01*
X156653476Y-42825028D02*
X156605857Y-42729790D01*
X156605857Y-42729790D02*
X156558238Y-42682171D01*
X156558238Y-42682171D02*
X156463000Y-42634552D01*
X156463000Y-42634552D02*
X156272524Y-42634552D01*
X156272524Y-42634552D02*
X156177286Y-42682171D01*
X155605857Y-43301219D02*
X155701095Y-43253600D01*
X155701095Y-43253600D02*
X155748714Y-43205980D01*
X155748714Y-43205980D02*
X155796333Y-43110742D01*
X155796333Y-43110742D02*
X155796333Y-42825028D01*
X155796333Y-42825028D02*
X155748714Y-42729790D01*
X155748714Y-42729790D02*
X155701095Y-42682171D01*
X155701095Y-42682171D02*
X155605857Y-42634552D01*
X155605857Y-42634552D02*
X155463000Y-42634552D01*
X155463000Y-42634552D02*
X155367762Y-42682171D01*
X155367762Y-42682171D02*
X155320143Y-42729790D01*
X155320143Y-42729790D02*
X155272524Y-42825028D01*
X155272524Y-42825028D02*
X155272524Y-43110742D01*
X155272524Y-43110742D02*
X155320143Y-43205980D01*
X155320143Y-43205980D02*
X155367762Y-43253600D01*
X155367762Y-43253600D02*
X155463000Y-43301219D01*
X155463000Y-43301219D02*
X155605857Y-43301219D01*
X154843952Y-43301219D02*
X154843952Y-42634552D01*
X154843952Y-42729790D02*
X154796333Y-42682171D01*
X154796333Y-42682171D02*
X154701095Y-42634552D01*
X154701095Y-42634552D02*
X154558238Y-42634552D01*
X154558238Y-42634552D02*
X154463000Y-42682171D01*
X154463000Y-42682171D02*
X154415381Y-42777409D01*
X154415381Y-42777409D02*
X154415381Y-43301219D01*
X154415381Y-42777409D02*
X154367762Y-42682171D01*
X154367762Y-42682171D02*
X154272524Y-42634552D01*
X154272524Y-42634552D02*
X154129667Y-42634552D01*
X154129667Y-42634552D02*
X154034428Y-42682171D01*
X154034428Y-42682171D02*
X153986809Y-42777409D01*
X153986809Y-42777409D02*
X153986809Y-43301219D01*
X152796334Y-42253600D02*
X153653476Y-43539314D01*
X152510619Y-43253600D02*
X152415381Y-43301219D01*
X152415381Y-43301219D02*
X152224905Y-43301219D01*
X152224905Y-43301219D02*
X152129667Y-43253600D01*
X152129667Y-43253600D02*
X152082048Y-43158361D01*
X152082048Y-43158361D02*
X152082048Y-43110742D01*
X152082048Y-43110742D02*
X152129667Y-43015504D01*
X152129667Y-43015504D02*
X152224905Y-42967885D01*
X152224905Y-42967885D02*
X152367762Y-42967885D01*
X152367762Y-42967885D02*
X152463000Y-42920266D01*
X152463000Y-42920266D02*
X152510619Y-42825028D01*
X152510619Y-42825028D02*
X152510619Y-42777409D01*
X152510619Y-42777409D02*
X152463000Y-42682171D01*
X152463000Y-42682171D02*
X152367762Y-42634552D01*
X152367762Y-42634552D02*
X152224905Y-42634552D01*
X152224905Y-42634552D02*
X152129667Y-42682171D01*
X151653476Y-43301219D02*
X151653476Y-42634552D01*
X151653476Y-42729790D02*
X151605857Y-42682171D01*
X151605857Y-42682171D02*
X151510619Y-42634552D01*
X151510619Y-42634552D02*
X151367762Y-42634552D01*
X151367762Y-42634552D02*
X151272524Y-42682171D01*
X151272524Y-42682171D02*
X151224905Y-42777409D01*
X151224905Y-42777409D02*
X151224905Y-43301219D01*
X151224905Y-42777409D02*
X151177286Y-42682171D01*
X151177286Y-42682171D02*
X151082048Y-42634552D01*
X151082048Y-42634552D02*
X150939191Y-42634552D01*
X150939191Y-42634552D02*
X150843952Y-42682171D01*
X150843952Y-42682171D02*
X150796333Y-42777409D01*
X150796333Y-42777409D02*
X150796333Y-43301219D01*
X149891572Y-43301219D02*
X149891572Y-42777409D01*
X149891572Y-42777409D02*
X149939191Y-42682171D01*
X149939191Y-42682171D02*
X150034429Y-42634552D01*
X150034429Y-42634552D02*
X150224905Y-42634552D01*
X150224905Y-42634552D02*
X150320143Y-42682171D01*
X149891572Y-43253600D02*
X149986810Y-43301219D01*
X149986810Y-43301219D02*
X150224905Y-43301219D01*
X150224905Y-43301219D02*
X150320143Y-43253600D01*
X150320143Y-43253600D02*
X150367762Y-43158361D01*
X150367762Y-43158361D02*
X150367762Y-43063123D01*
X150367762Y-43063123D02*
X150320143Y-42967885D01*
X150320143Y-42967885D02*
X150224905Y-42920266D01*
X150224905Y-42920266D02*
X149986810Y-42920266D01*
X149986810Y-42920266D02*
X149891572Y-42872647D01*
X149272524Y-43301219D02*
X149367762Y-43253600D01*
X149367762Y-43253600D02*
X149415381Y-43158361D01*
X149415381Y-43158361D02*
X149415381Y-42301219D01*
X148463000Y-43301219D02*
X148463000Y-42301219D01*
X148463000Y-43253600D02*
X148558238Y-43301219D01*
X148558238Y-43301219D02*
X148748714Y-43301219D01*
X148748714Y-43301219D02*
X148843952Y-43253600D01*
X148843952Y-43253600D02*
X148891571Y-43205980D01*
X148891571Y-43205980D02*
X148939190Y-43110742D01*
X148939190Y-43110742D02*
X148939190Y-42825028D01*
X148939190Y-42825028D02*
X148891571Y-42729790D01*
X148891571Y-42729790D02*
X148843952Y-42682171D01*
X148843952Y-42682171D02*
X148748714Y-42634552D01*
X148748714Y-42634552D02*
X148558238Y-42634552D01*
X148558238Y-42634552D02*
X148463000Y-42682171D01*
X147986809Y-43301219D02*
X147986809Y-42634552D01*
X147986809Y-42825028D02*
X147939190Y-42729790D01*
X147939190Y-42729790D02*
X147891571Y-42682171D01*
X147891571Y-42682171D02*
X147796333Y-42634552D01*
X147796333Y-42634552D02*
X147701095Y-42634552D01*
X146939190Y-43301219D02*
X146939190Y-42777409D01*
X146939190Y-42777409D02*
X146986809Y-42682171D01*
X146986809Y-42682171D02*
X147082047Y-42634552D01*
X147082047Y-42634552D02*
X147272523Y-42634552D01*
X147272523Y-42634552D02*
X147367761Y-42682171D01*
X146939190Y-43253600D02*
X147034428Y-43301219D01*
X147034428Y-43301219D02*
X147272523Y-43301219D01*
X147272523Y-43301219D02*
X147367761Y-43253600D01*
X147367761Y-43253600D02*
X147415380Y-43158361D01*
X147415380Y-43158361D02*
X147415380Y-43063123D01*
X147415380Y-43063123D02*
X147367761Y-42967885D01*
X147367761Y-42967885D02*
X147272523Y-42920266D01*
X147272523Y-42920266D02*
X147034428Y-42920266D01*
X147034428Y-42920266D02*
X146939190Y-42872647D01*
X146034428Y-42634552D02*
X146034428Y-43444076D01*
X146034428Y-43444076D02*
X146082047Y-43539314D01*
X146082047Y-43539314D02*
X146129666Y-43586933D01*
X146129666Y-43586933D02*
X146224904Y-43634552D01*
X146224904Y-43634552D02*
X146367761Y-43634552D01*
X146367761Y-43634552D02*
X146462999Y-43586933D01*
X146034428Y-43253600D02*
X146129666Y-43301219D01*
X146129666Y-43301219D02*
X146320142Y-43301219D01*
X146320142Y-43301219D02*
X146415380Y-43253600D01*
X146415380Y-43253600D02*
X146462999Y-43205980D01*
X146462999Y-43205980D02*
X146510618Y-43110742D01*
X146510618Y-43110742D02*
X146510618Y-42825028D01*
X146510618Y-42825028D02*
X146462999Y-42729790D01*
X146462999Y-42729790D02*
X146415380Y-42682171D01*
X146415380Y-42682171D02*
X146320142Y-42634552D01*
X146320142Y-42634552D02*
X146129666Y-42634552D01*
X146129666Y-42634552D02*
X146034428Y-42682171D01*
X145415380Y-43301219D02*
X145510618Y-43253600D01*
X145510618Y-43253600D02*
X145558237Y-43205980D01*
X145558237Y-43205980D02*
X145605856Y-43110742D01*
X145605856Y-43110742D02*
X145605856Y-42825028D01*
X145605856Y-42825028D02*
X145558237Y-42729790D01*
X145558237Y-42729790D02*
X145510618Y-42682171D01*
X145510618Y-42682171D02*
X145415380Y-42634552D01*
X145415380Y-42634552D02*
X145272523Y-42634552D01*
X145272523Y-42634552D02*
X145177285Y-42682171D01*
X145177285Y-42682171D02*
X145129666Y-42729790D01*
X145129666Y-42729790D02*
X145082047Y-42825028D01*
X145082047Y-42825028D02*
X145082047Y-43110742D01*
X145082047Y-43110742D02*
X145129666Y-43205980D01*
X145129666Y-43205980D02*
X145177285Y-43253600D01*
X145177285Y-43253600D02*
X145272523Y-43301219D01*
X145272523Y-43301219D02*
X145415380Y-43301219D01*
X144653475Y-42634552D02*
X144653475Y-43301219D01*
X144653475Y-42729790D02*
X144605856Y-42682171D01*
X144605856Y-42682171D02*
X144510618Y-42634552D01*
X144510618Y-42634552D02*
X144367761Y-42634552D01*
X144367761Y-42634552D02*
X144272523Y-42682171D01*
X144272523Y-42682171D02*
X144224904Y-42777409D01*
X144224904Y-42777409D02*
X144224904Y-43301219D01*
X143034428Y-42253600D02*
X143891570Y-43539314D01*
X142701094Y-43301219D02*
X142701094Y-42301219D01*
X142701094Y-42301219D02*
X142367761Y-43015504D01*
X142367761Y-43015504D02*
X142034428Y-42301219D01*
X142034428Y-42301219D02*
X142034428Y-43301219D01*
X141558237Y-43301219D02*
X141558237Y-42634552D01*
X141558237Y-42301219D02*
X141605856Y-42348838D01*
X141605856Y-42348838D02*
X141558237Y-42396457D01*
X141558237Y-42396457D02*
X141510618Y-42348838D01*
X141510618Y-42348838D02*
X141558237Y-42301219D01*
X141558237Y-42301219D02*
X141558237Y-42396457D01*
X140653476Y-43253600D02*
X140748714Y-43301219D01*
X140748714Y-43301219D02*
X140939190Y-43301219D01*
X140939190Y-43301219D02*
X141034428Y-43253600D01*
X141034428Y-43253600D02*
X141082047Y-43205980D01*
X141082047Y-43205980D02*
X141129666Y-43110742D01*
X141129666Y-43110742D02*
X141129666Y-42825028D01*
X141129666Y-42825028D02*
X141082047Y-42729790D01*
X141082047Y-42729790D02*
X141034428Y-42682171D01*
X141034428Y-42682171D02*
X140939190Y-42634552D01*
X140939190Y-42634552D02*
X140748714Y-42634552D01*
X140748714Y-42634552D02*
X140653476Y-42682171D01*
X140224904Y-43301219D02*
X140224904Y-42634552D01*
X140224904Y-42825028D02*
X140177285Y-42729790D01*
X140177285Y-42729790D02*
X140129666Y-42682171D01*
X140129666Y-42682171D02*
X140034428Y-42634552D01*
X140034428Y-42634552D02*
X139939190Y-42634552D01*
X139462999Y-43301219D02*
X139558237Y-43253600D01*
X139558237Y-43253600D02*
X139605856Y-43205980D01*
X139605856Y-43205980D02*
X139653475Y-43110742D01*
X139653475Y-43110742D02*
X139653475Y-42825028D01*
X139653475Y-42825028D02*
X139605856Y-42729790D01*
X139605856Y-42729790D02*
X139558237Y-42682171D01*
X139558237Y-42682171D02*
X139462999Y-42634552D01*
X139462999Y-42634552D02*
X139320142Y-42634552D01*
X139320142Y-42634552D02*
X139224904Y-42682171D01*
X139224904Y-42682171D02*
X139177285Y-42729790D01*
X139177285Y-42729790D02*
X139129666Y-42825028D01*
X139129666Y-42825028D02*
X139129666Y-43110742D01*
X139129666Y-43110742D02*
X139177285Y-43205980D01*
X139177285Y-43205980D02*
X139224904Y-43253600D01*
X139224904Y-43253600D02*
X139320142Y-43301219D01*
X139320142Y-43301219D02*
X139462999Y-43301219D01*
X138701094Y-43301219D02*
X138701094Y-42301219D01*
X138701094Y-42301219D02*
X138367761Y-43015504D01*
X138367761Y-43015504D02*
X138034428Y-42301219D01*
X138034428Y-42301219D02*
X138034428Y-43301219D01*
X137558237Y-43301219D02*
X137558237Y-42634552D01*
X137558237Y-42301219D02*
X137605856Y-42348838D01*
X137605856Y-42348838D02*
X137558237Y-42396457D01*
X137558237Y-42396457D02*
X137510618Y-42348838D01*
X137510618Y-42348838D02*
X137558237Y-42301219D01*
X137558237Y-42301219D02*
X137558237Y-42396457D01*
X136653476Y-43253600D02*
X136748714Y-43301219D01*
X136748714Y-43301219D02*
X136939190Y-43301219D01*
X136939190Y-43301219D02*
X137034428Y-43253600D01*
X137034428Y-43253600D02*
X137082047Y-43205980D01*
X137082047Y-43205980D02*
X137129666Y-43110742D01*
X137129666Y-43110742D02*
X137129666Y-42825028D01*
X137129666Y-42825028D02*
X137082047Y-42729790D01*
X137082047Y-42729790D02*
X137034428Y-42682171D01*
X137034428Y-42682171D02*
X136939190Y-42634552D01*
X136939190Y-42634552D02*
X136748714Y-42634552D01*
X136748714Y-42634552D02*
X136653476Y-42682171D01*
X136224904Y-43301219D02*
X136224904Y-42634552D01*
X136224904Y-42825028D02*
X136177285Y-42729790D01*
X136177285Y-42729790D02*
X136129666Y-42682171D01*
X136129666Y-42682171D02*
X136034428Y-42634552D01*
X136034428Y-42634552D02*
X135939190Y-42634552D01*
X135462999Y-43301219D02*
X135558237Y-43253600D01*
X135558237Y-43253600D02*
X135605856Y-43205980D01*
X135605856Y-43205980D02*
X135653475Y-43110742D01*
X135653475Y-43110742D02*
X135653475Y-42825028D01*
X135653475Y-42825028D02*
X135605856Y-42729790D01*
X135605856Y-42729790D02*
X135558237Y-42682171D01*
X135558237Y-42682171D02*
X135462999Y-42634552D01*
X135462999Y-42634552D02*
X135320142Y-42634552D01*
X135320142Y-42634552D02*
X135224904Y-42682171D01*
X135224904Y-42682171D02*
X135177285Y-42729790D01*
X135177285Y-42729790D02*
X135129666Y-42825028D01*
X135129666Y-42825028D02*
X135129666Y-43110742D01*
X135129666Y-43110742D02*
X135177285Y-43205980D01*
X135177285Y-43205980D02*
X135224904Y-43253600D01*
X135224904Y-43253600D02*
X135320142Y-43301219D01*
X135320142Y-43301219D02*
X135462999Y-43301219D01*
D10*
X227966666Y-58454819D02*
X228299999Y-57978628D01*
X228538094Y-58454819D02*
X228538094Y-57454819D01*
X228538094Y-57454819D02*
X228157142Y-57454819D01*
X228157142Y-57454819D02*
X228061904Y-57502438D01*
X228061904Y-57502438D02*
X228014285Y-57550057D01*
X228014285Y-57550057D02*
X227966666Y-57645295D01*
X227966666Y-57645295D02*
X227966666Y-57788152D01*
X227966666Y-57788152D02*
X228014285Y-57883390D01*
X228014285Y-57883390D02*
X228061904Y-57931009D01*
X228061904Y-57931009D02*
X228157142Y-57978628D01*
X228157142Y-57978628D02*
X228538094Y-57978628D01*
X227395237Y-57883390D02*
X227490475Y-57835771D01*
X227490475Y-57835771D02*
X227538094Y-57788152D01*
X227538094Y-57788152D02*
X227585713Y-57692914D01*
X227585713Y-57692914D02*
X227585713Y-57645295D01*
X227585713Y-57645295D02*
X227538094Y-57550057D01*
X227538094Y-57550057D02*
X227490475Y-57502438D01*
X227490475Y-57502438D02*
X227395237Y-57454819D01*
X227395237Y-57454819D02*
X227204761Y-57454819D01*
X227204761Y-57454819D02*
X227109523Y-57502438D01*
X227109523Y-57502438D02*
X227061904Y-57550057D01*
X227061904Y-57550057D02*
X227014285Y-57645295D01*
X227014285Y-57645295D02*
X227014285Y-57692914D01*
X227014285Y-57692914D02*
X227061904Y-57788152D01*
X227061904Y-57788152D02*
X227109523Y-57835771D01*
X227109523Y-57835771D02*
X227204761Y-57883390D01*
X227204761Y-57883390D02*
X227395237Y-57883390D01*
X227395237Y-57883390D02*
X227490475Y-57931009D01*
X227490475Y-57931009D02*
X227538094Y-57978628D01*
X227538094Y-57978628D02*
X227585713Y-58073866D01*
X227585713Y-58073866D02*
X227585713Y-58264342D01*
X227585713Y-58264342D02*
X227538094Y-58359580D01*
X227538094Y-58359580D02*
X227490475Y-58407200D01*
X227490475Y-58407200D02*
X227395237Y-58454819D01*
X227395237Y-58454819D02*
X227204761Y-58454819D01*
X227204761Y-58454819D02*
X227109523Y-58407200D01*
X227109523Y-58407200D02*
X227061904Y-58359580D01*
X227061904Y-58359580D02*
X227014285Y-58264342D01*
X227014285Y-58264342D02*
X227014285Y-58073866D01*
X227014285Y-58073866D02*
X227061904Y-57978628D01*
X227061904Y-57978628D02*
X227109523Y-57931009D01*
X227109523Y-57931009D02*
X227204761Y-57883390D01*
X227966666Y-51854819D02*
X228299999Y-51378628D01*
X228538094Y-51854819D02*
X228538094Y-50854819D01*
X228538094Y-50854819D02*
X228157142Y-50854819D01*
X228157142Y-50854819D02*
X228061904Y-50902438D01*
X228061904Y-50902438D02*
X228014285Y-50950057D01*
X228014285Y-50950057D02*
X227966666Y-51045295D01*
X227966666Y-51045295D02*
X227966666Y-51188152D01*
X227966666Y-51188152D02*
X228014285Y-51283390D01*
X228014285Y-51283390D02*
X228061904Y-51331009D01*
X228061904Y-51331009D02*
X228157142Y-51378628D01*
X228157142Y-51378628D02*
X228538094Y-51378628D01*
X227061904Y-50854819D02*
X227538094Y-50854819D01*
X227538094Y-50854819D02*
X227585713Y-51331009D01*
X227585713Y-51331009D02*
X227538094Y-51283390D01*
X227538094Y-51283390D02*
X227442856Y-51235771D01*
X227442856Y-51235771D02*
X227204761Y-51235771D01*
X227204761Y-51235771D02*
X227109523Y-51283390D01*
X227109523Y-51283390D02*
X227061904Y-51331009D01*
X227061904Y-51331009D02*
X227014285Y-51426247D01*
X227014285Y-51426247D02*
X227014285Y-51664342D01*
X227014285Y-51664342D02*
X227061904Y-51759580D01*
X227061904Y-51759580D02*
X227109523Y-51807200D01*
X227109523Y-51807200D02*
X227204761Y-51854819D01*
X227204761Y-51854819D02*
X227442856Y-51854819D01*
X227442856Y-51854819D02*
X227538094Y-51807200D01*
X227538094Y-51807200D02*
X227585713Y-51759580D01*
X227966666Y-54054819D02*
X228299999Y-53578628D01*
X228538094Y-54054819D02*
X228538094Y-53054819D01*
X228538094Y-53054819D02*
X228157142Y-53054819D01*
X228157142Y-53054819D02*
X228061904Y-53102438D01*
X228061904Y-53102438D02*
X228014285Y-53150057D01*
X228014285Y-53150057D02*
X227966666Y-53245295D01*
X227966666Y-53245295D02*
X227966666Y-53388152D01*
X227966666Y-53388152D02*
X228014285Y-53483390D01*
X228014285Y-53483390D02*
X228061904Y-53531009D01*
X228061904Y-53531009D02*
X228157142Y-53578628D01*
X228157142Y-53578628D02*
X228538094Y-53578628D01*
X227633332Y-53054819D02*
X227014285Y-53054819D01*
X227014285Y-53054819D02*
X227347618Y-53435771D01*
X227347618Y-53435771D02*
X227204761Y-53435771D01*
X227204761Y-53435771D02*
X227109523Y-53483390D01*
X227109523Y-53483390D02*
X227061904Y-53531009D01*
X227061904Y-53531009D02*
X227014285Y-53626247D01*
X227014285Y-53626247D02*
X227014285Y-53864342D01*
X227014285Y-53864342D02*
X227061904Y-53959580D01*
X227061904Y-53959580D02*
X227109523Y-54007200D01*
X227109523Y-54007200D02*
X227204761Y-54054819D01*
X227204761Y-54054819D02*
X227490475Y-54054819D01*
X227490475Y-54054819D02*
X227585713Y-54007200D01*
X227585713Y-54007200D02*
X227633332Y-53959580D01*
X176095819Y-54951333D02*
X175619628Y-54618000D01*
X176095819Y-54379905D02*
X175095819Y-54379905D01*
X175095819Y-54379905D02*
X175095819Y-54760857D01*
X175095819Y-54760857D02*
X175143438Y-54856095D01*
X175143438Y-54856095D02*
X175191057Y-54903714D01*
X175191057Y-54903714D02*
X175286295Y-54951333D01*
X175286295Y-54951333D02*
X175429152Y-54951333D01*
X175429152Y-54951333D02*
X175524390Y-54903714D01*
X175524390Y-54903714D02*
X175572009Y-54856095D01*
X175572009Y-54856095D02*
X175619628Y-54760857D01*
X175619628Y-54760857D02*
X175619628Y-54379905D01*
X175095819Y-55284667D02*
X175095819Y-55951333D01*
X175095819Y-55951333D02*
X176095819Y-55522762D01*
X213881666Y-51129819D02*
X214214999Y-50653628D01*
X214453094Y-51129819D02*
X214453094Y-50129819D01*
X214453094Y-50129819D02*
X214072142Y-50129819D01*
X214072142Y-50129819D02*
X213976904Y-50177438D01*
X213976904Y-50177438D02*
X213929285Y-50225057D01*
X213929285Y-50225057D02*
X213881666Y-50320295D01*
X213881666Y-50320295D02*
X213881666Y-50463152D01*
X213881666Y-50463152D02*
X213929285Y-50558390D01*
X213929285Y-50558390D02*
X213976904Y-50606009D01*
X213976904Y-50606009D02*
X214072142Y-50653628D01*
X214072142Y-50653628D02*
X214453094Y-50653628D01*
X213500713Y-50225057D02*
X213453094Y-50177438D01*
X213453094Y-50177438D02*
X213357856Y-50129819D01*
X213357856Y-50129819D02*
X213119761Y-50129819D01*
X213119761Y-50129819D02*
X213024523Y-50177438D01*
X213024523Y-50177438D02*
X212976904Y-50225057D01*
X212976904Y-50225057D02*
X212929285Y-50320295D01*
X212929285Y-50320295D02*
X212929285Y-50415533D01*
X212929285Y-50415533D02*
X212976904Y-50558390D01*
X212976904Y-50558390D02*
X213548332Y-51129819D01*
X213548332Y-51129819D02*
X212929285Y-51129819D01*
X227966666Y-47454819D02*
X228299999Y-46978628D01*
X228538094Y-47454819D02*
X228538094Y-46454819D01*
X228538094Y-46454819D02*
X228157142Y-46454819D01*
X228157142Y-46454819D02*
X228061904Y-46502438D01*
X228061904Y-46502438D02*
X228014285Y-46550057D01*
X228014285Y-46550057D02*
X227966666Y-46645295D01*
X227966666Y-46645295D02*
X227966666Y-46788152D01*
X227966666Y-46788152D02*
X228014285Y-46883390D01*
X228014285Y-46883390D02*
X228061904Y-46931009D01*
X228061904Y-46931009D02*
X228157142Y-46978628D01*
X228157142Y-46978628D02*
X228538094Y-46978628D01*
X227014285Y-47454819D02*
X227585713Y-47454819D01*
X227299999Y-47454819D02*
X227299999Y-46454819D01*
X227299999Y-46454819D02*
X227395237Y-46597676D01*
X227395237Y-46597676D02*
X227490475Y-46692914D01*
X227490475Y-46692914D02*
X227585713Y-46740533D01*
X227966666Y-56254819D02*
X228299999Y-55778628D01*
X228538094Y-56254819D02*
X228538094Y-55254819D01*
X228538094Y-55254819D02*
X228157142Y-55254819D01*
X228157142Y-55254819D02*
X228061904Y-55302438D01*
X228061904Y-55302438D02*
X228014285Y-55350057D01*
X228014285Y-55350057D02*
X227966666Y-55445295D01*
X227966666Y-55445295D02*
X227966666Y-55588152D01*
X227966666Y-55588152D02*
X228014285Y-55683390D01*
X228014285Y-55683390D02*
X228061904Y-55731009D01*
X228061904Y-55731009D02*
X228157142Y-55778628D01*
X228157142Y-55778628D02*
X228538094Y-55778628D01*
X227109523Y-55254819D02*
X227299999Y-55254819D01*
X227299999Y-55254819D02*
X227395237Y-55302438D01*
X227395237Y-55302438D02*
X227442856Y-55350057D01*
X227442856Y-55350057D02*
X227538094Y-55492914D01*
X227538094Y-55492914D02*
X227585713Y-55683390D01*
X227585713Y-55683390D02*
X227585713Y-56064342D01*
X227585713Y-56064342D02*
X227538094Y-56159580D01*
X227538094Y-56159580D02*
X227490475Y-56207200D01*
X227490475Y-56207200D02*
X227395237Y-56254819D01*
X227395237Y-56254819D02*
X227204761Y-56254819D01*
X227204761Y-56254819D02*
X227109523Y-56207200D01*
X227109523Y-56207200D02*
X227061904Y-56159580D01*
X227061904Y-56159580D02*
X227014285Y-56064342D01*
X227014285Y-56064342D02*
X227014285Y-55826247D01*
X227014285Y-55826247D02*
X227061904Y-55731009D01*
X227061904Y-55731009D02*
X227109523Y-55683390D01*
X227109523Y-55683390D02*
X227204761Y-55635771D01*
X227204761Y-55635771D02*
X227395237Y-55635771D01*
X227395237Y-55635771D02*
X227490475Y-55683390D01*
X227490475Y-55683390D02*
X227538094Y-55731009D01*
X227538094Y-55731009D02*
X227585713Y-55826247D01*
X227966666Y-49654819D02*
X228299999Y-49178628D01*
X228538094Y-49654819D02*
X228538094Y-48654819D01*
X228538094Y-48654819D02*
X228157142Y-48654819D01*
X228157142Y-48654819D02*
X228061904Y-48702438D01*
X228061904Y-48702438D02*
X228014285Y-48750057D01*
X228014285Y-48750057D02*
X227966666Y-48845295D01*
X227966666Y-48845295D02*
X227966666Y-48988152D01*
X227966666Y-48988152D02*
X228014285Y-49083390D01*
X228014285Y-49083390D02*
X228061904Y-49131009D01*
X228061904Y-49131009D02*
X228157142Y-49178628D01*
X228157142Y-49178628D02*
X228538094Y-49178628D01*
X227109523Y-48988152D02*
X227109523Y-49654819D01*
X227347618Y-48607200D02*
X227585713Y-49321485D01*
X227585713Y-49321485D02*
X226966666Y-49321485D01*
D13*
%TO.C,D38*%
X112000000Y-89730000D02*
X112000000Y-90380000D01*
X112000000Y-90380000D02*
X112000000Y-91674500D01*
X112000000Y-94659000D02*
X112000000Y-93262000D01*
X112000000Y-95270000D02*
X112000000Y-94620000D01*
X112889000Y-93262000D02*
X111111000Y-93262000D01*
D14*
X112000000Y-93262000D02*
X111111000Y-91738000D01*
X112889000Y-91738000D01*
X112000000Y-93262000D01*
G36*
X112000000Y-93262000D02*
G01*
X111111000Y-91738000D01*
X112889000Y-91738000D01*
X112000000Y-93262000D01*
G37*
D13*
%TO.C,D7*%
X61245000Y-84000000D02*
X61895000Y-84000000D01*
X61856000Y-84000000D02*
X63253000Y-84000000D01*
X63253000Y-84889000D02*
X63253000Y-83111000D01*
X66135000Y-84000000D02*
X64840500Y-84000000D01*
X66785000Y-84000000D02*
X66135000Y-84000000D01*
D14*
X64777000Y-84889000D02*
X63253000Y-84000000D01*
X64777000Y-83111000D01*
X64777000Y-84889000D01*
G36*
X64777000Y-84889000D02*
G01*
X63253000Y-84000000D01*
X64777000Y-83111000D01*
X64777000Y-84889000D01*
G37*
D13*
%TO.C,D12*%
X232695000Y-83860000D02*
X233345000Y-83860000D01*
X233306000Y-83860000D02*
X234703000Y-83860000D01*
X234703000Y-84749000D02*
X234703000Y-82971000D01*
X237585000Y-83860000D02*
X236290500Y-83860000D01*
X238235000Y-83860000D02*
X237585000Y-83860000D01*
D14*
X236227000Y-84749000D02*
X234703000Y-83860000D01*
X236227000Y-82971000D01*
X236227000Y-84749000D01*
G36*
X236227000Y-84749000D02*
G01*
X234703000Y-83860000D01*
X236227000Y-82971000D01*
X236227000Y-84749000D01*
G37*
D13*
%TO.C,D28*%
X99980000Y-121960000D02*
X100630000Y-121960000D01*
X100591000Y-121960000D02*
X101988000Y-121960000D01*
X101988000Y-122849000D02*
X101988000Y-121071000D01*
X104870000Y-121960000D02*
X103575500Y-121960000D01*
X105520000Y-121960000D02*
X104870000Y-121960000D01*
D14*
X103512000Y-122849000D02*
X101988000Y-121960000D01*
X103512000Y-121071000D01*
X103512000Y-122849000D01*
G36*
X103512000Y-122849000D02*
G01*
X101988000Y-121960000D01*
X103512000Y-121071000D01*
X103512000Y-122849000D01*
G37*
D13*
%TO.C,D8*%
X99345000Y-84000000D02*
X99995000Y-84000000D01*
X99956000Y-84000000D02*
X101353000Y-84000000D01*
X101353000Y-84889000D02*
X101353000Y-83111000D01*
X104235000Y-84000000D02*
X102940500Y-84000000D01*
X104885000Y-84000000D02*
X104235000Y-84000000D01*
D14*
X102877000Y-84889000D02*
X101353000Y-84000000D01*
X102877000Y-83111000D01*
X102877000Y-84889000D01*
G36*
X102877000Y-84889000D02*
G01*
X101353000Y-84000000D01*
X102877000Y-83111000D01*
X102877000Y-84889000D01*
G37*
D13*
%TO.C,D10*%
X175545000Y-83860000D02*
X176195000Y-83860000D01*
X176156000Y-83860000D02*
X177553000Y-83860000D01*
X177553000Y-84749000D02*
X177553000Y-82971000D01*
X180435000Y-83860000D02*
X179140500Y-83860000D01*
X181085000Y-83860000D02*
X180435000Y-83860000D01*
D14*
X179077000Y-84749000D02*
X177553000Y-83860000D01*
X179077000Y-82971000D01*
X179077000Y-84749000D01*
G36*
X179077000Y-84749000D02*
G01*
X177553000Y-83860000D01*
X179077000Y-82971000D01*
X179077000Y-84749000D01*
G37*
D13*
%TO.C,D41*%
X169000000Y-89980000D02*
X169000000Y-90630000D01*
X169000000Y-90630000D02*
X169000000Y-91924500D01*
X169000000Y-94909000D02*
X169000000Y-93512000D01*
X169000000Y-95520000D02*
X169000000Y-94870000D01*
X169889000Y-93512000D02*
X168111000Y-93512000D01*
D14*
X169000000Y-93512000D02*
X168111000Y-91988000D01*
X169889000Y-91988000D01*
X169000000Y-93512000D01*
G36*
X169000000Y-93512000D02*
G01*
X168111000Y-91988000D01*
X169889000Y-91988000D01*
X169000000Y-93512000D01*
G37*
D13*
%TO.C,R8*%
X226022000Y-58000000D02*
X225006000Y-58000000D01*
X229578000Y-58000000D02*
X230594000Y-58000000D01*
X226022000Y-57238000D02*
X229578000Y-57238000D01*
X229578000Y-58762000D01*
X226022000Y-58762000D01*
X226022000Y-57238000D01*
%TO.C,R5*%
X226022000Y-51400000D02*
X225006000Y-51400000D01*
X229578000Y-51400000D02*
X230594000Y-51400000D01*
X229578000Y-52162000D02*
X226022000Y-52162000D01*
X226022000Y-50638000D01*
X229578000Y-50638000D01*
X229578000Y-52162000D01*
%TO.C,D18*%
X99345000Y-101005000D02*
X99995000Y-101005000D01*
X99956000Y-101005000D02*
X101353000Y-101005000D01*
X101353000Y-101894000D02*
X101353000Y-100116000D01*
X104235000Y-101005000D02*
X102940500Y-101005000D01*
X104885000Y-101005000D02*
X104235000Y-101005000D01*
D14*
X102877000Y-101894000D02*
X101353000Y-101005000D01*
X102877000Y-100116000D01*
X102877000Y-101894000D01*
G36*
X102877000Y-101894000D02*
G01*
X101353000Y-101005000D01*
X102877000Y-100116000D01*
X102877000Y-101894000D01*
G37*
D13*
%TO.C,D26*%
X232695000Y-102910000D02*
X233345000Y-102910000D01*
X233306000Y-102910000D02*
X234703000Y-102910000D01*
X234703000Y-103799000D02*
X234703000Y-102021000D01*
X237585000Y-102910000D02*
X236290500Y-102910000D01*
X238235000Y-102910000D02*
X237585000Y-102910000D01*
D14*
X236227000Y-103799000D02*
X234703000Y-102910000D01*
X236227000Y-102021000D01*
X236227000Y-103799000D01*
G36*
X236227000Y-103799000D02*
G01*
X234703000Y-102910000D01*
X236227000Y-102021000D01*
X236227000Y-103799000D01*
G37*
D13*
%TO.C,D39*%
X131000000Y-89980000D02*
X131000000Y-90630000D01*
X131000000Y-90630000D02*
X131000000Y-91924500D01*
X131000000Y-94909000D02*
X131000000Y-93512000D01*
X131000000Y-95520000D02*
X131000000Y-94870000D01*
X131889000Y-93512000D02*
X130111000Y-93512000D01*
D14*
X131000000Y-93512000D02*
X130111000Y-91988000D01*
X131889000Y-91988000D01*
X131000000Y-93512000D01*
G36*
X131000000Y-93512000D02*
G01*
X130111000Y-91988000D01*
X131889000Y-91988000D01*
X131000000Y-93512000D01*
G37*
D13*
%TO.C,R3*%
X226022000Y-53600000D02*
X225006000Y-53600000D01*
X229578000Y-53600000D02*
X230594000Y-53600000D01*
X229578000Y-54362000D02*
X226022000Y-54362000D01*
X226022000Y-52838000D01*
X229578000Y-52838000D01*
X229578000Y-54362000D01*
%TO.C,D34*%
X156495000Y-120055000D02*
X157145000Y-120055000D01*
X157106000Y-120055000D02*
X158503000Y-120055000D01*
X158503000Y-120944000D02*
X158503000Y-119166000D01*
X161385000Y-120055000D02*
X160090500Y-120055000D01*
X162035000Y-120055000D02*
X161385000Y-120055000D01*
D14*
X160027000Y-120944000D02*
X158503000Y-120055000D01*
X160027000Y-119166000D01*
X160027000Y-120944000D01*
G36*
X160027000Y-120944000D02*
G01*
X158503000Y-120055000D01*
X160027000Y-119166000D01*
X160027000Y-120944000D01*
G37*
D13*
%TO.C,Y1*%
X212441000Y-55120000D02*
X213203000Y-55120000D01*
X213203000Y-55120000D02*
X213203000Y-54104000D01*
X213203000Y-55120000D02*
X213203000Y-56136000D01*
X214473000Y-55120000D02*
X214473000Y-54104000D01*
X214473000Y-55120000D02*
X214473000Y-56136000D01*
X215235000Y-55120000D02*
X214473000Y-55120000D01*
X213457000Y-54104000D02*
X214219000Y-54104000D01*
X214219000Y-56136000D01*
X213457000Y-56136000D01*
X213457000Y-54104000D01*
%TO.C,D22*%
X80295000Y-102910000D02*
X80945000Y-102910000D01*
X80906000Y-102910000D02*
X82303000Y-102910000D01*
X82303000Y-103799000D02*
X82303000Y-102021000D01*
X85185000Y-102910000D02*
X83890500Y-102910000D01*
X85835000Y-102910000D02*
X85185000Y-102910000D01*
D14*
X83827000Y-103799000D02*
X82303000Y-102910000D01*
X83827000Y-102021000D01*
X83827000Y-103799000D01*
G36*
X83827000Y-103799000D02*
G01*
X82303000Y-102910000D01*
X83827000Y-102021000D01*
X83827000Y-103799000D01*
G37*
D13*
%TO.C,D13*%
X194595000Y-84000000D02*
X195245000Y-84000000D01*
X195206000Y-84000000D02*
X196603000Y-84000000D01*
X196603000Y-84889000D02*
X196603000Y-83111000D01*
X199485000Y-84000000D02*
X198190500Y-84000000D01*
X200135000Y-84000000D02*
X199485000Y-84000000D01*
D14*
X198127000Y-84889000D02*
X196603000Y-84000000D01*
X198127000Y-83111000D01*
X198127000Y-84889000D01*
G36*
X198127000Y-84889000D02*
G01*
X196603000Y-84000000D01*
X198127000Y-83111000D01*
X198127000Y-84889000D01*
G37*
D13*
%TO.C,R7*%
X175615000Y-53342000D02*
X175615000Y-52326000D01*
X175615000Y-56898000D02*
X175615000Y-57914000D01*
X174853000Y-56898000D02*
X176377000Y-56898000D01*
X176377000Y-53342000D01*
X174853000Y-53342000D01*
X174853000Y-56898000D01*
%TO.C,D31*%
X213645000Y-122000000D02*
X214295000Y-122000000D01*
X214256000Y-122000000D02*
X215653000Y-122000000D01*
X215653000Y-122889000D02*
X215653000Y-121111000D01*
X218535000Y-122000000D02*
X217240500Y-122000000D01*
X219185000Y-122000000D02*
X218535000Y-122000000D01*
D14*
X217177000Y-122889000D02*
X215653000Y-122000000D01*
X217177000Y-121111000D01*
X217177000Y-122889000D01*
G36*
X217177000Y-122889000D02*
G01*
X215653000Y-122000000D01*
X217177000Y-121111000D01*
X217177000Y-122889000D01*
G37*
D13*
%TO.C,D11*%
X213645000Y-84000000D02*
X214295000Y-84000000D01*
X214256000Y-84000000D02*
X215653000Y-84000000D01*
X215653000Y-84889000D02*
X215653000Y-83111000D01*
X218535000Y-84000000D02*
X217240500Y-84000000D01*
X219185000Y-84000000D02*
X218535000Y-84000000D01*
D14*
X217177000Y-84889000D02*
X215653000Y-84000000D01*
X217177000Y-83111000D01*
X217177000Y-84889000D01*
G36*
X217177000Y-84889000D02*
G01*
X215653000Y-84000000D01*
X217177000Y-83111000D01*
X217177000Y-84889000D01*
G37*
D13*
%TO.C,D24*%
X156450000Y-103000000D02*
X157100000Y-103000000D01*
X157061000Y-103000000D02*
X158458000Y-103000000D01*
X158458000Y-103889000D02*
X158458000Y-102111000D01*
X161340000Y-103000000D02*
X160045500Y-103000000D01*
X161990000Y-103000000D02*
X161340000Y-103000000D01*
D14*
X159982000Y-103889000D02*
X158458000Y-103000000D01*
X159982000Y-102111000D01*
X159982000Y-103889000D01*
G36*
X159982000Y-103889000D02*
G01*
X158458000Y-103000000D01*
X159982000Y-102111000D01*
X159982000Y-103889000D01*
G37*
D13*
%TO.C,D6*%
X74015000Y-89815000D02*
X74015000Y-90465000D01*
X74015000Y-90465000D02*
X74015000Y-91759500D01*
X74015000Y-94744000D02*
X74015000Y-93347000D01*
X74015000Y-95355000D02*
X74015000Y-94705000D01*
X74904000Y-93347000D02*
X73126000Y-93347000D01*
D14*
X74015000Y-93347000D02*
X73126000Y-91823000D01*
X74904000Y-91823000D01*
X74015000Y-93347000D01*
G36*
X74015000Y-93347000D02*
G01*
X73126000Y-91823000D01*
X74904000Y-91823000D01*
X74015000Y-93347000D01*
G37*
D13*
%TO.C,D33*%
X118395000Y-120055000D02*
X119045000Y-120055000D01*
X119006000Y-120055000D02*
X120403000Y-120055000D01*
X120403000Y-120944000D02*
X120403000Y-119166000D01*
X123285000Y-120055000D02*
X121990500Y-120055000D01*
X123935000Y-120055000D02*
X123285000Y-120055000D01*
D14*
X121927000Y-120944000D02*
X120403000Y-120055000D01*
X121927000Y-119166000D01*
X121927000Y-120944000D01*
G36*
X121927000Y-120944000D02*
G01*
X120403000Y-120055000D01*
X121927000Y-119166000D01*
X121927000Y-120944000D01*
G37*
D13*
%TO.C,D36*%
X232695000Y-120055000D02*
X233345000Y-120055000D01*
X233306000Y-120055000D02*
X234703000Y-120055000D01*
X234703000Y-120944000D02*
X234703000Y-119166000D01*
X237585000Y-120055000D02*
X236290500Y-120055000D01*
X238235000Y-120055000D02*
X237585000Y-120055000D01*
D14*
X236227000Y-120944000D02*
X234703000Y-120055000D01*
X236227000Y-119166000D01*
X236227000Y-120944000D01*
G36*
X236227000Y-120944000D02*
G01*
X234703000Y-120055000D01*
X236227000Y-119166000D01*
X236227000Y-120944000D01*
G37*
D13*
%TO.C,D5*%
X225780000Y-89815000D02*
X225780000Y-90465000D01*
X225780000Y-90465000D02*
X225780000Y-91759500D01*
X225780000Y-94744000D02*
X225780000Y-93347000D01*
X225780000Y-95355000D02*
X225780000Y-94705000D01*
X226669000Y-93347000D02*
X224891000Y-93347000D01*
D14*
X225780000Y-93347000D02*
X224891000Y-91823000D01*
X226669000Y-91823000D01*
X225780000Y-93347000D01*
G36*
X225780000Y-93347000D02*
G01*
X224891000Y-91823000D01*
X226669000Y-91823000D01*
X225780000Y-93347000D01*
G37*
D13*
%TO.C,D1*%
X93000000Y-89730000D02*
X93000000Y-90380000D01*
X93000000Y-90380000D02*
X93000000Y-91674500D01*
X93000000Y-94659000D02*
X93000000Y-93262000D01*
X93000000Y-95270000D02*
X93000000Y-94620000D01*
X93889000Y-93262000D02*
X92111000Y-93262000D01*
D14*
X93000000Y-93262000D02*
X92111000Y-91738000D01*
X93889000Y-91738000D01*
X93000000Y-93262000D01*
G36*
X93000000Y-93262000D02*
G01*
X92111000Y-91738000D01*
X93889000Y-91738000D01*
X93000000Y-93262000D01*
G37*
D13*
%TO.C,D17*%
X61880000Y-101005000D02*
X62530000Y-101005000D01*
X62491000Y-101005000D02*
X63888000Y-101005000D01*
X63888000Y-101894000D02*
X63888000Y-100116000D01*
X66770000Y-101005000D02*
X65475500Y-101005000D01*
X67420000Y-101005000D02*
X66770000Y-101005000D01*
D14*
X65412000Y-101894000D02*
X63888000Y-101005000D01*
X65412000Y-100116000D01*
X65412000Y-101894000D01*
G36*
X65412000Y-101894000D02*
G01*
X63888000Y-101005000D01*
X65412000Y-100116000D01*
X65412000Y-101894000D01*
G37*
D13*
%TO.C,D32*%
X80295000Y-120055000D02*
X80945000Y-120055000D01*
X80906000Y-120055000D02*
X82303000Y-120055000D01*
X82303000Y-120944000D02*
X82303000Y-119166000D01*
X85185000Y-120055000D02*
X83890500Y-120055000D01*
X85835000Y-120055000D02*
X85185000Y-120055000D01*
D14*
X83827000Y-120944000D02*
X82303000Y-120055000D01*
X83827000Y-119166000D01*
X83827000Y-120944000D01*
G36*
X83827000Y-120944000D02*
G01*
X82303000Y-120055000D01*
X83827000Y-119166000D01*
X83827000Y-120944000D01*
G37*
D13*
%TO.C,D23*%
X119030000Y-103000000D02*
X119680000Y-103000000D01*
X119641000Y-103000000D02*
X121038000Y-103000000D01*
X121038000Y-103889000D02*
X121038000Y-102111000D01*
X123920000Y-103000000D02*
X122625500Y-103000000D01*
X124570000Y-103000000D02*
X123920000Y-103000000D01*
D14*
X122562000Y-103889000D02*
X121038000Y-103000000D01*
X122562000Y-102111000D01*
X122562000Y-103889000D01*
G36*
X122562000Y-103889000D02*
G01*
X121038000Y-103000000D01*
X122562000Y-102111000D01*
X122562000Y-103889000D01*
G37*
D13*
%TO.C,D15*%
X118395000Y-84000000D02*
X119045000Y-84000000D01*
X119006000Y-84000000D02*
X120403000Y-84000000D01*
X120403000Y-84889000D02*
X120403000Y-83111000D01*
X123285000Y-84000000D02*
X121990500Y-84000000D01*
X123935000Y-84000000D02*
X123285000Y-84000000D01*
D14*
X121927000Y-84889000D02*
X120403000Y-84000000D01*
X121927000Y-83111000D01*
X121927000Y-84889000D01*
G36*
X121927000Y-84889000D02*
G01*
X120403000Y-84000000D01*
X121927000Y-83111000D01*
X121927000Y-84889000D01*
G37*
D13*
%TO.C,D29*%
X137445000Y-122000000D02*
X138095000Y-122000000D01*
X138056000Y-122000000D02*
X139453000Y-122000000D01*
X139453000Y-122889000D02*
X139453000Y-121111000D01*
X142335000Y-122000000D02*
X141040500Y-122000000D01*
X142985000Y-122000000D02*
X142335000Y-122000000D01*
D14*
X140977000Y-122889000D02*
X139453000Y-122000000D01*
X140977000Y-121111000D01*
X140977000Y-122889000D01*
G36*
X140977000Y-122889000D02*
G01*
X139453000Y-122000000D01*
X140977000Y-121111000D01*
X140977000Y-122889000D01*
G37*
D13*
%TO.C,R2*%
X211937000Y-50675000D02*
X210921000Y-50675000D01*
X215493000Y-50675000D02*
X216509000Y-50675000D01*
X211937000Y-49913000D02*
X215493000Y-49913000D01*
X215493000Y-51437000D01*
X211937000Y-51437000D01*
X211937000Y-49913000D01*
%TO.C,D30*%
X175545000Y-122000000D02*
X176195000Y-122000000D01*
X176156000Y-122000000D02*
X177553000Y-122000000D01*
X177553000Y-122889000D02*
X177553000Y-121111000D01*
X180435000Y-122000000D02*
X179140500Y-122000000D01*
X181085000Y-122000000D02*
X180435000Y-122000000D01*
D14*
X179077000Y-122889000D02*
X177553000Y-122000000D01*
X179077000Y-121111000D01*
X179077000Y-122889000D01*
G36*
X179077000Y-122889000D02*
G01*
X177553000Y-122000000D01*
X179077000Y-121111000D01*
X179077000Y-122889000D01*
G37*
D13*
%TO.C,D20*%
X175700000Y-101005000D02*
X176350000Y-101005000D01*
X176311000Y-101005000D02*
X177708000Y-101005000D01*
X177708000Y-101894000D02*
X177708000Y-100116000D01*
X180590000Y-101005000D02*
X179295500Y-101005000D01*
X181240000Y-101005000D02*
X180590000Y-101005000D01*
D14*
X179232000Y-101894000D02*
X177708000Y-101005000D01*
X179232000Y-100116000D01*
X179232000Y-101894000D01*
G36*
X179232000Y-101894000D02*
G01*
X177708000Y-101005000D01*
X179232000Y-100116000D01*
X179232000Y-101894000D01*
G37*
D13*
%TO.C,D27*%
X61880000Y-121960000D02*
X62530000Y-121960000D01*
X62491000Y-121960000D02*
X63888000Y-121960000D01*
X63888000Y-122849000D02*
X63888000Y-121071000D01*
X66770000Y-121960000D02*
X65475500Y-121960000D01*
X67420000Y-121960000D02*
X66770000Y-121960000D01*
D14*
X65412000Y-122849000D02*
X63888000Y-121960000D01*
X65412000Y-121071000D01*
X65412000Y-122849000D01*
G36*
X65412000Y-122849000D02*
G01*
X63888000Y-121960000D01*
X65412000Y-121071000D01*
X65412000Y-122849000D01*
G37*
D13*
%TO.C,D14*%
X157130000Y-83860000D02*
X157780000Y-83860000D01*
X157741000Y-83860000D02*
X159138000Y-83860000D01*
X159138000Y-84749000D02*
X159138000Y-82971000D01*
X162020000Y-83860000D02*
X160725500Y-83860000D01*
X162670000Y-83860000D02*
X162020000Y-83860000D01*
D14*
X160662000Y-84749000D02*
X159138000Y-83860000D01*
X160662000Y-82971000D01*
X160662000Y-84749000D01*
G36*
X160662000Y-84749000D02*
G01*
X159138000Y-83860000D01*
X160662000Y-82971000D01*
X160662000Y-84749000D01*
G37*
D13*
%TO.C,D16*%
X80295000Y-84000000D02*
X80945000Y-84000000D01*
X80906000Y-84000000D02*
X82303000Y-84000000D01*
X82303000Y-84889000D02*
X82303000Y-83111000D01*
X85185000Y-84000000D02*
X83890500Y-84000000D01*
X85835000Y-84000000D02*
X85185000Y-84000000D01*
D14*
X83827000Y-84889000D02*
X82303000Y-84000000D01*
X83827000Y-83111000D01*
X83827000Y-84889000D01*
G36*
X83827000Y-84889000D02*
G01*
X82303000Y-84000000D01*
X83827000Y-83111000D01*
X83827000Y-84889000D01*
G37*
D13*
%TO.C,R1*%
X226022000Y-47000000D02*
X225006000Y-47000000D01*
X229578000Y-47000000D02*
X230594000Y-47000000D01*
X229578000Y-47762000D02*
X226022000Y-47762000D01*
X226022000Y-46238000D01*
X229578000Y-46238000D01*
X229578000Y-47762000D01*
%TO.C,D25*%
X194595000Y-103000000D02*
X195245000Y-103000000D01*
X195206000Y-103000000D02*
X196603000Y-103000000D01*
X196603000Y-103889000D02*
X196603000Y-102111000D01*
X199485000Y-103000000D02*
X198190500Y-103000000D01*
X200135000Y-103000000D02*
X199485000Y-103000000D01*
D14*
X198127000Y-103889000D02*
X196603000Y-103000000D01*
X198127000Y-102111000D01*
X198127000Y-103889000D01*
G36*
X198127000Y-103889000D02*
G01*
X196603000Y-103000000D01*
X198127000Y-102111000D01*
X198127000Y-103889000D01*
G37*
D13*
%TO.C,D35*%
X194595000Y-120055000D02*
X195245000Y-120055000D01*
X195206000Y-120055000D02*
X196603000Y-120055000D01*
X196603000Y-120944000D02*
X196603000Y-119166000D01*
X199485000Y-120055000D02*
X198190500Y-120055000D01*
X200135000Y-120055000D02*
X199485000Y-120055000D01*
D14*
X198127000Y-120944000D02*
X196603000Y-120055000D01*
X198127000Y-119166000D01*
X198127000Y-120944000D01*
G36*
X198127000Y-120944000D02*
G01*
X196603000Y-120055000D01*
X198127000Y-119166000D01*
X198127000Y-120944000D01*
G37*
D13*
%TO.C,D19*%
X137450000Y-101005000D02*
X138100000Y-101005000D01*
X138061000Y-101005000D02*
X139458000Y-101005000D01*
X139458000Y-101894000D02*
X139458000Y-100116000D01*
X142340000Y-101005000D02*
X141045500Y-101005000D01*
X142990000Y-101005000D02*
X142340000Y-101005000D01*
D14*
X140982000Y-101894000D02*
X139458000Y-101005000D01*
X140982000Y-100116000D01*
X140982000Y-101894000D01*
G36*
X140982000Y-101894000D02*
G01*
X139458000Y-101005000D01*
X140982000Y-100116000D01*
X140982000Y-101894000D01*
G37*
D13*
%TO.C,D9*%
X137445000Y-84000000D02*
X138095000Y-84000000D01*
X138056000Y-84000000D02*
X139453000Y-84000000D01*
X139453000Y-84889000D02*
X139453000Y-83111000D01*
X142335000Y-84000000D02*
X141040500Y-84000000D01*
X142985000Y-84000000D02*
X142335000Y-84000000D01*
D14*
X140977000Y-84889000D02*
X139453000Y-84000000D01*
X140977000Y-83111000D01*
X140977000Y-84889000D01*
G36*
X140977000Y-84889000D02*
G01*
X139453000Y-84000000D01*
X140977000Y-83111000D01*
X140977000Y-84889000D01*
G37*
D13*
%TO.C,D21*%
X213645000Y-101005000D02*
X214295000Y-101005000D01*
X214256000Y-101005000D02*
X215653000Y-101005000D01*
X215653000Y-101894000D02*
X215653000Y-100116000D01*
X218535000Y-101005000D02*
X217240500Y-101005000D01*
X219185000Y-101005000D02*
X218535000Y-101005000D01*
D14*
X217177000Y-101894000D02*
X215653000Y-101005000D01*
X217177000Y-100116000D01*
X217177000Y-101894000D01*
G36*
X217177000Y-101894000D02*
G01*
X215653000Y-101005000D01*
X217177000Y-100116000D01*
X217177000Y-101894000D01*
G37*
D13*
%TO.C,D40*%
X150000000Y-89980000D02*
X150000000Y-90630000D01*
X150000000Y-90630000D02*
X150000000Y-91924500D01*
X150000000Y-94909000D02*
X150000000Y-93512000D01*
X150000000Y-95520000D02*
X150000000Y-94870000D01*
X150889000Y-93512000D02*
X149111000Y-93512000D01*
D14*
X150000000Y-93512000D02*
X149111000Y-91988000D01*
X150889000Y-91988000D01*
X150000000Y-93512000D01*
G36*
X150000000Y-93512000D02*
G01*
X149111000Y-91988000D01*
X150889000Y-91988000D01*
X150000000Y-93512000D01*
G37*
D13*
%TO.C,R6*%
X226022000Y-55800000D02*
X225006000Y-55800000D01*
X229578000Y-55800000D02*
X230594000Y-55800000D01*
X226022000Y-55038000D02*
X229578000Y-55038000D01*
X229578000Y-56562000D01*
X226022000Y-56562000D01*
X226022000Y-55038000D01*
%TO.C,R4*%
X226022000Y-49200000D02*
X225006000Y-49200000D01*
X229578000Y-49200000D02*
X230594000Y-49200000D01*
X226022000Y-48438000D02*
X229578000Y-48438000D01*
X229578000Y-49962000D01*
X226022000Y-49962000D01*
X226022000Y-48438000D01*
%TD*%
M02*
