%TF.GenerationSoftware,KiCad,Pcbnew,8.0.6*%
%TF.CreationDate,2024-12-27T12:36:34+00:00*%
%TF.ProjectId,a0,61302e6b-6963-4616-945f-706362585858,rev?*%
%TF.SameCoordinates,Original*%
%TF.FileFunction,Soldermask,Top*%
%TF.FilePolarity,Negative*%
%FSLAX46Y46*%
G04 Gerber Fmt 4.6, Leading zero omitted, Abs format (unit mm)*
G04 Created by KiCad (PCBNEW 8.0.6) date 2024-12-27 12:36:34*
%MOMM*%
%LPD*%
G01*
G04 APERTURE LIST*
G04 Aperture macros list*
%AMRoundRect*
0 Rectangle with rounded corners*
0 $1 Rounding radius*
0 $2 $3 $4 $5 $6 $7 $8 $9 X,Y pos of 4 corners*
0 Add a 4 corners polygon primitive as box body*
4,1,4,$2,$3,$4,$5,$6,$7,$8,$9,$2,$3,0*
0 Add four circle primitives for the rounded corners*
1,1,$1+$1,$2,$3*
1,1,$1+$1,$4,$5*
1,1,$1+$1,$6,$7*
1,1,$1+$1,$8,$9*
0 Add four rect primitives between the rounded corners*
20,1,$1+$1,$2,$3,$4,$5,0*
20,1,$1+$1,$4,$5,$6,$7,0*
20,1,$1+$1,$6,$7,$8,$9,0*
20,1,$1+$1,$8,$9,$2,$3,0*%
G04 Aperture macros list end*
%ADD10C,1.750000*%
%ADD11C,1.550000*%
%ADD12C,4.400000*%
%ADD13C,1.600000*%
%ADD14R,2.400000X1.600000*%
%ADD15O,2.400000X1.600000*%
%ADD16R,1.600000X1.600000*%
%ADD17O,1.600000X1.600000*%
%ADD18O,1.500000X2.500000*%
%ADD19R,1.500000X2.500000*%
%ADD20O,2.200000X3.500000*%
%ADD21R,1.700000X1.700000*%
%ADD22O,1.700000X1.700000*%
%ADD23R,1.600000X2.400000*%
%ADD24O,1.600000X2.400000*%
%ADD25C,1.400000*%
%ADD26O,1.400000X1.400000*%
%ADD27C,3.500000*%
%ADD28O,2.000000X4.200000*%
%ADD29O,4.200000X2.000000*%
%ADD30R,4.600000X2.000000*%
%ADD31R,2.000000X1.400000*%
%ADD32O,2.000000X1.400000*%
%ADD33C,1.200000*%
%ADD34C,1.700000*%
%ADD35C,2.200000*%
%ADD36C,4.000000*%
%ADD37C,1.500000*%
%ADD38R,1.800000X1.800000*%
%ADD39C,1.800000*%
%ADD40RoundRect,0.250000X0.600000X-0.600000X0.600000X0.600000X-0.600000X0.600000X-0.600000X-0.600000X0*%
G04 APERTURE END LIST*
D10*
%TO.C,SW24*%
X108920000Y-133000000D03*
D11*
X110190000Y-130460000D03*
D12*
X114000000Y-133000000D03*
D11*
X116540000Y-127920000D03*
D10*
X119080000Y-133000000D03*
%TD*%
%TO.C,SW12*%
X70920000Y-114000000D03*
D11*
X72190000Y-111460000D03*
D12*
X76000000Y-114000000D03*
D11*
X78540000Y-108920000D03*
D10*
X81080000Y-114000000D03*
%TD*%
%TO.C,SW10*%
X222920000Y-95000000D03*
D11*
X224190000Y-92460000D03*
D12*
X228000000Y-95000000D03*
D11*
X230540000Y-89920000D03*
D10*
X233080000Y-95000000D03*
%TD*%
%TO.C,SW8*%
X184920000Y-95000000D03*
D11*
X186190000Y-92460000D03*
D12*
X190000000Y-95000000D03*
D11*
X192540000Y-89920000D03*
D10*
X195080000Y-95000000D03*
%TD*%
%TO.C,SW11*%
X51920000Y-114000000D03*
D11*
X53190000Y-111460000D03*
D12*
X57000000Y-114000000D03*
D11*
X59540000Y-108920000D03*
D10*
X62080000Y-114000000D03*
%TD*%
%TO.C,SW14*%
X108920000Y-114000000D03*
D11*
X110190000Y-111460000D03*
D12*
X114000000Y-114000000D03*
D11*
X116540000Y-108920000D03*
D10*
X119080000Y-114000000D03*
%TD*%
%TO.C,SW17*%
X165920000Y-114000000D03*
D11*
X167190000Y-111460000D03*
D12*
X171000000Y-114000000D03*
D11*
X173540000Y-108920000D03*
D10*
X176080000Y-114000000D03*
%TD*%
%TO.C,SW7*%
X165920000Y-95000000D03*
D11*
X167190000Y-92460000D03*
D12*
X171000000Y-95000000D03*
D11*
X173540000Y-89920000D03*
D10*
X176080000Y-95000000D03*
%TD*%
%TO.C,SW3*%
X89920000Y-95000000D03*
D11*
X91190000Y-92460000D03*
D12*
X95000000Y-95000000D03*
D11*
X97540000Y-89920000D03*
D10*
X100080000Y-95000000D03*
%TD*%
%TO.C,SW4*%
X108920000Y-95000000D03*
D11*
X110190000Y-92460000D03*
D12*
X114000000Y-95000000D03*
D11*
X116540000Y-89920000D03*
D10*
X119080000Y-95000000D03*
%TD*%
%TO.C,SW28*%
X184920000Y-133000000D03*
D11*
X186190000Y-130460000D03*
D12*
X190000000Y-133000000D03*
D11*
X192540000Y-127920000D03*
D10*
X195080000Y-133000000D03*
%TD*%
%TO.C,SW13*%
X89920000Y-114000000D03*
D11*
X91190000Y-111460000D03*
D12*
X95000000Y-114000000D03*
D11*
X97540000Y-108920000D03*
D10*
X100080000Y-114000000D03*
%TD*%
%TO.C,SW2*%
X70920000Y-95000000D03*
D11*
X72190000Y-92460000D03*
D12*
X76000000Y-95000000D03*
D11*
X78540000Y-89920000D03*
D10*
X81080000Y-95000000D03*
%TD*%
%TO.C,SW23*%
X89920000Y-133000000D03*
D11*
X91190000Y-130460000D03*
D12*
X95000000Y-133000000D03*
D11*
X97540000Y-127920000D03*
D10*
X100080000Y-133000000D03*
%TD*%
%TO.C,SW9*%
X203920000Y-95000000D03*
D11*
X205190000Y-92460000D03*
D12*
X209000000Y-95000000D03*
D11*
X211540000Y-89920000D03*
D10*
X214080000Y-95000000D03*
%TD*%
%TO.C,SW19*%
X203920000Y-114000000D03*
D11*
X205190000Y-111460000D03*
D12*
X209000000Y-114000000D03*
D11*
X211540000Y-108920000D03*
D10*
X214080000Y-114000000D03*
%TD*%
%TO.C,SW18*%
X184920000Y-114000000D03*
D11*
X186190000Y-111460000D03*
D12*
X190000000Y-114000000D03*
D11*
X192540000Y-108920000D03*
D10*
X195080000Y-114000000D03*
%TD*%
%TO.C,SW22*%
X70920000Y-133000000D03*
D11*
X72190000Y-130460000D03*
D12*
X76000000Y-133000000D03*
D11*
X78540000Y-127920000D03*
D10*
X81080000Y-133000000D03*
%TD*%
%TO.C,SW21*%
X51920000Y-133000000D03*
D11*
X53190000Y-130460000D03*
D12*
X57000000Y-133000000D03*
D11*
X59540000Y-127920000D03*
D10*
X62080000Y-133000000D03*
%TD*%
%TO.C,SW16*%
X146920000Y-114000000D03*
D11*
X148190000Y-111460000D03*
D12*
X152000000Y-114000000D03*
D11*
X154540000Y-108920000D03*
D10*
X157080000Y-114000000D03*
%TD*%
%TO.C,SW30*%
X222920000Y-133000000D03*
D11*
X224190000Y-130460000D03*
D12*
X228000000Y-133000000D03*
D11*
X230540000Y-127920000D03*
D10*
X233080000Y-133000000D03*
%TD*%
%TO.C,SW6*%
X146920000Y-95000000D03*
D11*
X148190000Y-92460000D03*
D12*
X152000000Y-95000000D03*
D11*
X154540000Y-89920000D03*
D10*
X157080000Y-95000000D03*
%TD*%
%TO.C,SW26*%
X146920000Y-133000000D03*
D11*
X148190000Y-130460000D03*
D12*
X152000000Y-133000000D03*
D11*
X154540000Y-127920000D03*
D10*
X157080000Y-133000000D03*
%TD*%
%TO.C,SW25*%
X127920000Y-133000000D03*
D11*
X129190000Y-130460000D03*
D12*
X133000000Y-133000000D03*
D11*
X135540000Y-127920000D03*
D10*
X138080000Y-133000000D03*
%TD*%
%TO.C,SW15*%
X127920000Y-114000000D03*
D11*
X129190000Y-111460000D03*
D12*
X133000000Y-114000000D03*
D11*
X135540000Y-108920000D03*
D10*
X138080000Y-114000000D03*
%TD*%
%TO.C,SW27*%
X165920000Y-133000000D03*
D11*
X167190000Y-130460000D03*
D12*
X171000000Y-133000000D03*
D11*
X173540000Y-127920000D03*
D10*
X176080000Y-133000000D03*
%TD*%
%TO.C,SW29*%
X203920000Y-133000000D03*
D11*
X205190000Y-130460000D03*
D12*
X209000000Y-133000000D03*
D11*
X211540000Y-127920000D03*
D10*
X214080000Y-133000000D03*
%TD*%
%TO.C,SW5*%
X127920000Y-95000000D03*
D11*
X129190000Y-92460000D03*
D12*
X133000000Y-95000000D03*
D11*
X135540000Y-89920000D03*
D10*
X138080000Y-95000000D03*
%TD*%
%TO.C,SW20*%
X222920000Y-114000000D03*
D11*
X224190000Y-111460000D03*
D12*
X228000000Y-114000000D03*
D11*
X230540000Y-108920000D03*
D10*
X233080000Y-114000000D03*
%TD*%
%TO.C,SW1*%
X51920000Y-95000000D03*
D11*
X53190000Y-92460000D03*
D12*
X57000000Y-95000000D03*
D11*
X59540000Y-89920000D03*
D10*
X62080000Y-95000000D03*
%TD*%
D13*
%TO.C,C7*%
X67945000Y-70465000D03*
X67945000Y-67965000D03*
%TD*%
D14*
%TO.C,U10*%
X181610000Y-67945000D03*
D15*
X181610000Y-70485000D03*
X181610000Y-73025000D03*
X181610000Y-75565000D03*
X181610000Y-78105000D03*
X181610000Y-80645000D03*
X181610000Y-83185000D03*
X189230000Y-83185000D03*
X189230000Y-80645000D03*
X189230000Y-78105000D03*
X189230000Y-75565000D03*
X189230000Y-73025000D03*
X189230000Y-70485000D03*
X189230000Y-67945000D03*
%TD*%
D13*
%TO.C,C2*%
X214085000Y-53487000D03*
X214085000Y-55987000D03*
%TD*%
D16*
%TO.C,J8*%
X226357169Y-81750000D03*
D13*
X226357169Y-78980000D03*
X226357169Y-76210000D03*
X226357169Y-73440000D03*
X226357169Y-70670000D03*
X228897169Y-80365000D03*
X228897169Y-77595000D03*
X228897169Y-74825000D03*
X228897169Y-72055000D03*
%TD*%
D16*
%TO.C,D37*%
X65405000Y-74295000D03*
D17*
X65405000Y-81915000D03*
%TD*%
D18*
%TO.C,SW32*%
X213170000Y-45085000D03*
X215170000Y-45085000D03*
D19*
X217170000Y-45085000D03*
D20*
X211070000Y-45085000D03*
X219270000Y-45085000D03*
%TD*%
D14*
%TO.C,U12*%
X206360000Y-65420000D03*
D15*
X206360000Y-67960000D03*
X206360000Y-70500000D03*
X206360000Y-73040000D03*
X206360000Y-75580000D03*
X206360000Y-78120000D03*
X206360000Y-80660000D03*
X206360000Y-83200000D03*
X213980000Y-83200000D03*
X213980000Y-80660000D03*
X213980000Y-78120000D03*
X213980000Y-75580000D03*
X213980000Y-73040000D03*
X213980000Y-70500000D03*
X213980000Y-67960000D03*
X213980000Y-65420000D03*
%TD*%
D16*
%TO.C,D7*%
X52705000Y-86500000D03*
D17*
X60325000Y-86500000D03*
%TD*%
D16*
%TO.C,D12*%
X224155000Y-86360000D03*
D17*
X231775000Y-86360000D03*
%TD*%
D16*
%TO.C,J7*%
X58642831Y-70660000D03*
D13*
X58642831Y-73430000D03*
X58642831Y-76200000D03*
X58642831Y-78970000D03*
X58642831Y-81740000D03*
X56102831Y-72045000D03*
X56102831Y-74815000D03*
X56102831Y-77585000D03*
X56102831Y-80355000D03*
%TD*%
D21*
%TO.C,J1*%
X170195000Y-59060000D03*
D22*
X170195000Y-56520000D03*
X172735000Y-59060000D03*
X172735000Y-56520000D03*
X175275000Y-59060000D03*
X175275000Y-56520000D03*
%TD*%
D23*
%TO.C,U3*%
X76210000Y-62230000D03*
D24*
X78750000Y-62230000D03*
X81290000Y-62230000D03*
X83830000Y-62230000D03*
X86370000Y-62230000D03*
X88910000Y-62230000D03*
X91450000Y-62230000D03*
X93990000Y-62230000D03*
X96530000Y-62230000D03*
X99070000Y-62230000D03*
X101610000Y-62230000D03*
X104150000Y-62230000D03*
X106690000Y-62230000D03*
X109230000Y-62230000D03*
X109230000Y-46990000D03*
X106690000Y-46990000D03*
X104150000Y-46990000D03*
X101610000Y-46990000D03*
X99070000Y-46990000D03*
X96530000Y-46990000D03*
X93990000Y-46990000D03*
X91450000Y-46990000D03*
X88910000Y-46990000D03*
X86370000Y-46990000D03*
X83830000Y-46990000D03*
X81290000Y-46990000D03*
X78750000Y-46990000D03*
X76210000Y-46990000D03*
%TD*%
D23*
%TO.C,U8*%
X180340000Y-60975000D03*
D24*
X182880000Y-60975000D03*
X185420000Y-60975000D03*
X187960000Y-60975000D03*
X190500000Y-60975000D03*
X193040000Y-60975000D03*
X195580000Y-60975000D03*
X195580000Y-53355000D03*
X193040000Y-53355000D03*
X190500000Y-53355000D03*
X187960000Y-53355000D03*
X185420000Y-53355000D03*
X182880000Y-53355000D03*
X180340000Y-53355000D03*
%TD*%
D13*
%TO.C,C5*%
X68620000Y-43815000D03*
X71120000Y-43815000D03*
%TD*%
%TO.C,C11*%
X174645000Y-53340000D03*
X177145000Y-53340000D03*
%TD*%
D16*
%TO.C,D6*%
X66500000Y-91190000D03*
D17*
X66500000Y-98810000D03*
%TD*%
D25*
%TO.C,R13*%
X210500000Y-50800000D03*
D26*
X208600000Y-50800000D03*
%TD*%
D25*
%TO.C,R2*%
X213106000Y-58928000D03*
D26*
X208026000Y-58928000D03*
%TD*%
D27*
%TO.C,H4*%
X218500000Y-123500000D03*
%TD*%
D16*
%TO.C,RN1*%
X222504000Y-62865000D03*
D17*
X222504000Y-65405000D03*
X222504000Y-67945000D03*
X222504000Y-70485000D03*
X222504000Y-73025000D03*
X222504000Y-75565000D03*
X222504000Y-78105000D03*
X222504000Y-80645000D03*
X222504000Y-83185000D03*
%TD*%
D13*
%TO.C,C15*%
X211495000Y-62230000D03*
X213995000Y-62230000D03*
%TD*%
D16*
%TO.C,D28*%
X91440000Y-124460000D03*
D17*
X99060000Y-124460000D03*
%TD*%
D28*
%TO.C,J6*%
X227610000Y-49170000D03*
D29*
X232410000Y-45770000D03*
D30*
X232410000Y-52070000D03*
%TD*%
D16*
%TO.C,U5*%
X115570000Y-70485000D03*
D17*
X118110000Y-70485000D03*
X120650000Y-70485000D03*
X123190000Y-70485000D03*
X125730000Y-70485000D03*
X128270000Y-70485000D03*
X130810000Y-70485000D03*
X133350000Y-70485000D03*
X135890000Y-70485000D03*
X138430000Y-70485000D03*
X140970000Y-70485000D03*
X143510000Y-70485000D03*
X146050000Y-70485000D03*
X148590000Y-70485000D03*
X151130000Y-70485000D03*
X153670000Y-70485000D03*
X156210000Y-70485000D03*
X158750000Y-70485000D03*
X161290000Y-70485000D03*
X163830000Y-70485000D03*
X163830000Y-55245000D03*
X161290000Y-55245000D03*
X158750000Y-55245000D03*
X156210000Y-55245000D03*
X153670000Y-55245000D03*
X151130000Y-55245000D03*
X148590000Y-55245000D03*
X146050000Y-55245000D03*
X143510000Y-55245000D03*
X140970000Y-55245000D03*
X138430000Y-55245000D03*
X135890000Y-55245000D03*
X133350000Y-55245000D03*
X130810000Y-55245000D03*
X128270000Y-55245000D03*
X125730000Y-55245000D03*
X123190000Y-55245000D03*
X120650000Y-55245000D03*
X118110000Y-55245000D03*
X115570000Y-55245000D03*
%TD*%
D16*
%TO.C,D8*%
X90805000Y-86500000D03*
D17*
X98425000Y-86500000D03*
%TD*%
D31*
%TO.C,J3*%
X227660000Y-55887500D03*
D32*
X226160000Y-60387500D03*
X234660000Y-55887500D03*
X231660000Y-55887500D03*
X234660000Y-61387500D03*
D33*
X226360000Y-58187500D03*
X233360000Y-58187500D03*
%TD*%
D16*
%TO.C,D10*%
X167005000Y-86360000D03*
D17*
X174625000Y-86360000D03*
%TD*%
D25*
%TO.C,R5*%
X217175000Y-62655000D03*
D26*
X219075000Y-62655000D03*
%TD*%
D16*
%TO.C,D2*%
X104140000Y-110490000D03*
D17*
X104140000Y-118110000D03*
%TD*%
D13*
%TO.C,C6*%
X78740000Y-43815000D03*
X76240000Y-43815000D03*
%TD*%
D16*
%TO.C,RN3*%
X83820000Y-43815000D03*
D17*
X86360000Y-43815000D03*
X88900000Y-43815000D03*
X91440000Y-43815000D03*
X93980000Y-43815000D03*
%TD*%
D27*
%TO.C,H3*%
X66500000Y-123500000D03*
%TD*%
D23*
%TO.C,U6*%
X115570000Y-83185000D03*
D24*
X118110000Y-83185000D03*
X120650000Y-83185000D03*
X123190000Y-83185000D03*
X125730000Y-83185000D03*
X128270000Y-83185000D03*
X130810000Y-83185000D03*
X133350000Y-83185000D03*
X135890000Y-83185000D03*
X138430000Y-83185000D03*
X138430000Y-75565000D03*
X135890000Y-75565000D03*
X133350000Y-75565000D03*
X130810000Y-75565000D03*
X128270000Y-75565000D03*
X125730000Y-75565000D03*
X123190000Y-75565000D03*
X120650000Y-75565000D03*
X118110000Y-75565000D03*
X115570000Y-75565000D03*
%TD*%
D16*
%TO.C,D18*%
X90805000Y-103505000D03*
D17*
X98425000Y-103505000D03*
%TD*%
D34*
%TO.C,SW31*%
X206720000Y-45085000D03*
X202220000Y-45085000D03*
D35*
X207970000Y-47585000D03*
X200970000Y-47585000D03*
%TD*%
D16*
%TO.C,D4*%
X66675000Y-128905000D03*
D17*
X66675000Y-136525000D03*
%TD*%
D16*
%TO.C,D26*%
X224155000Y-105410000D03*
D17*
X231775000Y-105410000D03*
%TD*%
D36*
%TO.C,J2*%
X195580000Y-47625000D03*
X170580000Y-47625000D03*
D16*
X178765000Y-49675000D03*
D13*
X181055000Y-49675000D03*
X183345000Y-49675000D03*
X185635000Y-49675000D03*
X187925000Y-49675000D03*
X177620000Y-47695000D03*
X179910000Y-47695000D03*
X182200000Y-47695000D03*
X184490000Y-47695000D03*
X186780000Y-47695000D03*
X178765000Y-45715000D03*
X181055000Y-45715000D03*
X183345000Y-45715000D03*
X185635000Y-45715000D03*
X187925000Y-45715000D03*
%TD*%
D27*
%TO.C,H1*%
X218440000Y-85500000D03*
%TD*%
D25*
%TO.C,R3*%
X167005000Y-53340000D03*
D26*
X172085000Y-53340000D03*
%TD*%
D14*
%TO.C,U11*%
X194310000Y-65405000D03*
D15*
X194310000Y-67945000D03*
X194310000Y-70485000D03*
X194310000Y-73025000D03*
X194310000Y-75565000D03*
X194310000Y-78105000D03*
X194310000Y-80645000D03*
X194310000Y-83185000D03*
X201930000Y-83185000D03*
X201930000Y-80645000D03*
X201930000Y-78105000D03*
X201930000Y-75565000D03*
X201930000Y-73025000D03*
X201930000Y-70485000D03*
X201930000Y-67945000D03*
X201930000Y-65405000D03*
%TD*%
D16*
%TO.C,D34*%
X147955000Y-122555000D03*
D17*
X155575000Y-122555000D03*
%TD*%
D37*
%TO.C,Y1*%
X203925000Y-54864000D03*
X208805000Y-54864000D03*
%TD*%
D16*
%TO.C,D22*%
X71755000Y-105410000D03*
D17*
X79375000Y-105410000D03*
%TD*%
D23*
%TO.C,U4*%
X71120000Y-83185000D03*
D24*
X73660000Y-83185000D03*
X76200000Y-83185000D03*
X78740000Y-83185000D03*
X81280000Y-83185000D03*
X83820000Y-83185000D03*
X86360000Y-83185000D03*
X88900000Y-83185000D03*
X91440000Y-83185000D03*
X93980000Y-83185000D03*
X96520000Y-83185000D03*
X99060000Y-83185000D03*
X101600000Y-83185000D03*
X104140000Y-83185000D03*
X106680000Y-83185000D03*
X109220000Y-83185000D03*
X109220000Y-67945000D03*
X106680000Y-67945000D03*
X104140000Y-67945000D03*
X101600000Y-67945000D03*
X99060000Y-67945000D03*
X96520000Y-67945000D03*
X93980000Y-67945000D03*
X91440000Y-67945000D03*
X88900000Y-67945000D03*
X86360000Y-67945000D03*
X83820000Y-67945000D03*
X81280000Y-67945000D03*
X78740000Y-67945000D03*
X76200000Y-67945000D03*
X73660000Y-67945000D03*
X71120000Y-67945000D03*
%TD*%
D16*
%TO.C,D13*%
X186055000Y-86500000D03*
D17*
X193675000Y-86500000D03*
%TD*%
D16*
%TO.C,C3*%
X221300113Y-50800000D03*
D13*
X219300113Y-50800000D03*
%TD*%
D16*
%TO.C,D31*%
X205105000Y-124500000D03*
D17*
X212725000Y-124500000D03*
%TD*%
D13*
%TO.C,C8*%
X112395000Y-73025000D03*
X112395000Y-75525000D03*
%TD*%
%TO.C,C10*%
X141165000Y-73065000D03*
X141165000Y-75565000D03*
%TD*%
D16*
%TO.C,D11*%
X205105000Y-86500000D03*
D17*
X212725000Y-86500000D03*
%TD*%
D16*
%TO.C,D24*%
X155810000Y-105500000D03*
D17*
X148190000Y-105500000D03*
%TD*%
D16*
%TO.C,BZ1*%
X221750000Y-57500000D03*
D13*
X218550000Y-57500000D03*
%TD*%
D16*
%TO.C,RN2*%
X99060000Y-43815000D03*
D17*
X101600000Y-43815000D03*
X104140000Y-43815000D03*
X106680000Y-43815000D03*
X109220000Y-43815000D03*
%TD*%
D16*
%TO.C,D33*%
X109855000Y-122555000D03*
D17*
X117475000Y-122555000D03*
%TD*%
D16*
%TO.C,D36*%
X224155000Y-122555000D03*
D17*
X231775000Y-122555000D03*
%TD*%
D13*
%TO.C,C12*%
X173990000Y-64643000D03*
X176490000Y-64643000D03*
%TD*%
%TO.C,C14*%
X199430000Y-62230000D03*
X201930000Y-62230000D03*
%TD*%
D16*
%TO.C,D17*%
X53340000Y-103505000D03*
D17*
X60960000Y-103505000D03*
%TD*%
D16*
%TO.C,D32*%
X71755000Y-122555000D03*
D17*
X79375000Y-122555000D03*
%TD*%
D16*
%TO.C,D23*%
X110490000Y-105500000D03*
D17*
X118110000Y-105500000D03*
%TD*%
D27*
%TO.C,H2*%
X66500000Y-85500000D03*
%TD*%
D23*
%TO.C,U7*%
X146050000Y-83185000D03*
D24*
X148590000Y-83185000D03*
X151130000Y-83185000D03*
X153670000Y-83185000D03*
X156210000Y-83185000D03*
X158750000Y-83185000D03*
X161290000Y-83185000D03*
X163830000Y-83185000D03*
X163830000Y-75565000D03*
X161290000Y-75565000D03*
X158750000Y-75565000D03*
X156210000Y-75565000D03*
X153670000Y-75565000D03*
X151130000Y-75565000D03*
X148590000Y-75565000D03*
X146050000Y-75565000D03*
%TD*%
D13*
%TO.C,C1*%
X198845000Y-53487000D03*
X198845000Y-55987000D03*
%TD*%
D16*
%TO.C,D15*%
X109855000Y-86500000D03*
D17*
X117475000Y-86500000D03*
%TD*%
D16*
%TO.C,D29*%
X128905000Y-124500000D03*
D17*
X136525000Y-124500000D03*
%TD*%
D16*
%TO.C,D3*%
X104140000Y-91000000D03*
D17*
X104140000Y-98620000D03*
%TD*%
D16*
%TO.C,D38*%
X62865000Y-74295000D03*
D17*
X62865000Y-81915000D03*
%TD*%
D16*
%TO.C,D30*%
X167005000Y-124500000D03*
D17*
X174625000Y-124500000D03*
%TD*%
D16*
%TO.C,D20*%
X174810000Y-103505000D03*
D17*
X167190000Y-103505000D03*
%TD*%
D25*
%TO.C,R11*%
X202200000Y-50800000D03*
D26*
X200300000Y-50800000D03*
%TD*%
D16*
%TO.C,D27*%
X53340000Y-124460000D03*
D17*
X60960000Y-124460000D03*
%TD*%
D16*
%TO.C,D14*%
X148590000Y-86360000D03*
D17*
X156210000Y-86360000D03*
%TD*%
D16*
%TO.C,D5*%
X66500000Y-110190000D03*
D17*
X66500000Y-117810000D03*
%TD*%
D16*
%TO.C,D16*%
X71755000Y-86500000D03*
D17*
X79375000Y-86500000D03*
%TD*%
D16*
%TO.C,C16*%
X227330000Y-66040000D03*
D13*
X229330000Y-66040000D03*
%TD*%
D25*
%TO.C,R14*%
X217175000Y-65195000D03*
D26*
X219075000Y-65195000D03*
%TD*%
D25*
%TO.C,R1*%
X200316000Y-58928000D03*
D26*
X205396000Y-58928000D03*
%TD*%
D16*
%TO.C,D25*%
X186055000Y-105500000D03*
D17*
X193675000Y-105500000D03*
%TD*%
D14*
%TO.C,U2*%
X63500000Y-46990000D03*
D15*
X63500000Y-49530000D03*
X63500000Y-52070000D03*
X63500000Y-54610000D03*
X63500000Y-57150000D03*
X63500000Y-59690000D03*
X63500000Y-62230000D03*
X63500000Y-64770000D03*
X71120000Y-64770000D03*
X71120000Y-62230000D03*
X71120000Y-59690000D03*
X71120000Y-57150000D03*
X71120000Y-54610000D03*
X71120000Y-52070000D03*
X71120000Y-49530000D03*
X71120000Y-46990000D03*
%TD*%
D16*
%TO.C,D35*%
X186055000Y-122555000D03*
D17*
X193675000Y-122555000D03*
%TD*%
D16*
%TO.C,D19*%
X136810000Y-103505000D03*
D17*
X129190000Y-103505000D03*
%TD*%
D16*
%TO.C,D9*%
X128905000Y-86500000D03*
D17*
X136525000Y-86500000D03*
%TD*%
D16*
%TO.C,D21*%
X205105000Y-103505000D03*
D17*
X212725000Y-103505000D03*
%TD*%
D14*
%TO.C,U1*%
X50800000Y-46990000D03*
D15*
X50800000Y-49530000D03*
X50800000Y-52070000D03*
X50800000Y-54610000D03*
X50800000Y-57150000D03*
X50800000Y-59690000D03*
X50800000Y-62230000D03*
X50800000Y-64770000D03*
X58420000Y-64770000D03*
X58420000Y-62230000D03*
X58420000Y-59690000D03*
X58420000Y-57150000D03*
X58420000Y-54610000D03*
X58420000Y-52070000D03*
X58420000Y-49530000D03*
X58420000Y-46990000D03*
%TD*%
D13*
%TO.C,C9*%
X143324000Y-75565000D03*
X143324000Y-73065000D03*
%TD*%
D14*
%TO.C,U9*%
X168910000Y-67940000D03*
D15*
X168910000Y-70480000D03*
X168910000Y-73020000D03*
X168910000Y-75560000D03*
X168910000Y-78100000D03*
X168910000Y-80640000D03*
X168910000Y-83180000D03*
X176530000Y-83180000D03*
X176530000Y-80640000D03*
X176530000Y-78100000D03*
X176530000Y-75560000D03*
X176530000Y-73020000D03*
X176530000Y-70480000D03*
X176530000Y-67940000D03*
%TD*%
D13*
%TO.C,C13*%
X186730000Y-64770000D03*
X189230000Y-64770000D03*
%TD*%
D38*
%TO.C,D1*%
X222880000Y-44196000D03*
D39*
X225420000Y-44196000D03*
%TD*%
D25*
%TO.C,R12*%
X206375000Y-50800000D03*
D26*
X204475000Y-50800000D03*
%TD*%
D40*
%TO.C,J5*%
X120650000Y-50697500D03*
D34*
X120650000Y-48157500D03*
X123190000Y-50697500D03*
X123190000Y-48157500D03*
X125730000Y-50697500D03*
X125730000Y-48157500D03*
X128270000Y-50697500D03*
X128270000Y-48157500D03*
X130810000Y-50697500D03*
X130810000Y-48157500D03*
X133350000Y-50697500D03*
X133350000Y-48157500D03*
X135890000Y-50697500D03*
X135890000Y-48157500D03*
X138430000Y-50697500D03*
X138430000Y-48157500D03*
X140970000Y-50697500D03*
X140970000Y-48157500D03*
X143510000Y-50697500D03*
X143510000Y-48157500D03*
X146050000Y-50697500D03*
X146050000Y-48157500D03*
X148590000Y-50697500D03*
X148590000Y-48157500D03*
X151130000Y-50697500D03*
X151130000Y-48157500D03*
X153670000Y-50697500D03*
X153670000Y-48157500D03*
X156210000Y-50697500D03*
X156210000Y-48157500D03*
X158750000Y-50697500D03*
X158750000Y-48157500D03*
X161290000Y-50697500D03*
X161290000Y-48157500D03*
%TD*%
D13*
%TO.C,C4*%
X55920000Y-43815000D03*
X58420000Y-43815000D03*
%TD*%
D25*
%TO.C,R4*%
X224790000Y-53340000D03*
D26*
X224790000Y-48260000D03*
%TD*%
M02*
