M48
; DRILL file {KiCad 8.0.6} date 2025-01-18T12:54:04+0000
; FORMAT={-:-/ absolute / inch / decimal}
; #@! TF.CreationDate,2025-01-18T12:54:04+00:00
; #@! TF.GenerationSoftware,Kicad,Pcbnew,8.0.6
; #@! TF.FileFunction,NonPlated,1,2,NPTH
FMAT,2
INCH
; #@! TA.AperFunction,NonPlated,NPTH,ComponentDrill
T1C0.0472
; #@! TA.AperFunction,NonPlated,NPTH,ComponentDrill
T2C0.0689
; #@! TA.AperFunction,NonPlated,NPTH,ComponentDrill
T3C0.1732
%
G90
G05
T1
X9.3075Y-2.16
X9.5831Y-2.16
T2
X2.3394Y-3.6417
X2.3394Y-4.3898
X2.3394Y-5.1378
X2.7394Y-3.6417
X2.7394Y-4.3898
X2.7394Y-5.1378
X3.0874Y-3.6417
X3.0874Y-4.3898
X3.0874Y-5.1378
X3.4874Y-3.6417
X3.4874Y-4.3898
X3.4874Y-5.1378
X3.8354Y-3.6417
X3.8354Y-4.3898
X3.8354Y-5.1378
X4.2354Y-3.6417
X4.2354Y-4.3898
X4.2354Y-5.1378
X4.5835Y-3.6417
X4.5835Y-4.3898
X4.5835Y-5.1378
X4.9835Y-3.6417
X4.9835Y-4.3898
X4.9835Y-5.1378
X5.3315Y-3.6417
X5.3315Y-4.3898
X5.3315Y-5.1378
X5.7315Y-3.6417
X5.7315Y-4.3898
X5.7315Y-5.1378
X6.0795Y-3.6417
X6.0795Y-4.3898
X6.0795Y-5.1378
X6.4795Y-3.6417
X6.4795Y-4.3898
X6.4795Y-5.1378
X6.8276Y-3.6417
X6.8276Y-4.3898
X6.8276Y-5.1378
X7.2276Y-3.6417
X7.2276Y-4.3898
X7.2276Y-5.1378
X7.5756Y-3.6417
X7.5756Y-4.3898
X7.5756Y-5.1378
X7.9756Y-3.6417
X7.9756Y-4.3898
X7.9756Y-5.1378
X8.3236Y-3.6417
X8.3236Y-4.3898
X8.3236Y-5.1378
X8.7236Y-3.6417
X8.7236Y-4.3898
X8.7236Y-5.1378
X9.0717Y-3.6417
X9.0717Y-4.3898
X9.0717Y-5.1378
X9.4717Y-3.6417
X9.4717Y-4.3898
X9.4717Y-5.1378
T3
X2.5394Y-3.6417
X2.5394Y-4.3898
X2.5394Y-5.1378
X3.2874Y-3.6417
X3.2874Y-4.3898
X3.2874Y-5.1378
X4.0354Y-3.6417
X4.0354Y-4.3898
X4.0354Y-5.1378
X4.7835Y-3.6417
X4.7835Y-4.3898
X4.7835Y-5.1378
X5.5315Y-3.6417
X5.5315Y-4.3898
X5.5315Y-5.1378
X6.2795Y-3.6417
X6.2795Y-4.3898
X6.2795Y-5.1378
X7.0276Y-3.6417
X7.0276Y-4.3898
X7.0276Y-5.1378
X7.7756Y-3.6417
X7.7756Y-4.3898
X7.7756Y-5.1378
X8.5236Y-3.6417
X8.5236Y-4.3898
X8.5236Y-5.1378
X9.2717Y-3.6417
X9.2717Y-4.3898
X9.2717Y-5.1378
M30
