M48
; DRILL file {KiCad 8.0.6} date 2024-12-27T12:36:30+0000
; FORMAT={-:-/ absolute / inch / decimal}
; #@! TF.CreationDate,2024-12-27T12:36:30+00:00
; #@! TF.GenerationSoftware,Kicad,Pcbnew,8.0.6
; #@! TF.FileFunction,NonPlated,1,2,NPTH
FMAT,2
INCH
; #@! TA.AperFunction,NonPlated,NPTH,ComponentDrill
T1C0.0472
; #@! TA.AperFunction,NonPlated,NPTH,ComponentDrill
T2C0.0689
; #@! TA.AperFunction,NonPlated,NPTH,ComponentDrill
T3C0.1732
%
G90
G05
T1
X8.9118Y-2.2908
X9.1874Y-2.2908
T2
X2.0441Y-3.7402
X2.0441Y-4.4882
X2.0441Y-5.2362
X2.4441Y-3.7402
X2.4441Y-4.4882
X2.4441Y-5.2362
X2.7921Y-3.7402
X2.7921Y-4.4882
X2.7921Y-5.2362
X3.1921Y-3.7402
X3.1921Y-4.4882
X3.1921Y-5.2362
X3.5402Y-3.7402
X3.5402Y-4.4882
X3.5402Y-5.2362
X3.9402Y-3.7402
X3.9402Y-4.4882
X3.9402Y-5.2362
X4.2882Y-3.7402
X4.2882Y-4.4882
X4.2882Y-5.2362
X4.6882Y-3.7402
X4.6882Y-4.4882
X4.6882Y-5.2362
X5.0362Y-3.7402
X5.0362Y-4.4882
X5.0362Y-5.2362
X5.4362Y-3.7402
X5.4362Y-4.4882
X5.4362Y-5.2362
X5.7843Y-3.7402
X5.7843Y-4.4882
X5.7843Y-5.2362
X6.1843Y-3.7402
X6.1843Y-4.4882
X6.1843Y-5.2362
X6.5323Y-3.7402
X6.5323Y-4.4882
X6.5323Y-5.2362
X6.9323Y-3.7402
X6.9323Y-4.4882
X6.9323Y-5.2362
X7.2803Y-3.7402
X7.2803Y-4.4882
X7.2803Y-5.2362
X7.6803Y-3.7402
X7.6803Y-4.4882
X7.6803Y-5.2362
X8.0283Y-3.7402
X8.0283Y-4.4882
X8.0283Y-5.2362
X8.4283Y-3.7402
X8.4283Y-4.4882
X8.4283Y-5.2362
X8.7764Y-3.7402
X8.7764Y-4.4882
X8.7764Y-5.2362
X9.1764Y-3.7402
X9.1764Y-4.4882
X9.1764Y-5.2362
T3
X2.2441Y-3.7402
X2.2441Y-4.4882
X2.2441Y-5.2362
X2.9921Y-3.7402
X2.9921Y-4.4882
X2.9921Y-5.2362
X3.7402Y-3.7402
X3.7402Y-4.4882
X3.7402Y-5.2362
X4.4882Y-3.7402
X4.4882Y-4.4882
X4.4882Y-5.2362
X5.2362Y-3.7402
X5.2362Y-4.4882
X5.2362Y-5.2362
X5.9843Y-3.7402
X5.9843Y-4.4882
X5.9843Y-5.2362
X6.7323Y-3.7402
X6.7323Y-4.4882
X6.7323Y-5.2362
X7.4803Y-3.7402
X7.4803Y-4.4882
X7.4803Y-5.2362
X8.2283Y-3.7402
X8.2283Y-4.4882
X8.2283Y-5.2362
X8.9764Y-3.7402
X8.9764Y-4.4882
X8.9764Y-5.2362
M30
