M48
; DRILL file {KiCad 8.0.6} date 2025-01-18T12:54:04+0000
; FORMAT={-:-/ absolute / inch / decimal}
; #@! TF.CreationDate,2025-01-18T12:54:04+00:00
; #@! TF.GenerationSoftware,Kicad,Pcbnew,8.0.6
; #@! TF.FileFunction,Plated,1,2,PTH
FMAT,2
INCH
; #@! TA.AperFunction,Plated,PTH,ViaDrill
T1C0.0157
; #@! TA.AperFunction,Plated,PTH,ComponentDrill
T2C0.0236
; #@! TA.AperFunction,Plated,PTH,ComponentDrill
T3C0.0276
; #@! TA.AperFunction,Plated,PTH,ComponentDrill
T4C0.0295
; #@! TA.AperFunction,Plated,PTH,ComponentDrill
T5C0.0315
; #@! TA.AperFunction,Plated,PTH,ComponentDrill
T6C0.0354
; #@! TA.AperFunction,Plated,PTH,ComponentDrill
T7C0.0394
; #@! TA.AperFunction,Plated,PTH,ComponentDrill
T8C0.0472
; #@! TA.AperFunction,Plated,PTH,ComponentDrill
T9C0.0512
; #@! TA.AperFunction,Plated,PTH,ComponentDrill
T10C0.0591
; #@! TA.AperFunction,Plated,PTH,ComponentDrill
T11C0.0866
; #@! TA.AperFunction,Plated,PTH,ComponentDrill
T12C0.1260
%
G90
G05
T1
X2.3906Y-1.8465
X2.3906Y-1.9449
X2.3906Y-2.0433
X2.3906Y-2.1417
X2.464Y-2.7951
X2.464Y-2.9201
X2.5087Y-1.8268
X2.5243Y-1.9137
X2.5283Y-2.0039
X2.539Y-2.6701
X2.5453Y-4.0766
X2.6175Y-2.8701
X2.6953Y-1.8516
X2.6953Y-2.0016
X2.6953Y-2.1266
X2.6953Y-2.3016
X2.7225Y-3.9044
X2.7252Y-4.6417
X2.7449Y-4.248
X2.7453Y-4.1266
X2.8039Y-3.9134
X2.84Y-2.79
X2.864Y-2.2451
X2.8953Y-1.8016
X2.8953Y-2.1016
X2.9035Y-2.1949
X2.914Y-3.5502
X2.914Y-3.7201
X2.9363Y-2.323
X2.9668Y-2.3734
X2.9786Y-2.2811
X3.0313Y-4.0004
X3.05Y-4.1594
X3.139Y-3.0701
X3.175Y-2.8451
X3.189Y-2.6951
X3.189Y-3.2951
X3.1953Y-1.6766
X3.2445Y-2.0665
X3.264Y-1.8201
X3.2756Y-1.9665
X3.2796Y-2.0357
X3.314Y-2.4516
X3.3421Y-2.0236
X3.3925Y-2.83
X3.41Y-2.69
X3.414Y-2.9701
X3.4313Y-2.1516
X3.4453Y-2.2766
X3.464Y-3.0016
X3.4854Y-2.1236
X3.489Y-2.0665
X3.5Y-2.83
X3.52Y-2.7
X3.5323Y-3.4213
X3.5354Y-2.0951
X3.5453Y-2.4766
X3.5618Y-3.7067
X3.564Y-2.9951
X3.5827Y-2.8543
X3.6252Y-2.7339
X3.6453Y-1.9912
X3.6504Y-3.6181
X3.6602Y-3.3031
X3.6602Y-3.4016
X3.664Y-3.0016
X3.6811Y-2.8543
X3.6953Y-2.7624
X3.7114Y-4.1201
X3.74Y-3.9037
X3.7453Y-1.9051
X3.7598Y-1.7994
X3.7598Y-3.7697
X3.7953Y-2.8195
X3.8453Y-1.848
X3.8453Y-2.0951
X3.864Y-2.9236
X3.864Y-3.0016
X3.8953Y-1.848
X3.8953Y-1.9766
X3.939Y-3.2951
X3.9453Y-1.8657
X3.9453Y-3.0016
X3.9764Y-2.8543
X3.989Y-4.7951
X4.014Y-2.7801
X4.0434Y-1.8889
X4.0453Y-2.0951
X4.0453Y-2.2766
X4.0453Y-3.0016
X4.0748Y-2.8543
X4.0953Y-1.9766
X4.0953Y-2.6516
X4.114Y-1.6201
X4.114Y-2.1516
X4.1171Y-1.9419
X4.1624Y-3.1082
X4.164Y-1.7951
X4.1704Y-2.0701
X4.214Y-2.1451
X4.2453Y-1.9016
X4.2453Y-1.9766
X4.264Y-2.0951
X4.264Y-3.0815
X4.2953Y-2.1266
X4.314Y-2.1953
X4.314Y-2.9486
X4.3453Y-1.9016
X4.3453Y-1.9766
X4.362Y-2.1055
X4.364Y-3.0604
X4.389Y-3.2951
X4.3953Y-2.1266
X4.414Y-2.1766
X4.414Y-2.9663
X4.4453Y-1.9156
X4.4453Y-1.9766
X4.464Y-2.1266
X4.464Y-3.0415
X4.4882Y-3.9291
X4.514Y-2.1695
X4.514Y-2.9841
X4.5453Y-1.9766
X4.564Y-2.1409
X4.564Y-3.0201
X4.5768Y-2.8543
X4.6146Y-3.0238
X4.6703Y-1.7516
X4.689Y-1.9953
X4.689Y-2.5451
X4.689Y-3.2951
X4.714Y-4.0701
X4.7602Y-1.8951
X4.8075Y-2.6294
X4.8675Y-1.8512
X4.8815Y-2.3146
X4.8853Y-2.3832
X4.9336Y-1.8647
X4.939Y-1.7201
X4.964Y-2.7636
X4.9708Y-1.9165
X4.9716Y-1.7697
X5.0004Y-2.3815
X5.0065Y-2.953
X5.014Y-1.7201
X5.0167Y-3.3516
X5.0219Y-3.9862
X5.0295Y-2.313
X5.0688Y-2.7601
X5.0787Y-3.2951
X5.0953Y-2.3872
X5.1079Y-2.9587
X5.114Y-2.7951
X5.1203Y-4.8516
X5.139Y-2.9829
X5.164Y-1.7201
X5.164Y-3.2951
X5.2055Y-4.7992
X5.239Y-3.2951
X5.2453Y-2.7636
X5.2453Y-3.0006
X5.264Y-2.3736
X5.2657Y-2.313
X5.289Y-4.7951
X5.295Y-4.092
X5.314Y-2.0535
X5.315Y-3.4055
X5.3453Y-3.0183
X5.3589Y-1.9472
X5.374Y-1.6841
X5.4341Y-3.2652
X5.439Y-2.3146
X5.4453Y-3.036
X5.4496Y-2.3736
X5.5118Y-2.5329
X5.5167Y-3.3016
X5.5217Y-3.3801
X5.5366Y-3.0537
X5.5425Y-2.3736
X5.564Y-2.2878
X5.589Y-2.7951
X5.589Y-4.0201
X5.6122Y-2.4024
X5.6417Y-3.0756
X5.664Y-2.2701
X5.6857Y-2.3741
X5.6953Y-2.7636
X5.764Y-2.2524
X5.764Y-2.2951
X5.764Y-2.4327
X5.788Y-2.3721
X5.814Y-4.0201
X5.8489Y-3.1237
X5.864Y-2.2346
X5.864Y-2.2951
X5.864Y-2.4489
X5.8703Y-3.3016
X5.8953Y-2.3717
X5.964Y-2.2201
X5.964Y-2.2951
X5.964Y-2.4764
X5.9953Y-2.3717
X6.0037Y-4.0848
X6.0453Y-2.2437
X6.0453Y-2.3016
X6.064Y-2.4941
X6.089Y-2.3717
X6.164Y-2.1951
X6.164Y-2.2451
X6.164Y-2.2951
X6.164Y-2.5118
X6.164Y-2.9435
X6.189Y-4.0451
X6.2106Y-2.7559
X6.214Y-3.1311
X6.214Y-2.5201
X6.2425Y-2.9612
X6.2453Y-2.2083
X6.264Y-2.2701
X6.264Y-2.5262
X6.2703Y-3.3016
X6.3024Y-2.3741
X6.3189Y-2.7559
X6.3287Y-2.9789
X6.3639Y-2.2818
X6.364Y-2.1451
X6.3703Y-2.0929
X6.394Y-2.4652
X6.3976Y-3.0807
X6.4024Y-2.3741
X6.414Y-2.9201
X6.414Y-3.1201
X6.464Y-2.1701
X6.4644Y-2.2804
X6.4655Y-2.9967
X6.5008Y-2.4667
X6.5024Y-2.3741
X6.514Y-2.5701
X6.514Y-2.9952
X6.514Y-3.1201
X6.5453Y-3.0736
X6.564Y-2.1951
X6.567Y-2.2804
X6.589Y-2.3717
X6.5925Y-2.9952
X6.5959Y-2.4671
X6.614Y-2.5701
X6.6203Y-3.3016
X6.6348Y-3.0263
X6.6425Y-2.2236
X6.689Y-2.7451
X6.689Y-3.0201
X6.7023Y-2.3739
X6.7024Y-2.4667
X6.714Y-2.5701
X6.764Y-2.1351
X6.764Y-2.2843
X6.7855Y-2.3717
X6.7879Y-2.7824
X6.8095Y-1.7107
X6.8238Y-2.9953
X6.83Y-2.17
X6.8425Y-1.9501
X6.8504Y-1.6929
X6.864Y-2.5766
X6.8701Y-3.1988
X6.8707Y-2.4683
X6.8996Y-3.1201
X6.964Y-2.3717
X6.9783Y-3.5138
X6.985Y-2.13
X6.986Y-2.4856
X6.9953Y-3.3016
X6.9988Y-3.0201
X7.009Y-1.9583
X7.0774Y-3.2098
X7.0881Y-2.3942
X7.0892Y-2.898
X7.1047Y-2.6518
X7.1118Y-2.3627
X7.114Y-2.5451
X7.1203Y-2.7266
X7.1203Y-2.9766
X7.1203Y-3.2016
X7.1453Y-3.0516
X7.1583Y-2.873
X7.1703Y-3.1516
X7.2343Y-3.4154
X7.3138Y-2.4697
X7.3203Y-3.4516
X7.339Y-4.0201
X7.3453Y-2.8766
X7.3453Y-3.0016
X7.3453Y-3.1266
X7.3953Y-2.1488
X7.4016Y-3.4154
X7.4203Y-3.3016
X7.4203Y-3.7266
X7.445Y-2.4385
X7.514Y-2.1451
X7.5203Y-2.6766
X7.5203Y-2.8016
X7.5311Y-2.586
X7.5644Y-2.986
X7.5703Y-2.4701
X7.614Y-1.8951
X7.6203Y-2.6766
X7.6203Y-2.9016
X7.669Y-1.9501
X7.6703Y-2.1665
X7.714Y-4.0451
X7.7559Y-3.4252
X7.7703Y-3.3016
X7.799Y-2.1601
X7.8275Y-2.4135
X7.829Y-2.5101
X7.829Y-2.6701
X7.829Y-2.7801
X7.914Y-2.1551
X7.914Y-2.2301
X8.01Y-2.235
X8.0203Y-2.9766
X8.0203Y-3.0766
X8.0591Y-2.425
X8.075Y-2.07
X8.114Y-4.0401
X8.1203Y-2.6016
X8.1203Y-2.7266
X8.1203Y-3.4516
X8.1238Y-3.0266
X8.1445Y-3.0745
X8.1525Y-2.8679
X8.164Y-2.5201
X8.1953Y-3.3016
X8.2087Y-1.6339
X8.289Y-2.6201
X8.339Y-1.8951
X8.339Y-2.3451
X8.339Y-2.7201
X8.3453Y-2.8266
X8.3453Y-2.9266
X8.439Y-3.2951
X8.4953Y-3.4266
X8.5453Y-2.4016
X8.614Y-2.0451
X8.639Y-1.7951
X8.6953Y-4.6516
X8.714Y-4.1951
X8.739Y-1.7951
X8.739Y-1.9951
X8.749Y-3.4516
X8.889Y-4.1301
X8.98Y-4.02
X9.0205Y-3.3801
X9.0354Y-4.0354
X9.0703Y-3.8016
X9.1339Y-3.2087
X9.1703Y-2.6016
X9.21Y-2.81
X9.2323Y-3.2087
X9.25Y-3.81
X9.3735Y-4.7909
X9.464Y-3.5701
X9.5079Y-5.374
X9.5276Y-4.1929
X9.5669Y-4.028
T2
X8.6549Y-1.8951
X8.714Y-1.8951
T3
X6.914Y-2.0201
X6.914Y-2.3201
X8.264Y-1.9951
X8.564Y-1.9951
X8.8185Y-1.8504
X8.8185Y-1.937
X8.8185Y-2.0236
X8.8185Y-2.1102
X8.8185Y-2.1969
X8.8185Y-2.2835
X9.1185Y-1.8504
X9.1185Y-1.937
X9.1185Y-2.0236
X9.1185Y-2.1102
X9.1185Y-2.1969
X9.1185Y-2.2835
T4
X2.9Y-2.8346
X2.9Y-2.9346
X2.9Y-3.0346
X3.0Y-2.8346
X3.0Y-2.9346
X3.0Y-3.0346
T5
X2.289Y-1.7451
X2.289Y-1.8451
X2.289Y-1.9451
X2.289Y-2.0451
X2.289Y-2.1451
X2.289Y-2.2451
X2.289Y-2.3451
X2.289Y-2.4451
X2.3703Y-3.3071
X2.3953Y-3.9766
X2.3953Y-4.8016
X2.4969Y-1.6266
X2.589Y-1.7451
X2.589Y-1.8451
X2.589Y-1.9451
X2.589Y-2.0451
X2.589Y-2.1451
X2.589Y-2.2451
X2.589Y-2.3451
X2.589Y-2.4451
X2.5953Y-1.6266
X2.6703Y-3.3071
X2.6953Y-3.9766
X2.6953Y-4.8016
X2.789Y-1.7451
X2.789Y-1.8451
X2.789Y-1.9451
X2.789Y-2.0451
X2.789Y-2.1451
X2.789Y-2.2451
X2.789Y-2.3451
X2.789Y-2.4451
X2.914Y-3.4951
X2.914Y-3.7951
X2.9703Y-2.5774
X2.9703Y-2.6758
X2.9969Y-1.6266
X3.089Y-1.7451
X3.089Y-1.8451
X3.089Y-1.9451
X3.089Y-2.0451
X3.089Y-2.1451
X3.089Y-2.2451
X3.089Y-2.3451
X3.089Y-2.4451
X3.0953Y-1.6266
X3.114Y-2.5701
X3.114Y-3.1701
X3.1203Y-3.3071
X3.1203Y-4.0516
X3.1203Y-4.7266
X3.214Y-2.5701
X3.214Y-3.1701
X3.2969Y-1.6266
X3.314Y-1.7451
X3.314Y-2.3451
X3.314Y-2.5701
X3.314Y-3.1701
X3.3953Y-1.6266
X3.414Y-1.7451
X3.414Y-2.3451
X3.414Y-2.5701
X3.414Y-3.1701
X3.4203Y-3.3071
X3.4203Y-4.0516
X3.4203Y-4.7266
X3.514Y-1.7451
X3.514Y-2.3451
X3.514Y-2.5701
X3.514Y-3.1701
X3.614Y-1.6339
X3.614Y-1.7451
X3.614Y-2.3451
X3.614Y-2.5701
X3.614Y-3.1701
X3.6614Y-3.4917
X3.6614Y-3.7917
X3.714Y-1.6339
X3.714Y-1.7451
X3.714Y-2.3451
X3.714Y-2.5701
X3.714Y-3.1701
X3.814Y-1.6339
X3.814Y-1.7451
X3.814Y-2.3451
X3.814Y-2.5701
X3.814Y-3.1701
X3.8703Y-3.3071
X3.8703Y-3.9766
X3.8953Y-4.8016
X3.914Y-1.6339
X3.914Y-1.7451
X3.914Y-2.3451
X3.914Y-2.5701
X3.914Y-3.1701
X4.014Y-1.6339
X4.014Y-1.7451
X4.014Y-2.3451
X4.014Y-2.5701
X4.014Y-3.1701
X4.114Y-1.7451
X4.114Y-2.3451
X4.114Y-2.5701
X4.114Y-3.1701
X4.1703Y-3.3071
X4.1703Y-3.9766
X4.1953Y-4.8016
X4.214Y-1.6339
X4.214Y-1.7451
X4.214Y-2.3451
X4.214Y-2.5701
X4.214Y-3.1701
X4.314Y-1.6339
X4.314Y-1.7451
X4.314Y-2.3451
X4.314Y-2.5701
X4.314Y-3.1701
X4.4094Y-3.4917
X4.4094Y-3.7917
X4.414Y-1.6339
X4.414Y-1.7451
X4.414Y-2.3451
X4.414Y-2.5701
X4.414Y-3.1701
X4.514Y-1.6339
X4.514Y-1.7451
X4.514Y-2.3451
X4.514Y-2.5701
X4.514Y-3.1701
X4.614Y-1.6339
X4.614Y-1.7451
X4.614Y-2.3451
X4.614Y-2.5701
X4.614Y-3.1701
X4.6203Y-3.3071
X4.6203Y-4.7266
X4.6453Y-4.0551
X4.739Y-2.7717
X4.739Y-2.8701
X4.864Y-2.0201
X4.864Y-2.6201
X4.864Y-2.8701
X4.864Y-3.1701
X4.9203Y-3.3071
X4.9203Y-4.7266
X4.9453Y-4.0551
X4.964Y-2.0201
X4.964Y-2.6201
X4.964Y-2.8701
X4.964Y-3.1701
X5.064Y-2.0201
X5.064Y-2.6201
X5.064Y-2.8701
X5.064Y-3.1701
X5.1575Y-3.5016
X5.1575Y-3.8016
X5.164Y-2.0201
X5.164Y-2.6201
X5.164Y-2.8701
X5.164Y-3.1701
X5.264Y-2.0201
X5.264Y-2.6201
X5.264Y-2.8701
X5.264Y-3.1701
X5.364Y-2.0201
X5.364Y-2.6201
X5.364Y-2.8701
X5.364Y-3.1701
X5.3703Y-3.3071
X5.3703Y-4.8031
X5.3705Y-3.9766
X5.464Y-2.0201
X5.464Y-2.6201
X5.464Y-2.8701
X5.464Y-3.1701
X5.564Y-2.0201
X5.564Y-2.6201
X5.564Y-2.8701
X5.564Y-3.1701
X5.664Y-2.0201
X5.664Y-2.6201
X5.664Y-2.8701
X5.664Y-3.1701
X5.6703Y-3.3071
X5.6703Y-4.8031
X5.6705Y-3.9766
X5.764Y-2.0201
X5.764Y-2.6201
X5.764Y-2.8701
X5.764Y-3.1701
X5.864Y-2.0201
X5.864Y-2.6201
X5.8768Y-2.7757
X5.8768Y-2.8741
X5.9055Y-3.5016
X5.9055Y-3.8016
X5.9599Y-2.7752
X5.9599Y-2.8736
X5.964Y-2.0201
X5.964Y-2.6201
X6.064Y-2.0201
X6.064Y-2.6201
X6.064Y-2.8701
X6.064Y-3.1701
X6.1185Y-4.0551
X6.1203Y-4.7266
X6.1453Y-3.3016
X6.164Y-2.0201
X6.164Y-2.6201
X6.164Y-2.8701
X6.164Y-3.1701
X6.264Y-2.0201
X6.264Y-2.6201
X6.264Y-2.8701
X6.264Y-3.1701
X6.364Y-2.0201
X6.364Y-2.6201
X6.364Y-2.8701
X6.364Y-3.1701
X6.4185Y-4.0551
X6.4203Y-4.7266
X6.4453Y-3.3016
X6.464Y-2.0201
X6.464Y-2.6201
X6.464Y-2.8701
X6.464Y-3.1701
X6.564Y-2.0201
X6.564Y-2.6201
X6.564Y-2.8701
X6.564Y-3.1701
X6.6535Y-3.5016
X6.6535Y-3.8016
X6.664Y-2.0201
X6.664Y-2.6201
X6.664Y-2.8701
X6.664Y-3.1701
X6.764Y-2.0201
X6.764Y-2.6201
X6.764Y-2.8701
X6.764Y-3.1701
X6.8703Y-3.3016
X6.8703Y-4.8031
X6.8764Y-3.9766
X6.939Y-2.5701
X6.939Y-2.6701
X6.939Y-2.7701
X6.939Y-2.8701
X6.939Y-2.9701
X6.939Y-3.0701
X6.939Y-3.1701
X7.1453Y-2.4466
X7.1648Y-2.0201
X7.1703Y-3.3016
X7.1703Y-4.8031
X7.1764Y-3.9766
X7.239Y-2.5701
X7.239Y-2.6701
X7.239Y-2.7701
X7.239Y-2.8701
X7.239Y-2.9701
X7.239Y-3.0701
X7.239Y-3.1701
X7.2437Y-2.4466
X7.2632Y-2.0201
X7.414Y-2.0201
X7.414Y-2.3201
X7.439Y-2.5701
X7.439Y-2.6701
X7.439Y-2.7701
X7.439Y-2.8701
X7.439Y-2.9701
X7.439Y-3.0701
X7.439Y-3.1701
X7.514Y-2.0201
X7.514Y-2.3201
X7.614Y-2.0201
X7.614Y-2.3201
X7.6203Y-3.3071
X7.6203Y-4.0551
X7.6203Y-4.7266
X7.6469Y-2.4516
X7.714Y-2.0201
X7.714Y-2.3201
X7.739Y-2.5701
X7.739Y-2.6701
X7.739Y-2.7701
X7.739Y-2.8701
X7.739Y-2.9701
X7.739Y-3.0701
X7.739Y-3.1701
X7.7453Y-2.4516
X7.814Y-2.0201
X7.814Y-2.3201
X7.914Y-2.0201
X7.914Y-2.3201
X7.9203Y-3.3071
X7.9203Y-4.0551
X7.9203Y-4.7266
X7.939Y-2.4701
X7.939Y-2.5701
X7.939Y-2.6701
X7.939Y-2.7701
X7.939Y-2.8701
X7.939Y-2.9701
X7.939Y-3.0701
X7.939Y-3.1701
X8.014Y-2.0201
X8.014Y-2.3201
X8.1238Y-2.1201
X8.1238Y-2.2185
X8.1469Y-2.3451
X8.239Y-2.4701
X8.239Y-2.5701
X8.239Y-2.6701
X8.239Y-2.7701
X8.239Y-2.8701
X8.239Y-2.9701
X8.239Y-3.0701
X8.239Y-3.1701
X8.2453Y-2.3451
X8.3238Y-2.1701
X8.3703Y-3.3071
X8.3703Y-3.9766
X8.3703Y-4.8031
X8.439Y-2.4701
X8.439Y-2.5701
X8.439Y-2.6701
X8.439Y-2.7701
X8.439Y-2.8701
X8.439Y-2.9701
X8.439Y-3.0701
X8.439Y-3.1701
X8.5159Y-2.1701
X8.6398Y-2.3451
X8.6703Y-3.3071
X8.6703Y-3.9766
X8.6703Y-4.8031
X8.714Y-2.1209
X8.714Y-2.2193
X8.7382Y-2.3451
X8.739Y-2.4701
X8.739Y-2.5701
X8.739Y-2.6701
X8.739Y-2.7701
X8.739Y-2.8701
X8.739Y-2.9701
X8.739Y-3.0701
X8.739Y-3.1701
X8.864Y-2.4409
X8.864Y-2.5409
X8.864Y-2.6409
X8.864Y-2.7409
X8.864Y-2.8409
X8.864Y-2.9409
X8.864Y-3.0409
X8.889Y-3.4951
X8.889Y-3.7951
X9.1203Y-3.3016
X9.1203Y-4.0516
X9.1203Y-4.7266
X9.309Y-2.4701
X9.3877Y-2.4701
X9.4203Y-3.3016
X9.4203Y-4.0516
X9.4203Y-4.7266
T6
X8.5917Y-1.6913
X8.6917Y-1.6913
X8.8977Y-1.695
X8.9764Y-1.695
X9.0552Y-1.695
T7
X2.6858Y-2.7071
X2.6858Y-2.8161
X2.6858Y-2.9252
X2.6858Y-3.0343
X2.7858Y-2.6526
X2.7858Y-2.7616
X2.7858Y-2.8707
X2.7858Y-2.9797
X2.7858Y-3.0888
X5.1055Y-1.7601
X5.1055Y-1.8601
X5.2055Y-1.7601
X5.2055Y-1.8601
X5.3055Y-1.7601
X5.3055Y-1.8601
X5.4055Y-1.7601
X5.4055Y-1.8601
X5.5055Y-1.7601
X5.5055Y-1.8601
X5.6055Y-1.7601
X5.6055Y-1.8601
X5.7055Y-1.7601
X5.7055Y-1.8601
X5.8055Y-1.7601
X5.8055Y-1.8601
X5.9055Y-1.7601
X5.9055Y-1.8601
X6.0055Y-1.7601
X6.0055Y-1.8601
X6.1055Y-1.7601
X6.1055Y-1.8601
X6.2055Y-1.7601
X6.2055Y-1.8601
X6.3055Y-1.7601
X6.3055Y-1.8601
X6.4055Y-1.7601
X6.4055Y-1.8601
X6.5055Y-1.7601
X6.5055Y-1.8601
X6.6055Y-1.7601
X6.6055Y-1.8601
X6.7055Y-1.7601
X6.7055Y-1.8601
X7.064Y-2.1451
X7.064Y-2.2451
X7.164Y-2.1451
X7.164Y-2.2451
X7.264Y-2.1451
X7.264Y-2.2451
X7.3461Y-1.7628
X7.3912Y-1.6849
X7.3912Y-1.8408
X7.4363Y-1.7628
X7.4814Y-1.6849
X7.4814Y-1.8408
X7.5265Y-1.7628
X7.5715Y-1.6849
X7.5715Y-1.8408
X7.6166Y-1.7628
X7.6617Y-1.6849
X7.6617Y-1.8408
X7.7068Y-1.7628
X7.7519Y-1.6849
X7.7519Y-1.8408
X8.2933Y-1.7333
X8.4705Y-1.7333
X9.0205Y-2.6535
X9.0205Y-2.7626
X9.0205Y-2.8717
X9.0205Y-2.9807
X9.0205Y-3.0898
X9.026Y-2.4724
X9.1205Y-2.7081
X9.1205Y-2.8171
X9.1205Y-2.9262
X9.1205Y-3.0352
X9.152Y-2.4724
T8
X2.5394Y-3.8976
X2.5394Y-4.6457
X2.5394Y-5.3937
X2.689Y-3.7913
X2.689Y-4.5394
X2.689Y-5.2874
X3.2874Y-3.8976
X3.2874Y-4.6457
X3.2874Y-5.3937
X3.437Y-3.7913
X3.437Y-4.5394
X3.437Y-5.2874
X4.0354Y-3.8976
X4.0354Y-4.6457
X4.0354Y-5.3937
X4.185Y-3.7913
X4.185Y-4.5394
X4.185Y-5.2874
X4.7835Y-3.8976
X4.7835Y-4.6457
X4.7835Y-5.3937
X4.9331Y-3.7913
X4.9331Y-4.5394
X4.9331Y-5.2874
X5.5315Y-3.8976
X5.5315Y-4.6457
X5.5315Y-5.3937
X5.6811Y-3.7913
X5.6811Y-4.5394
X5.6811Y-5.2874
X6.2795Y-3.8976
X6.2795Y-4.6457
X6.2795Y-5.3937
X6.4291Y-3.7913
X6.4291Y-4.5394
X6.4291Y-5.2874
X7.0276Y-3.8976
X7.0276Y-4.6457
X7.0276Y-5.3937
X7.1772Y-3.7913
X7.1772Y-4.5394
X7.1772Y-5.2874
X7.7756Y-3.8976
X7.7756Y-4.6457
X7.7756Y-5.3937
X7.9252Y-3.7913
X7.9252Y-4.5394
X7.9252Y-5.2874
X8.5236Y-3.8976
X8.5236Y-4.6457
X8.5236Y-5.3937
X8.6732Y-3.7913
X8.6732Y-4.5394
X8.6732Y-5.2874
X9.2717Y-3.8976
X9.2717Y-4.6457
X9.2717Y-5.3937
X9.4213Y-3.7913
X9.4213Y-4.5394
X9.4213Y-5.2874
T9
X8.2441Y-1.8317
X8.5197Y-1.8317
T10
X2.3894Y-3.5417
X2.3894Y-4.2898
X2.3894Y-5.0378
X2.6394Y-3.4417
X2.6394Y-4.1898
X2.6394Y-4.9378
X3.1374Y-3.5417
X3.1374Y-4.2898
X3.1374Y-5.0378
X3.3874Y-3.4417
X3.3874Y-4.1898
X3.3874Y-4.9378
X3.8854Y-3.5417
X3.8854Y-4.2898
X3.8854Y-5.0378
X4.1354Y-3.4417
X4.1354Y-4.1898
X4.1354Y-4.9378
X4.6335Y-3.5417
X4.6335Y-4.2898
X4.6335Y-5.0378
X4.8835Y-3.4417
X4.8835Y-4.1898
X4.8835Y-4.9378
X5.3815Y-3.5417
X5.3815Y-4.2898
X5.3815Y-5.0378
X5.6315Y-3.4417
X5.6315Y-4.1898
X5.6315Y-4.9378
X6.1295Y-3.5417
X6.1295Y-4.2898
X6.1295Y-5.0378
X6.3795Y-3.4417
X6.3795Y-4.1898
X6.3795Y-4.9378
X6.8776Y-3.5417
X6.8776Y-4.2898
X6.8776Y-5.0378
X7.1276Y-3.4417
X7.1276Y-4.1898
X7.1276Y-4.9378
X7.6256Y-3.5417
X7.6256Y-4.2898
X7.6256Y-5.0378
X7.8756Y-3.4417
X7.8756Y-4.1898
X7.8756Y-4.9378
X8.3736Y-3.5417
X8.3736Y-4.2898
X8.3736Y-5.0378
X8.6236Y-3.4417
X8.6236Y-4.1898
X8.6236Y-4.9378
X8.815Y-1.695
X9.1217Y-3.5417
X9.1217Y-4.2898
X9.1217Y-5.0378
X9.1378Y-1.695
X9.3717Y-3.4417
X9.3717Y-4.1898
X9.3717Y-4.9378
T11
X2.9134Y-3.189
X2.9134Y-4.7638
X8.8953Y-3.189
X8.8976Y-4.7638
T12
X7.069Y-1.7601
X8.0532Y-1.7601
T2
G00X9.2307Y-2.0714
M15
G01X9.2071Y-2.0714
M16
G05
G00X9.2898Y-2.2486
M15
G01X9.2662Y-2.2486
M16
G05
G00X9.4473Y-2.2486
M15
G01X9.4237Y-2.2486
M16
G05
G00X9.5654Y-2.2486
M15
G01X9.5418Y-2.2486
M16
G05
T7
G00X9.2606Y-1.8892
M15
G01X9.2606Y-1.8026
M16
G05
G00X9.4929Y-1.712
M15
G01X9.4063Y-1.712
M16
G05
G00X9.5007Y-1.9601
M15
G01X9.3984Y-1.9601
M16
G05
M30
