%TF.GenerationSoftware,KiCad,Pcbnew,8.0.6*%
%TF.CreationDate,2025-01-17T17:22:04+00:00*%
%TF.ProjectId,back,6261636b-2e6b-4696-9361-645f70636258,rev?*%
%TF.SameCoordinates,Original*%
%TF.FileFunction,Legend,Bot*%
%TF.FilePolarity,Positive*%
%FSLAX46Y46*%
G04 Gerber Fmt 4.6, Leading zero omitted, Abs format (unit mm)*
G04 Created by KiCad (PCBNEW 8.0.6) date 2025-01-17 17:22:04*
%MOMM*%
%LPD*%
G01*
G04 APERTURE LIST*
%ADD10C,0.200000*%
G04 APERTURE END LIST*
D10*
X255309523Y-106052219D02*
X255785713Y-106052219D01*
X255785713Y-106052219D02*
X255833332Y-106528409D01*
X255833332Y-106528409D02*
X255785713Y-106480790D01*
X255785713Y-106480790D02*
X255690475Y-106433171D01*
X255690475Y-106433171D02*
X255452380Y-106433171D01*
X255452380Y-106433171D02*
X255357142Y-106480790D01*
X255357142Y-106480790D02*
X255309523Y-106528409D01*
X255309523Y-106528409D02*
X255261904Y-106623647D01*
X255261904Y-106623647D02*
X255261904Y-106861742D01*
X255261904Y-106861742D02*
X255309523Y-106956980D01*
X255309523Y-106956980D02*
X255357142Y-107004600D01*
X255357142Y-107004600D02*
X255452380Y-107052219D01*
X255452380Y-107052219D02*
X255690475Y-107052219D01*
X255690475Y-107052219D02*
X255785713Y-107004600D01*
X255785713Y-107004600D02*
X255833332Y-106956980D01*
X254976189Y-106052219D02*
X254642856Y-107052219D01*
X254642856Y-107052219D02*
X254309523Y-106052219D01*
X253976189Y-106671266D02*
X253214285Y-106671266D01*
X253595237Y-107052219D02*
X253595237Y-106290314D01*
X168504761Y-106528409D02*
X168171428Y-106528409D01*
X168028571Y-107052219D02*
X168504761Y-107052219D01*
X168504761Y-107052219D02*
X168504761Y-106052219D01*
X168504761Y-106052219D02*
X168028571Y-106052219D01*
X167695237Y-106052219D02*
X167028571Y-107052219D01*
X167028571Y-106052219D02*
X167695237Y-107052219D01*
X166647618Y-107052219D02*
X166647618Y-106052219D01*
X166647618Y-106052219D02*
X166266666Y-106052219D01*
X166266666Y-106052219D02*
X166171428Y-106099838D01*
X166171428Y-106099838D02*
X166123809Y-106147457D01*
X166123809Y-106147457D02*
X166076190Y-106242695D01*
X166076190Y-106242695D02*
X166076190Y-106385552D01*
X166076190Y-106385552D02*
X166123809Y-106480790D01*
X166123809Y-106480790D02*
X166171428Y-106528409D01*
X166171428Y-106528409D02*
X166266666Y-106576028D01*
X166266666Y-106576028D02*
X166647618Y-106576028D01*
X165695237Y-106766504D02*
X165219047Y-106766504D01*
X165790475Y-107052219D02*
X165457142Y-106052219D01*
X165457142Y-106052219D02*
X165123809Y-107052219D01*
X164790475Y-107052219D02*
X164790475Y-106052219D01*
X164790475Y-106052219D02*
X164219047Y-107052219D01*
X164219047Y-107052219D02*
X164219047Y-106052219D01*
X163790475Y-107004600D02*
X163647618Y-107052219D01*
X163647618Y-107052219D02*
X163409523Y-107052219D01*
X163409523Y-107052219D02*
X163314285Y-107004600D01*
X163314285Y-107004600D02*
X163266666Y-106956980D01*
X163266666Y-106956980D02*
X163219047Y-106861742D01*
X163219047Y-106861742D02*
X163219047Y-106766504D01*
X163219047Y-106766504D02*
X163266666Y-106671266D01*
X163266666Y-106671266D02*
X163314285Y-106623647D01*
X163314285Y-106623647D02*
X163409523Y-106576028D01*
X163409523Y-106576028D02*
X163599999Y-106528409D01*
X163599999Y-106528409D02*
X163695237Y-106480790D01*
X163695237Y-106480790D02*
X163742856Y-106433171D01*
X163742856Y-106433171D02*
X163790475Y-106337933D01*
X163790475Y-106337933D02*
X163790475Y-106242695D01*
X163790475Y-106242695D02*
X163742856Y-106147457D01*
X163742856Y-106147457D02*
X163695237Y-106099838D01*
X163695237Y-106099838D02*
X163599999Y-106052219D01*
X163599999Y-106052219D02*
X163361904Y-106052219D01*
X163361904Y-106052219D02*
X163219047Y-106099838D01*
X162790475Y-107052219D02*
X162790475Y-106052219D01*
X162123809Y-106052219D02*
X161933333Y-106052219D01*
X161933333Y-106052219D02*
X161838095Y-106099838D01*
X161838095Y-106099838D02*
X161742857Y-106195076D01*
X161742857Y-106195076D02*
X161695238Y-106385552D01*
X161695238Y-106385552D02*
X161695238Y-106718885D01*
X161695238Y-106718885D02*
X161742857Y-106909361D01*
X161742857Y-106909361D02*
X161838095Y-107004600D01*
X161838095Y-107004600D02*
X161933333Y-107052219D01*
X161933333Y-107052219D02*
X162123809Y-107052219D01*
X162123809Y-107052219D02*
X162219047Y-107004600D01*
X162219047Y-107004600D02*
X162314285Y-106909361D01*
X162314285Y-106909361D02*
X162361904Y-106718885D01*
X162361904Y-106718885D02*
X162361904Y-106385552D01*
X162361904Y-106385552D02*
X162314285Y-106195076D01*
X162314285Y-106195076D02*
X162219047Y-106099838D01*
X162219047Y-106099838D02*
X162123809Y-106052219D01*
X161266666Y-107052219D02*
X161266666Y-106052219D01*
X161266666Y-106052219D02*
X160695238Y-107052219D01*
X160695238Y-107052219D02*
X160695238Y-106052219D01*
X244780952Y-106052219D02*
X244590476Y-106052219D01*
X244590476Y-106052219D02*
X244495238Y-106099838D01*
X244495238Y-106099838D02*
X244400000Y-106195076D01*
X244400000Y-106195076D02*
X244352381Y-106385552D01*
X244352381Y-106385552D02*
X244352381Y-106718885D01*
X244352381Y-106718885D02*
X244400000Y-106909361D01*
X244400000Y-106909361D02*
X244495238Y-107004600D01*
X244495238Y-107004600D02*
X244590476Y-107052219D01*
X244590476Y-107052219D02*
X244780952Y-107052219D01*
X244780952Y-107052219D02*
X244876190Y-107004600D01*
X244876190Y-107004600D02*
X244971428Y-106909361D01*
X244971428Y-106909361D02*
X245019047Y-106718885D01*
X245019047Y-106718885D02*
X245019047Y-106385552D01*
X245019047Y-106385552D02*
X244971428Y-106195076D01*
X244971428Y-106195076D02*
X244876190Y-106099838D01*
X244876190Y-106099838D02*
X244780952Y-106052219D01*
X243923809Y-107052219D02*
X243923809Y-106052219D01*
X243923809Y-106052219D02*
X243352381Y-107052219D01*
X243352381Y-107052219D02*
X243352381Y-106052219D01*
X241923809Y-106052219D02*
X241733333Y-106052219D01*
X241733333Y-106052219D02*
X241638095Y-106099838D01*
X241638095Y-106099838D02*
X241542857Y-106195076D01*
X241542857Y-106195076D02*
X241495238Y-106385552D01*
X241495238Y-106385552D02*
X241495238Y-106718885D01*
X241495238Y-106718885D02*
X241542857Y-106909361D01*
X241542857Y-106909361D02*
X241638095Y-107004600D01*
X241638095Y-107004600D02*
X241733333Y-107052219D01*
X241733333Y-107052219D02*
X241923809Y-107052219D01*
X241923809Y-107052219D02*
X242019047Y-107004600D01*
X242019047Y-107004600D02*
X242114285Y-106909361D01*
X242114285Y-106909361D02*
X242161904Y-106718885D01*
X242161904Y-106718885D02*
X242161904Y-106385552D01*
X242161904Y-106385552D02*
X242114285Y-106195076D01*
X242114285Y-106195076D02*
X242019047Y-106099838D01*
X242019047Y-106099838D02*
X241923809Y-106052219D01*
X240733333Y-106528409D02*
X241066666Y-106528409D01*
X241066666Y-107052219D02*
X241066666Y-106052219D01*
X241066666Y-106052219D02*
X240590476Y-106052219D01*
X239876190Y-106528409D02*
X240209523Y-106528409D01*
X240209523Y-107052219D02*
X240209523Y-106052219D01*
X240209523Y-106052219D02*
X239733333Y-106052219D01*
X228752381Y-107052219D02*
X229085714Y-106576028D01*
X229323809Y-107052219D02*
X229323809Y-106052219D01*
X229323809Y-106052219D02*
X228942857Y-106052219D01*
X228942857Y-106052219D02*
X228847619Y-106099838D01*
X228847619Y-106099838D02*
X228800000Y-106147457D01*
X228800000Y-106147457D02*
X228752381Y-106242695D01*
X228752381Y-106242695D02*
X228752381Y-106385552D01*
X228752381Y-106385552D02*
X228800000Y-106480790D01*
X228800000Y-106480790D02*
X228847619Y-106528409D01*
X228847619Y-106528409D02*
X228942857Y-106576028D01*
X228942857Y-106576028D02*
X229323809Y-106576028D01*
X228323809Y-106528409D02*
X227990476Y-106528409D01*
X227847619Y-107052219D02*
X228323809Y-107052219D01*
X228323809Y-107052219D02*
X228323809Y-106052219D01*
X228323809Y-106052219D02*
X227847619Y-106052219D01*
X227466666Y-107004600D02*
X227323809Y-107052219D01*
X227323809Y-107052219D02*
X227085714Y-107052219D01*
X227085714Y-107052219D02*
X226990476Y-107004600D01*
X226990476Y-107004600D02*
X226942857Y-106956980D01*
X226942857Y-106956980D02*
X226895238Y-106861742D01*
X226895238Y-106861742D02*
X226895238Y-106766504D01*
X226895238Y-106766504D02*
X226942857Y-106671266D01*
X226942857Y-106671266D02*
X226990476Y-106623647D01*
X226990476Y-106623647D02*
X227085714Y-106576028D01*
X227085714Y-106576028D02*
X227276190Y-106528409D01*
X227276190Y-106528409D02*
X227371428Y-106480790D01*
X227371428Y-106480790D02*
X227419047Y-106433171D01*
X227419047Y-106433171D02*
X227466666Y-106337933D01*
X227466666Y-106337933D02*
X227466666Y-106242695D01*
X227466666Y-106242695D02*
X227419047Y-106147457D01*
X227419047Y-106147457D02*
X227371428Y-106099838D01*
X227371428Y-106099838D02*
X227276190Y-106052219D01*
X227276190Y-106052219D02*
X227038095Y-106052219D01*
X227038095Y-106052219D02*
X226895238Y-106099838D01*
X226466666Y-106528409D02*
X226133333Y-106528409D01*
X225990476Y-107052219D02*
X226466666Y-107052219D01*
X226466666Y-107052219D02*
X226466666Y-106052219D01*
X226466666Y-106052219D02*
X225990476Y-106052219D01*
X225704761Y-106052219D02*
X225133333Y-106052219D01*
X225419047Y-107052219D02*
X225419047Y-106052219D01*
X207561904Y-106052219D02*
X207228571Y-107052219D01*
X207228571Y-107052219D02*
X206895238Y-106052219D01*
X206038095Y-106099838D02*
X206133333Y-106052219D01*
X206133333Y-106052219D02*
X206276190Y-106052219D01*
X206276190Y-106052219D02*
X206419047Y-106099838D01*
X206419047Y-106099838D02*
X206514285Y-106195076D01*
X206514285Y-106195076D02*
X206561904Y-106290314D01*
X206561904Y-106290314D02*
X206609523Y-106480790D01*
X206609523Y-106480790D02*
X206609523Y-106623647D01*
X206609523Y-106623647D02*
X206561904Y-106814123D01*
X206561904Y-106814123D02*
X206514285Y-106909361D01*
X206514285Y-106909361D02*
X206419047Y-107004600D01*
X206419047Y-107004600D02*
X206276190Y-107052219D01*
X206276190Y-107052219D02*
X206180952Y-107052219D01*
X206180952Y-107052219D02*
X206038095Y-107004600D01*
X206038095Y-107004600D02*
X205990476Y-106956980D01*
X205990476Y-106956980D02*
X205990476Y-106623647D01*
X205990476Y-106623647D02*
X206180952Y-106623647D01*
X205609523Y-106766504D02*
X205133333Y-106766504D01*
X205704761Y-107052219D02*
X205371428Y-106052219D01*
X205371428Y-106052219D02*
X205038095Y-107052219D01*
M02*
