%TF.GenerationSoftware,KiCad,Pcbnew,8.0.6*%
%TF.CreationDate,2025-01-17T17:33:12+00:00*%
%TF.ProjectId,bottom,626f7474-6f6d-42e6-9b69-6361645f7063,rev?*%
%TF.SameCoordinates,Original*%
%TF.FileFunction,Copper,L1,Top*%
%TF.FilePolarity,Positive*%
%FSLAX46Y46*%
G04 Gerber Fmt 4.6, Leading zero omitted, Abs format (unit mm)*
G04 Created by KiCad (PCBNEW 8.0.6) date 2025-01-17 17:33:12*
%MOMM*%
%LPD*%
G01*
G04 APERTURE LIST*
%TA.AperFunction,ComponentPad*%
%ADD10C,6.000000*%
%TD*%
%TA.AperFunction,ComponentPad*%
%ADD11C,3.500000*%
%TD*%
G04 APERTURE END LIST*
D10*
%TO.P,H2,1*%
%TO.N,GND*%
X74500000Y-121200000D03*
%TD*%
D11*
%TO.P,H6,1,1*%
%TO.N,GND*%
X88500000Y-197200000D03*
%TD*%
%TO.P,H7,1,1*%
%TO.N,GND*%
X88500000Y-157200000D03*
%TD*%
D10*
%TO.P,H1,1*%
%TO.N,GND*%
X74500000Y-211200000D03*
%TD*%
%TO.P,H4,1*%
%TO.N,GND*%
X254500000Y-211200000D03*
%TD*%
D11*
%TO.P,H5,1,1*%
%TO.N,GND*%
X240500000Y-197200000D03*
%TD*%
%TO.P,H8,1,1*%
%TO.N,GND*%
X240500000Y-157200000D03*
%TD*%
D10*
%TO.P,H3,1*%
%TO.N,GND*%
X254500000Y-121200000D03*
%TD*%
%TA.AperFunction,Conductor*%
%TO.N,GND*%
G36*
X257504418Y-116700816D02*
G01*
X257704561Y-116715130D01*
X257722063Y-116717647D01*
X257913797Y-116759355D01*
X257930755Y-116764334D01*
X258114609Y-116832909D01*
X258130701Y-116840259D01*
X258302904Y-116934288D01*
X258317784Y-116943849D01*
X258474867Y-117061441D01*
X258488237Y-117073027D01*
X258626972Y-117211762D01*
X258638558Y-117225132D01*
X258756146Y-117382210D01*
X258765711Y-117397095D01*
X258859740Y-117569298D01*
X258867090Y-117585390D01*
X258935662Y-117769236D01*
X258940646Y-117786212D01*
X258982351Y-117977931D01*
X258984869Y-117995442D01*
X258999184Y-118195580D01*
X258999500Y-118204427D01*
X258999500Y-214195572D01*
X258999184Y-214204419D01*
X258984869Y-214404557D01*
X258982351Y-214422068D01*
X258940646Y-214613787D01*
X258935662Y-214630763D01*
X258867090Y-214814609D01*
X258859740Y-214830701D01*
X258765711Y-215002904D01*
X258756146Y-215017789D01*
X258638558Y-215174867D01*
X258626972Y-215188237D01*
X258488237Y-215326972D01*
X258474867Y-215338558D01*
X258317789Y-215456146D01*
X258302904Y-215465711D01*
X258130701Y-215559740D01*
X258114609Y-215567090D01*
X257930763Y-215635662D01*
X257913787Y-215640646D01*
X257722068Y-215682351D01*
X257704557Y-215684869D01*
X257523779Y-215697799D01*
X257504417Y-215699184D01*
X257495572Y-215699500D01*
X71504428Y-215699500D01*
X71495582Y-215699184D01*
X71473622Y-215697613D01*
X71295442Y-215684869D01*
X71277931Y-215682351D01*
X71086212Y-215640646D01*
X71069236Y-215635662D01*
X70885390Y-215567090D01*
X70869298Y-215559740D01*
X70697095Y-215465711D01*
X70682210Y-215456146D01*
X70525132Y-215338558D01*
X70511762Y-215326972D01*
X70373027Y-215188237D01*
X70361441Y-215174867D01*
X70243849Y-215017784D01*
X70234288Y-215002904D01*
X70140259Y-214830701D01*
X70132909Y-214814609D01*
X70091953Y-214704803D01*
X70064334Y-214630755D01*
X70059355Y-214613797D01*
X70017647Y-214422063D01*
X70015130Y-214404556D01*
X70000816Y-214204418D01*
X70000500Y-214195572D01*
X70000500Y-211199999D01*
X70995197Y-211199999D01*
X70995197Y-211200000D01*
X71014397Y-211566353D01*
X71071784Y-211928684D01*
X71071784Y-211928686D01*
X71166736Y-212283051D01*
X71298204Y-212625535D01*
X71464754Y-212952406D01*
X71664553Y-213260070D01*
X71853297Y-213493148D01*
X73205748Y-212140698D01*
X73279588Y-212242330D01*
X73457670Y-212420412D01*
X73559300Y-212494251D01*
X72206850Y-213846701D01*
X72439929Y-214035446D01*
X72747593Y-214235245D01*
X73074464Y-214401795D01*
X73416948Y-214533263D01*
X73771314Y-214628215D01*
X74133646Y-214685602D01*
X74499999Y-214704803D01*
X74500001Y-214704803D01*
X74866353Y-214685602D01*
X75228684Y-214628215D01*
X75228686Y-214628215D01*
X75583051Y-214533263D01*
X75925535Y-214401795D01*
X76252406Y-214235245D01*
X76560064Y-214035450D01*
X76793148Y-213846701D01*
X75440698Y-212494251D01*
X75542330Y-212420412D01*
X75720412Y-212242330D01*
X75794251Y-212140698D01*
X77146701Y-213493148D01*
X77335450Y-213260064D01*
X77535245Y-212952406D01*
X77701795Y-212625535D01*
X77833263Y-212283051D01*
X77928215Y-211928686D01*
X77928215Y-211928684D01*
X77985602Y-211566353D01*
X78004803Y-211200000D01*
X78004803Y-211199999D01*
X250995197Y-211199999D01*
X250995197Y-211200000D01*
X251014397Y-211566353D01*
X251071784Y-211928684D01*
X251071784Y-211928686D01*
X251166736Y-212283051D01*
X251298204Y-212625535D01*
X251464754Y-212952406D01*
X251664553Y-213260070D01*
X251853297Y-213493148D01*
X253205748Y-212140698D01*
X253279588Y-212242330D01*
X253457670Y-212420412D01*
X253559300Y-212494251D01*
X252206850Y-213846701D01*
X252439929Y-214035446D01*
X252747593Y-214235245D01*
X253074464Y-214401795D01*
X253416948Y-214533263D01*
X253771314Y-214628215D01*
X254133646Y-214685602D01*
X254499999Y-214704803D01*
X254500001Y-214704803D01*
X254866353Y-214685602D01*
X255228684Y-214628215D01*
X255228686Y-214628215D01*
X255583051Y-214533263D01*
X255925535Y-214401795D01*
X256252406Y-214235245D01*
X256560064Y-214035450D01*
X256793148Y-213846701D01*
X255440698Y-212494251D01*
X255542330Y-212420412D01*
X255720412Y-212242330D01*
X255794251Y-212140698D01*
X257146701Y-213493148D01*
X257335450Y-213260064D01*
X257535245Y-212952406D01*
X257701795Y-212625535D01*
X257833263Y-212283051D01*
X257928215Y-211928686D01*
X257928215Y-211928684D01*
X257985602Y-211566353D01*
X258004803Y-211200000D01*
X258004803Y-211199999D01*
X257985602Y-210833646D01*
X257928215Y-210471315D01*
X257928215Y-210471313D01*
X257833263Y-210116948D01*
X257701795Y-209774464D01*
X257535245Y-209447594D01*
X257335446Y-209139929D01*
X257146701Y-208906850D01*
X255794251Y-210259300D01*
X255720412Y-210157670D01*
X255542330Y-209979588D01*
X255440698Y-209905748D01*
X256793149Y-208553297D01*
X256560070Y-208364553D01*
X256252406Y-208164754D01*
X255925535Y-207998204D01*
X255583051Y-207866736D01*
X255228685Y-207771784D01*
X254866353Y-207714397D01*
X254500001Y-207695197D01*
X254499999Y-207695197D01*
X254133646Y-207714397D01*
X253771315Y-207771784D01*
X253771313Y-207771784D01*
X253416948Y-207866736D01*
X253074464Y-207998204D01*
X252747594Y-208164754D01*
X252439924Y-208364557D01*
X252206849Y-208553296D01*
X252206849Y-208553297D01*
X253559301Y-209905748D01*
X253457670Y-209979588D01*
X253279588Y-210157670D01*
X253205748Y-210259300D01*
X251853297Y-208906849D01*
X251853296Y-208906849D01*
X251664557Y-209139924D01*
X251464754Y-209447594D01*
X251298204Y-209774464D01*
X251166736Y-210116948D01*
X251071784Y-210471313D01*
X251071784Y-210471315D01*
X251014397Y-210833646D01*
X250995197Y-211199999D01*
X78004803Y-211199999D01*
X77985602Y-210833646D01*
X77928215Y-210471315D01*
X77928215Y-210471313D01*
X77833263Y-210116948D01*
X77701795Y-209774464D01*
X77535245Y-209447594D01*
X77335446Y-209139929D01*
X77146701Y-208906850D01*
X75794251Y-210259300D01*
X75720412Y-210157670D01*
X75542330Y-209979588D01*
X75440698Y-209905748D01*
X76793149Y-208553297D01*
X76560070Y-208364553D01*
X76252406Y-208164754D01*
X75925535Y-207998204D01*
X75583051Y-207866736D01*
X75228685Y-207771784D01*
X74866353Y-207714397D01*
X74500001Y-207695197D01*
X74499999Y-207695197D01*
X74133646Y-207714397D01*
X73771315Y-207771784D01*
X73771313Y-207771784D01*
X73416948Y-207866736D01*
X73074464Y-207998204D01*
X72747594Y-208164754D01*
X72439924Y-208364557D01*
X72206849Y-208553296D01*
X72206849Y-208553297D01*
X73559301Y-209905748D01*
X73457670Y-209979588D01*
X73279588Y-210157670D01*
X73205748Y-210259300D01*
X71853297Y-208906849D01*
X71853296Y-208906849D01*
X71664557Y-209139924D01*
X71464754Y-209447594D01*
X71298204Y-209774464D01*
X71166736Y-210116948D01*
X71071784Y-210471313D01*
X71071784Y-210471315D01*
X71014397Y-210833646D01*
X70995197Y-211199999D01*
X70000500Y-211199999D01*
X70000500Y-197200000D01*
X86245172Y-197200000D01*
X86264462Y-197494312D01*
X86264464Y-197494324D01*
X86322001Y-197783584D01*
X86322005Y-197783599D01*
X86416812Y-198062888D01*
X86547258Y-198327406D01*
X86547265Y-198327419D01*
X86711123Y-198572649D01*
X86740405Y-198606040D01*
X87563708Y-197782736D01*
X87660967Y-197916602D01*
X87783398Y-198039033D01*
X87917262Y-198136290D01*
X87093958Y-198959593D01*
X87127350Y-198988876D01*
X87372580Y-199152734D01*
X87372593Y-199152741D01*
X87637111Y-199283187D01*
X87916400Y-199377994D01*
X87916415Y-199377998D01*
X88205675Y-199435535D01*
X88205687Y-199435537D01*
X88500000Y-199454827D01*
X88794312Y-199435537D01*
X88794324Y-199435535D01*
X89083584Y-199377998D01*
X89083599Y-199377994D01*
X89362888Y-199283187D01*
X89627406Y-199152741D01*
X89627419Y-199152734D01*
X89872648Y-198988877D01*
X89906039Y-198959593D01*
X89082737Y-198136290D01*
X89216602Y-198039033D01*
X89339033Y-197916602D01*
X89436290Y-197782737D01*
X90259593Y-198606039D01*
X90288877Y-198572648D01*
X90452734Y-198327419D01*
X90452741Y-198327406D01*
X90583187Y-198062888D01*
X90677994Y-197783599D01*
X90677998Y-197783584D01*
X90735535Y-197494324D01*
X90735537Y-197494312D01*
X90754827Y-197200000D01*
X238245172Y-197200000D01*
X238264462Y-197494312D01*
X238264464Y-197494324D01*
X238322001Y-197783584D01*
X238322005Y-197783599D01*
X238416812Y-198062888D01*
X238547258Y-198327406D01*
X238547265Y-198327419D01*
X238711123Y-198572649D01*
X238740405Y-198606040D01*
X239563708Y-197782736D01*
X239660967Y-197916602D01*
X239783398Y-198039033D01*
X239917262Y-198136290D01*
X239093958Y-198959593D01*
X239127350Y-198988876D01*
X239372580Y-199152734D01*
X239372593Y-199152741D01*
X239637111Y-199283187D01*
X239916400Y-199377994D01*
X239916415Y-199377998D01*
X240205675Y-199435535D01*
X240205687Y-199435537D01*
X240500000Y-199454827D01*
X240794312Y-199435537D01*
X240794324Y-199435535D01*
X241083584Y-199377998D01*
X241083599Y-199377994D01*
X241362888Y-199283187D01*
X241627406Y-199152741D01*
X241627419Y-199152734D01*
X241872648Y-198988877D01*
X241906039Y-198959593D01*
X241082737Y-198136290D01*
X241216602Y-198039033D01*
X241339033Y-197916602D01*
X241436290Y-197782737D01*
X242259593Y-198606039D01*
X242288877Y-198572648D01*
X242452734Y-198327419D01*
X242452741Y-198327406D01*
X242583187Y-198062888D01*
X242677994Y-197783599D01*
X242677998Y-197783584D01*
X242735535Y-197494324D01*
X242735537Y-197494312D01*
X242754827Y-197200000D01*
X242735537Y-196905687D01*
X242735535Y-196905675D01*
X242677998Y-196616415D01*
X242677994Y-196616400D01*
X242583187Y-196337111D01*
X242452741Y-196072593D01*
X242452734Y-196072580D01*
X242288876Y-195827350D01*
X242259593Y-195793958D01*
X241436289Y-196617261D01*
X241339033Y-196483398D01*
X241216602Y-196360967D01*
X241082736Y-196263709D01*
X241906040Y-195440405D01*
X241872649Y-195411123D01*
X241627419Y-195247265D01*
X241627406Y-195247258D01*
X241362888Y-195116812D01*
X241083599Y-195022005D01*
X241083584Y-195022001D01*
X240794324Y-194964464D01*
X240794312Y-194964462D01*
X240500000Y-194945172D01*
X240205687Y-194964462D01*
X240205675Y-194964464D01*
X239916415Y-195022001D01*
X239916400Y-195022005D01*
X239637111Y-195116812D01*
X239372593Y-195247258D01*
X239372580Y-195247265D01*
X239127346Y-195411126D01*
X239127339Y-195411131D01*
X239093959Y-195440403D01*
X239093959Y-195440405D01*
X239917263Y-196263709D01*
X239783398Y-196360967D01*
X239660967Y-196483398D01*
X239563709Y-196617263D01*
X238740405Y-195793959D01*
X238740403Y-195793959D01*
X238711131Y-195827339D01*
X238711126Y-195827346D01*
X238547265Y-196072580D01*
X238547258Y-196072593D01*
X238416812Y-196337111D01*
X238322005Y-196616400D01*
X238322001Y-196616415D01*
X238264464Y-196905675D01*
X238264462Y-196905687D01*
X238245172Y-197200000D01*
X90754827Y-197200000D01*
X90735537Y-196905687D01*
X90735535Y-196905675D01*
X90677998Y-196616415D01*
X90677994Y-196616400D01*
X90583187Y-196337111D01*
X90452741Y-196072593D01*
X90452734Y-196072580D01*
X90288876Y-195827350D01*
X90259593Y-195793958D01*
X89436289Y-196617261D01*
X89339033Y-196483398D01*
X89216602Y-196360967D01*
X89082736Y-196263709D01*
X89906040Y-195440405D01*
X89872649Y-195411123D01*
X89627419Y-195247265D01*
X89627406Y-195247258D01*
X89362888Y-195116812D01*
X89083599Y-195022005D01*
X89083584Y-195022001D01*
X88794324Y-194964464D01*
X88794312Y-194964462D01*
X88500000Y-194945172D01*
X88205687Y-194964462D01*
X88205675Y-194964464D01*
X87916415Y-195022001D01*
X87916400Y-195022005D01*
X87637111Y-195116812D01*
X87372593Y-195247258D01*
X87372580Y-195247265D01*
X87127346Y-195411126D01*
X87127339Y-195411131D01*
X87093959Y-195440403D01*
X87093959Y-195440405D01*
X87917263Y-196263709D01*
X87783398Y-196360967D01*
X87660967Y-196483398D01*
X87563709Y-196617262D01*
X86740405Y-195793959D01*
X86740403Y-195793959D01*
X86711131Y-195827339D01*
X86711126Y-195827346D01*
X86547265Y-196072580D01*
X86547258Y-196072593D01*
X86416812Y-196337111D01*
X86322005Y-196616400D01*
X86322001Y-196616415D01*
X86264464Y-196905675D01*
X86264462Y-196905687D01*
X86245172Y-197200000D01*
X70000500Y-197200000D01*
X70000500Y-157200000D01*
X86245172Y-157200000D01*
X86264462Y-157494312D01*
X86264464Y-157494324D01*
X86322001Y-157783584D01*
X86322005Y-157783599D01*
X86416812Y-158062888D01*
X86547258Y-158327406D01*
X86547265Y-158327419D01*
X86711123Y-158572649D01*
X86740405Y-158606040D01*
X87563708Y-157782736D01*
X87660967Y-157916602D01*
X87783398Y-158039033D01*
X87917262Y-158136290D01*
X87093958Y-158959593D01*
X87127350Y-158988876D01*
X87372580Y-159152734D01*
X87372593Y-159152741D01*
X87637111Y-159283187D01*
X87916400Y-159377994D01*
X87916415Y-159377998D01*
X88205675Y-159435535D01*
X88205687Y-159435537D01*
X88500000Y-159454827D01*
X88794312Y-159435537D01*
X88794324Y-159435535D01*
X89083584Y-159377998D01*
X89083599Y-159377994D01*
X89362888Y-159283187D01*
X89627406Y-159152741D01*
X89627419Y-159152734D01*
X89872648Y-158988877D01*
X89906039Y-158959593D01*
X89082737Y-158136290D01*
X89216602Y-158039033D01*
X89339033Y-157916602D01*
X89436290Y-157782737D01*
X90259593Y-158606039D01*
X90288877Y-158572648D01*
X90452734Y-158327419D01*
X90452741Y-158327406D01*
X90583187Y-158062888D01*
X90677994Y-157783599D01*
X90677998Y-157783584D01*
X90735535Y-157494324D01*
X90735537Y-157494312D01*
X90754827Y-157200000D01*
X238245172Y-157200000D01*
X238264462Y-157494312D01*
X238264464Y-157494324D01*
X238322001Y-157783584D01*
X238322005Y-157783599D01*
X238416812Y-158062888D01*
X238547258Y-158327406D01*
X238547265Y-158327419D01*
X238711123Y-158572649D01*
X238740405Y-158606040D01*
X239563708Y-157782736D01*
X239660967Y-157916602D01*
X239783398Y-158039033D01*
X239917262Y-158136290D01*
X239093958Y-158959593D01*
X239127350Y-158988876D01*
X239372580Y-159152734D01*
X239372593Y-159152741D01*
X239637111Y-159283187D01*
X239916400Y-159377994D01*
X239916415Y-159377998D01*
X240205675Y-159435535D01*
X240205687Y-159435537D01*
X240500000Y-159454827D01*
X240794312Y-159435537D01*
X240794324Y-159435535D01*
X241083584Y-159377998D01*
X241083599Y-159377994D01*
X241362888Y-159283187D01*
X241627406Y-159152741D01*
X241627419Y-159152734D01*
X241872648Y-158988877D01*
X241906039Y-158959593D01*
X241082737Y-158136290D01*
X241216602Y-158039033D01*
X241339033Y-157916602D01*
X241436290Y-157782737D01*
X242259593Y-158606039D01*
X242288877Y-158572648D01*
X242452734Y-158327419D01*
X242452741Y-158327406D01*
X242583187Y-158062888D01*
X242677994Y-157783599D01*
X242677998Y-157783584D01*
X242735535Y-157494324D01*
X242735537Y-157494312D01*
X242754827Y-157200000D01*
X242735537Y-156905687D01*
X242735535Y-156905675D01*
X242677998Y-156616415D01*
X242677994Y-156616400D01*
X242583187Y-156337111D01*
X242452741Y-156072593D01*
X242452734Y-156072580D01*
X242288876Y-155827350D01*
X242259593Y-155793958D01*
X241436289Y-156617261D01*
X241339033Y-156483398D01*
X241216602Y-156360967D01*
X241082736Y-156263709D01*
X241906040Y-155440405D01*
X241872649Y-155411123D01*
X241627419Y-155247265D01*
X241627406Y-155247258D01*
X241362888Y-155116812D01*
X241083599Y-155022005D01*
X241083584Y-155022001D01*
X240794324Y-154964464D01*
X240794312Y-154964462D01*
X240500000Y-154945172D01*
X240205687Y-154964462D01*
X240205675Y-154964464D01*
X239916415Y-155022001D01*
X239916400Y-155022005D01*
X239637111Y-155116812D01*
X239372593Y-155247258D01*
X239372580Y-155247265D01*
X239127346Y-155411126D01*
X239127339Y-155411131D01*
X239093959Y-155440403D01*
X239093959Y-155440405D01*
X239917263Y-156263709D01*
X239783398Y-156360967D01*
X239660967Y-156483398D01*
X239563709Y-156617263D01*
X238740405Y-155793959D01*
X238740403Y-155793959D01*
X238711131Y-155827339D01*
X238711126Y-155827346D01*
X238547265Y-156072580D01*
X238547258Y-156072593D01*
X238416812Y-156337111D01*
X238322005Y-156616400D01*
X238322001Y-156616415D01*
X238264464Y-156905675D01*
X238264462Y-156905687D01*
X238245172Y-157200000D01*
X90754827Y-157200000D01*
X90735537Y-156905687D01*
X90735535Y-156905675D01*
X90677998Y-156616415D01*
X90677994Y-156616400D01*
X90583187Y-156337111D01*
X90452741Y-156072593D01*
X90452734Y-156072580D01*
X90288876Y-155827350D01*
X90259593Y-155793958D01*
X89436289Y-156617261D01*
X89339033Y-156483398D01*
X89216602Y-156360967D01*
X89082736Y-156263709D01*
X89906040Y-155440405D01*
X89872649Y-155411123D01*
X89627419Y-155247265D01*
X89627406Y-155247258D01*
X89362888Y-155116812D01*
X89083599Y-155022005D01*
X89083584Y-155022001D01*
X88794324Y-154964464D01*
X88794312Y-154964462D01*
X88500000Y-154945172D01*
X88205687Y-154964462D01*
X88205675Y-154964464D01*
X87916415Y-155022001D01*
X87916400Y-155022005D01*
X87637111Y-155116812D01*
X87372593Y-155247258D01*
X87372580Y-155247265D01*
X87127346Y-155411126D01*
X87127339Y-155411131D01*
X87093959Y-155440403D01*
X87093959Y-155440405D01*
X87917263Y-156263709D01*
X87783398Y-156360967D01*
X87660967Y-156483398D01*
X87563709Y-156617262D01*
X86740405Y-155793959D01*
X86740403Y-155793959D01*
X86711131Y-155827339D01*
X86711126Y-155827346D01*
X86547265Y-156072580D01*
X86547258Y-156072593D01*
X86416812Y-156337111D01*
X86322005Y-156616400D01*
X86322001Y-156616415D01*
X86264464Y-156905675D01*
X86264462Y-156905687D01*
X86245172Y-157200000D01*
X70000500Y-157200000D01*
X70000500Y-121199999D01*
X70995197Y-121199999D01*
X70995197Y-121200000D01*
X71014397Y-121566353D01*
X71071784Y-121928684D01*
X71071784Y-121928686D01*
X71166736Y-122283051D01*
X71298204Y-122625535D01*
X71464754Y-122952406D01*
X71664553Y-123260070D01*
X71853297Y-123493148D01*
X73205748Y-122140698D01*
X73279588Y-122242330D01*
X73457670Y-122420412D01*
X73559300Y-122494251D01*
X72206850Y-123846701D01*
X72439929Y-124035446D01*
X72747593Y-124235245D01*
X73074464Y-124401795D01*
X73416948Y-124533263D01*
X73771314Y-124628215D01*
X74133646Y-124685602D01*
X74499999Y-124704803D01*
X74500001Y-124704803D01*
X74866353Y-124685602D01*
X75228684Y-124628215D01*
X75228686Y-124628215D01*
X75583051Y-124533263D01*
X75925535Y-124401795D01*
X76252406Y-124235245D01*
X76560064Y-124035450D01*
X76793148Y-123846701D01*
X75440698Y-122494251D01*
X75542330Y-122420412D01*
X75720412Y-122242330D01*
X75794251Y-122140698D01*
X77146701Y-123493148D01*
X77335450Y-123260064D01*
X77535245Y-122952406D01*
X77701795Y-122625535D01*
X77833263Y-122283051D01*
X77928215Y-121928686D01*
X77928215Y-121928684D01*
X77985602Y-121566353D01*
X78004803Y-121200000D01*
X78004803Y-121199999D01*
X250995197Y-121199999D01*
X250995197Y-121200000D01*
X251014397Y-121566353D01*
X251071784Y-121928684D01*
X251071784Y-121928686D01*
X251166736Y-122283051D01*
X251298204Y-122625535D01*
X251464754Y-122952406D01*
X251664553Y-123260070D01*
X251853297Y-123493148D01*
X253205748Y-122140698D01*
X253279588Y-122242330D01*
X253457670Y-122420412D01*
X253559300Y-122494251D01*
X252206850Y-123846701D01*
X252439929Y-124035446D01*
X252747593Y-124235245D01*
X253074464Y-124401795D01*
X253416948Y-124533263D01*
X253771314Y-124628215D01*
X254133646Y-124685602D01*
X254499999Y-124704803D01*
X254500001Y-124704803D01*
X254866353Y-124685602D01*
X255228684Y-124628215D01*
X255228686Y-124628215D01*
X255583051Y-124533263D01*
X255925535Y-124401795D01*
X256252406Y-124235245D01*
X256560064Y-124035450D01*
X256793148Y-123846701D01*
X255440698Y-122494251D01*
X255542330Y-122420412D01*
X255720412Y-122242330D01*
X255794251Y-122140698D01*
X257146701Y-123493148D01*
X257335450Y-123260064D01*
X257535245Y-122952406D01*
X257701795Y-122625535D01*
X257833263Y-122283051D01*
X257928215Y-121928686D01*
X257928215Y-121928684D01*
X257985602Y-121566353D01*
X258004803Y-121200000D01*
X258004803Y-121199999D01*
X257985602Y-120833646D01*
X257928215Y-120471315D01*
X257928215Y-120471313D01*
X257833263Y-120116948D01*
X257701795Y-119774464D01*
X257535245Y-119447594D01*
X257335446Y-119139929D01*
X257146701Y-118906850D01*
X255794251Y-120259300D01*
X255720412Y-120157670D01*
X255542330Y-119979588D01*
X255440698Y-119905748D01*
X256793149Y-118553297D01*
X256560070Y-118364553D01*
X256252406Y-118164754D01*
X255925535Y-117998204D01*
X255583051Y-117866736D01*
X255228685Y-117771784D01*
X254866353Y-117714397D01*
X254500001Y-117695197D01*
X254499999Y-117695197D01*
X254133646Y-117714397D01*
X253771315Y-117771784D01*
X253771313Y-117771784D01*
X253416948Y-117866736D01*
X253074464Y-117998204D01*
X252747594Y-118164754D01*
X252439924Y-118364557D01*
X252206849Y-118553296D01*
X252206849Y-118553297D01*
X253559301Y-119905748D01*
X253457670Y-119979588D01*
X253279588Y-120157670D01*
X253205748Y-120259300D01*
X251853297Y-118906849D01*
X251853296Y-118906849D01*
X251664557Y-119139924D01*
X251464754Y-119447594D01*
X251298204Y-119774464D01*
X251166736Y-120116948D01*
X251071784Y-120471313D01*
X251071784Y-120471315D01*
X251014397Y-120833646D01*
X250995197Y-121199999D01*
X78004803Y-121199999D01*
X77985602Y-120833646D01*
X77928215Y-120471315D01*
X77928215Y-120471313D01*
X77833263Y-120116948D01*
X77701795Y-119774464D01*
X77535245Y-119447594D01*
X77335446Y-119139929D01*
X77146701Y-118906850D01*
X75794251Y-120259300D01*
X75720412Y-120157670D01*
X75542330Y-119979588D01*
X75440698Y-119905748D01*
X76793149Y-118553297D01*
X76560070Y-118364553D01*
X76252406Y-118164754D01*
X75925535Y-117998204D01*
X75583051Y-117866736D01*
X75228685Y-117771784D01*
X74866353Y-117714397D01*
X74500001Y-117695197D01*
X74499999Y-117695197D01*
X74133646Y-117714397D01*
X73771315Y-117771784D01*
X73771313Y-117771784D01*
X73416948Y-117866736D01*
X73074464Y-117998204D01*
X72747594Y-118164754D01*
X72439924Y-118364557D01*
X72206849Y-118553296D01*
X72206849Y-118553297D01*
X73559301Y-119905748D01*
X73457670Y-119979588D01*
X73279588Y-120157670D01*
X73205748Y-120259300D01*
X71853297Y-118906849D01*
X71853296Y-118906849D01*
X71664557Y-119139924D01*
X71464754Y-119447594D01*
X71298204Y-119774464D01*
X71166736Y-120116948D01*
X71071784Y-120471313D01*
X71071784Y-120471315D01*
X71014397Y-120833646D01*
X70995197Y-121199999D01*
X70000500Y-121199999D01*
X70000500Y-118204427D01*
X70000816Y-118195581D01*
X70015130Y-117995443D01*
X70015131Y-117995442D01*
X70015130Y-117995436D01*
X70017646Y-117977938D01*
X70059356Y-117786199D01*
X70064333Y-117769248D01*
X70132911Y-117585385D01*
X70140259Y-117569298D01*
X70202815Y-117454734D01*
X70234291Y-117397089D01*
X70243845Y-117382221D01*
X70361448Y-117225123D01*
X70373020Y-117211769D01*
X70511769Y-117073020D01*
X70525123Y-117061448D01*
X70682221Y-116943845D01*
X70697089Y-116934291D01*
X70869298Y-116840258D01*
X70885385Y-116832911D01*
X71069248Y-116764333D01*
X71086199Y-116759356D01*
X71277938Y-116717646D01*
X71295436Y-116715130D01*
X71495582Y-116700816D01*
X71504428Y-116700500D01*
X71565892Y-116700500D01*
X257434108Y-116700500D01*
X257495572Y-116700500D01*
X257504418Y-116700816D01*
G37*
%TD.AperFunction*%
%TD*%
M02*
